<svg width="231" height="219" viewBox="0 0 231 219" fill="none" xmlns="http://www.w3.org/2000/svg">
<path d="M13.1324 93.8389L29.1995 99.5096L25.1703 101.897L13.9283 108.314L10.297 110.354L13.1324 93.8389Z" fill="#EBEBEB"/>
<path d="M83.1713 182.084L93.1697 177.558L71.3821 140.399L61.5328 149.154L44.2718 118.86L34.7708 125.277L19.3006 97.3711L13.5801 99.7588L32.4826 137.415L43.2272 128.113L59.4934 161.938L69.2431 151.393L83.1713 182.084Z" fill="#EBEBEB"/>
<path d="M227.577 139.553C226.433 147.114 219.369 152.337 211.758 151.193C204.148 150.049 198.924 142.985 200.069 135.374C201.213 127.813 208.276 122.59 215.887 123.734C223.448 124.928 228.721 131.992 227.577 139.553Z" fill="#F5F5F5"/>
<path d="M224.294 139.056C223.448 144.826 218.026 148.805 212.256 147.96C206.485 147.114 202.456 141.692 203.352 135.922C204.197 130.151 209.619 126.172 215.39 127.018C221.16 127.913 225.139 133.285 224.294 139.056Z" fill="#EBEBEB"/>
<path d="M224.343 138.757C224.294 138.757 224.294 138.26 224.244 137.464C224.194 136.618 224.045 135.425 223.498 134.082C223.249 133.385 222.851 132.689 222.403 131.943C221.906 131.246 221.309 130.55 220.613 129.903C220.264 129.605 219.867 129.306 219.419 129.008C219.021 128.759 218.573 128.461 218.076 128.262C217.578 128.063 217.081 127.864 216.583 127.714C216.086 127.565 215.539 127.466 214.992 127.416C214.444 127.366 213.897 127.316 213.35 127.366C212.803 127.366 212.305 127.466 211.758 127.565C211.261 127.665 210.763 127.814 210.266 127.963C209.769 128.112 209.321 128.311 208.923 128.56C208.077 129.008 207.331 129.555 206.684 130.102C206.038 130.699 205.54 131.296 205.142 131.893C204.297 133.087 203.899 134.231 203.65 135.027C203.401 135.823 203.302 136.27 203.252 136.27C203.202 136.27 203.202 135.773 203.352 134.927C203.501 134.082 203.849 132.888 204.695 131.545C205.093 130.898 205.64 130.202 206.287 129.555C206.933 128.908 207.729 128.311 208.624 127.814C209.072 127.565 209.57 127.316 210.067 127.167C210.564 126.968 211.112 126.819 211.659 126.719C212.206 126.62 212.803 126.521 213.35 126.521C213.947 126.521 214.544 126.521 215.091 126.57C215.688 126.62 216.285 126.769 216.832 126.918C217.379 127.068 217.927 127.267 218.424 127.515C218.921 127.764 219.419 128.013 219.867 128.311C220.314 128.61 220.712 128.958 221.11 129.306C221.856 130.003 222.503 130.749 223 131.545C223.498 132.341 223.846 133.087 224.095 133.833C224.592 135.325 224.642 136.569 224.592 137.414C224.542 138.31 224.393 138.757 224.343 138.757Z" fill="#E0E0E0"/>
<path d="M214.047 143.93L213.798 145.771L212.156 145.572L212.405 143.781C210.813 143.483 209.321 142.737 208.525 141.941L209.669 140.05C210.415 140.747 211.51 141.344 212.703 141.642L213.052 138.906C211.311 138.21 209.371 137.364 209.669 135.026C209.918 133.285 211.36 131.992 213.997 132.042L214.246 130.251L215.887 130.45L215.638 132.241C216.832 132.489 217.976 132.987 218.822 133.683L217.728 135.574C216.981 134.977 216.136 134.579 215.34 134.38L214.942 137.165C216.683 137.812 218.623 138.707 218.275 140.996C218.126 142.687 216.683 143.98 214.047 143.93ZM213.4 136.469L213.698 134.131C212.803 134.23 212.405 134.628 212.306 135.176C212.256 135.773 212.703 136.17 213.4 136.469ZM215.688 140.797C215.788 140.2 215.34 139.851 214.643 139.503L214.345 141.742C215.191 141.692 215.589 141.344 215.688 140.797Z" fill="#E0E0E0"/>
<path d="M217.479 30.2666C216.484 36.8825 210.316 41.4092 203.7 40.4143C197.084 39.4194 192.508 33.2512 193.502 26.6353C194.497 20.0194 200.666 15.4928 207.281 16.4876C213.897 17.4825 218.474 23.6507 217.479 30.2666Z" fill="#F5F5F5"/>
<path d="M214.643 29.8192C213.897 34.8433 209.172 38.3254 204.148 37.5792C199.123 36.8331 195.641 32.1074 196.388 27.0833C197.134 22.0592 201.859 18.5772 206.883 19.3233C211.908 20.0695 215.39 24.7951 214.643 29.8192Z" fill="#EBEBEB"/>
<path d="M214.643 29.521C214.594 29.521 214.594 29.123 214.544 28.3769C214.494 27.6805 214.395 26.6358 213.897 25.442C213.649 24.8451 213.35 24.1984 212.952 23.6015C212.554 23.0046 212.007 22.3579 211.36 21.8107C211.062 21.5123 210.714 21.2635 210.316 21.0148C209.968 20.7661 209.57 20.5671 209.122 20.3682C208.724 20.1692 208.276 20.02 207.829 19.8707C207.381 19.7215 206.933 19.6718 206.436 19.5723C205.938 19.5225 205.491 19.5225 204.993 19.5225C204.545 19.5225 204.048 19.622 203.6 19.6717C203.153 19.7712 202.705 19.8707 202.307 20.02C201.909 20.1692 201.511 20.3184 201.113 20.5174C200.367 20.9153 199.72 21.363 199.173 21.8605C198.626 22.3579 198.178 22.9051 197.83 23.4523C197.084 24.4969 196.736 25.4917 196.537 26.1882C196.338 26.8846 196.238 27.2825 196.189 27.2825C196.139 27.2825 196.139 26.8846 196.238 26.1384C196.388 25.3923 196.686 24.3476 197.382 23.2035C197.731 22.6564 198.178 22.0594 198.775 21.4625C199.322 20.9153 200.019 20.3682 200.815 19.9702C201.213 19.7712 201.611 19.5723 202.058 19.3733C202.506 19.2241 202.954 19.0748 203.451 18.9753C203.949 18.8759 204.446 18.8261 204.943 18.7764C205.441 18.7764 205.988 18.7764 206.485 18.8261C206.983 18.8759 207.53 18.9753 207.978 19.1246C208.475 19.2738 208.923 19.423 209.371 19.6717C209.818 19.8707 210.216 20.1194 210.614 20.3682C211.012 20.6169 211.36 20.9153 211.709 21.2138C212.355 21.8107 212.902 22.5071 213.35 23.1538C213.748 23.8502 214.096 24.4969 214.295 25.1435C214.743 26.4369 214.793 27.5312 214.743 28.2774C214.842 29.123 214.693 29.521 214.643 29.521Z" fill="#E0E0E0"/>
<path d="M205.69 34.0468L205.491 35.6386L204.048 35.4396L204.247 33.8976C202.854 33.5991 201.561 33.0022 200.865 32.256L201.859 30.6145C202.506 31.2611 203.451 31.7586 204.496 32.0073L204.794 29.6196C203.252 29.0227 201.561 28.2765 201.859 26.2371C202.058 24.7447 203.352 23.6006 205.64 23.6504L205.839 22.0586L207.281 22.2576L207.082 23.7996C208.127 24.0483 209.122 24.4463 209.868 25.0432L208.923 26.6847C208.276 26.1873 207.53 25.8391 206.834 25.6401L206.486 28.0776C208.028 28.6745 209.669 29.4206 209.42 31.4104C209.221 32.9524 207.978 34.0965 205.69 34.0468ZM205.142 27.5801L205.391 25.5406C204.595 25.5904 204.247 25.9883 204.197 26.436C204.148 26.9335 204.546 27.2817 205.142 27.5801ZM207.132 31.3109C207.182 30.8135 206.834 30.4653 206.237 30.1668L205.988 32.1565C206.684 32.1068 207.033 31.7586 207.132 31.3109Z" fill="#E0E0E0"/>
<path d="M75.2123 14.8955C78.1472 25.6401 71.78 36.7329 60.9857 39.6677C50.1913 42.6026 39.0985 36.2354 36.1636 25.4908C33.2288 14.7462 39.5959 3.65341 50.3903 0.718542C61.1846 -2.21633 72.2775 4.1011 75.2123 14.8955Z" fill="#F5F5F5"/>
<path d="M70.5364 16.1389C72.7749 24.3466 67.9 32.803 59.6923 35.0414C51.4846 37.2799 42.9785 32.4548 40.7898 24.2471C38.5513 16.0394 43.4262 7.583 51.6339 5.34454C59.8415 3.10608 68.3477 7.9312 70.5364 16.1389Z" fill="#EBEBEB"/>
<path d="M70.437 15.691C70.3375 15.7408 70.0888 15.0941 69.5416 13.9997C68.9944 12.9551 68.099 11.4131 66.6067 9.92076C65.8606 9.17461 64.9652 8.42846 63.9206 7.73205C62.876 7.08538 61.6821 6.48846 60.339 6.09051C59.6924 5.89154 58.996 5.69256 58.2498 5.59308C57.5534 5.49359 56.8073 5.3941 56.0114 5.3941C55.2652 5.3941 54.4693 5.44385 53.7232 5.54333C52.9273 5.64282 52.1811 5.84179 51.3852 6.04077C50.6391 6.28949 49.8929 6.58795 49.1467 6.93615C48.4503 7.28436 47.7539 7.68231 47.157 8.13C46.5103 8.57769 45.9632 9.02538 45.416 9.52282C44.8688 10.0203 44.4211 10.5674 43.9734 11.1146C43.078 12.209 42.4314 13.3531 41.9339 14.4972C41.4365 15.6413 41.0883 16.7854 40.8893 17.83C40.4914 19.9192 40.5909 21.6602 40.7401 22.8541C40.8893 24.0479 41.0386 24.6946 40.9391 24.7443C40.8893 24.7443 40.5909 24.1474 40.2924 22.9536C39.9939 21.7597 39.7452 19.9192 40.0934 17.6808C40.2427 16.5864 40.5411 15.3428 41.0386 14.149C41.536 12.9054 42.2324 11.6618 43.1278 10.4679C43.5755 9.87102 44.0729 9.2741 44.6698 8.72692C45.217 8.17974 45.8637 7.63256 46.5103 7.18487C47.157 6.73718 47.9032 6.28949 48.6493 5.89154C49.3955 5.54333 50.1914 5.19513 51.037 4.94641C51.8826 4.69769 52.7283 4.49872 53.5242 4.39923C54.3698 4.29975 55.2155 4.25 56.0114 4.25C56.8073 4.25 57.6529 4.34949 58.399 4.49872C59.1949 4.64795 59.9411 4.84692 60.6375 5.0459C62.0801 5.54333 63.3237 6.19 64.418 6.93615C65.5124 7.6823 66.4575 8.52795 67.2037 9.37359C68.696 11.0649 69.5416 12.7064 69.9893 13.8505C70.3872 14.9946 70.4867 15.6413 70.437 15.691Z" fill="#E0E0E0"/>
<path d="M59.7918 28.625L60.538 31.2116L58.2498 31.8583L57.5036 29.3214C55.1657 29.8188 52.778 29.7691 51.2359 29.1224L51.6836 25.9388C53.0764 26.4362 54.917 26.5855 56.6082 26.287L55.5139 22.4568C52.778 22.5562 49.6939 22.5562 48.7488 19.2234C48.0524 16.786 49.1965 14.1496 52.7282 12.707L51.9821 10.1701L54.2703 9.52344L55.0164 12.0604C56.8072 11.7122 58.598 11.6624 60.0903 12.1101L59.7421 15.2937C58.3493 14.9455 57.0559 14.8957 55.8621 15.0947L57.0062 19.0245C59.7421 18.8752 62.7764 18.925 63.7216 22.1583C64.418 24.546 63.2739 27.1326 59.7918 28.625ZM54.519 19.0742L53.5739 15.7911C52.4298 16.4378 52.1313 17.2337 52.38 17.9798C52.6288 18.8255 53.4247 19.0742 54.519 19.0742ZM60.0903 23.5014C59.8416 22.7055 59.0457 22.4568 57.9513 22.407L58.8467 25.5906C59.9908 24.9937 60.2893 24.2475 60.0903 23.5014Z" fill="#E0E0E0"/>
<path d="M30.1944 49.0197C28.9011 55.8843 22.2852 60.3612 15.4206 59.0679C8.55597 57.7746 4.02931 51.1587 5.32264 44.2941C6.61597 37.4294 13.2319 32.9525 20.0965 34.2459C26.9611 35.5392 31.4877 42.1551 30.1944 49.0197Z" fill="#F5F5F5"/>
<path d="M27.2098 48.4224C26.215 53.6455 21.1909 57.0778 15.9181 56.0829C10.695 55.0881 7.26268 50.064 8.25755 44.8409C9.25242 39.6178 14.2765 36.1855 19.5493 37.1804C24.7724 38.1753 28.2047 43.1994 27.2098 48.4224Z" fill="#EBEBEB"/>
<path d="M27.2595 48.1245C27.2098 48.1245 27.2595 47.6768 27.2098 46.9306C27.2098 46.1845 27.1103 45.0901 26.6626 43.7968C26.4636 43.1501 26.1651 42.5035 25.7175 41.8568C25.3195 41.2101 24.7723 40.5137 24.1257 39.9168C23.8272 39.6183 23.479 39.3199 23.081 39.0712C22.6831 38.8224 22.3349 38.5737 21.8872 38.3748C21.4395 38.1758 21.0416 37.9768 20.5441 37.8276C20.0964 37.6783 19.599 37.5789 19.1016 37.4794C18.6041 37.3799 18.1067 37.3799 17.6093 37.3799C17.1118 37.3799 16.6144 37.4296 16.1667 37.4794C15.719 37.5291 15.2216 37.6783 14.8236 37.7778C14.3759 37.9271 13.978 38.0763 13.58 38.2753C12.7841 38.6235 12.0877 39.1209 11.4908 39.6183C10.8939 40.1158 10.3964 40.663 9.9985 41.2101C9.2026 42.2547 8.75491 43.2994 8.50619 43.9958C8.25747 44.6922 8.15799 45.1399 8.10824 45.0901C8.0585 45.0901 8.0585 44.6424 8.20773 43.8963C8.35696 43.1501 8.75491 42.0558 9.5508 40.8619C9.94875 40.265 10.4462 39.6681 11.0431 39.1209C11.64 38.5737 12.3862 38.0265 13.2318 37.6286C13.6298 37.4296 14.0775 37.2307 14.5749 37.0814C15.0226 36.9322 15.52 36.783 16.0175 36.7332C16.5149 36.6337 17.0621 36.584 17.5595 36.584C18.1067 36.584 18.6041 36.6337 19.1513 36.6835C19.6985 36.783 20.1959 36.8824 20.6934 37.0814C21.1908 37.2307 21.6882 37.4296 22.1359 37.6783C22.5836 37.9271 23.0313 38.1758 23.4293 38.4742C23.8272 38.7727 24.1754 39.0712 24.5236 39.4194C25.1703 40.066 25.7175 40.8122 26.1651 41.5086C26.5631 42.205 26.8616 42.9512 27.0605 43.6476C27.4585 44.9906 27.4585 46.1347 27.4087 46.9306C27.4585 47.7265 27.3092 48.1245 27.2595 48.1245Z" fill="#E0E0E0"/>
<path d="M17.7585 52.5022L17.4601 54.1437L15.9678 53.895L16.2662 52.3032C14.8237 51.955 13.4806 51.2586 12.7842 50.4627L13.9283 48.8211C14.5749 49.5176 15.5698 50.0647 16.6144 50.3632L17.0621 47.876C15.4703 47.1796 13.779 46.334 14.1273 44.195C14.376 42.6529 15.7688 41.4591 18.1565 41.6083L18.4549 39.9668L19.9472 40.2155L19.6488 41.8073C20.7431 42.1058 21.7878 42.5535 22.4842 43.2499L21.4396 44.9412C20.7431 44.394 20.0467 43.996 19.3006 43.797L18.8529 46.334C20.4447 46.9806 22.136 47.876 21.7878 49.9652C21.4893 51.5073 20.0965 52.6017 17.7585 52.5022ZM17.4103 45.6873L17.7585 43.5981C16.9626 43.6478 16.5647 43.996 16.4652 44.4935C16.4155 45.0406 16.8134 45.3888 17.4103 45.6873ZM19.3503 49.7165C19.4498 49.2191 19.0519 48.8211 18.4549 48.5227L18.1067 50.5622C18.8529 50.5124 19.2508 50.1642 19.3503 49.7165Z" fill="#E0E0E0"/>
<path d="M227.825 160.544L215.738 160.097L217.827 162.683L223.548 169.846L225.388 172.184L227.825 160.544Z" fill="#F5F5F5"/>
<path d="M158.682 200.439L153.26 194.868L177.286 176.065L181.514 184.372L200.815 168.902L205.391 175.617L222.851 161.291L225.985 164.325L203.7 184.223L199.074 175.269L179.524 193.326L175.843 183.825L158.682 200.439Z" fill="#F5F5F5"/>
<path d="M204.844 52.9492L188.727 61.5549L193.403 63.3954L206.336 68.4195L210.515 70.061L204.844 52.9492Z" fill="#E0E0E0"/>
<path d="M144.704 157.659L133.363 154.476L150.524 111.597L162.363 119.307L175.844 84.4369L186.936 89.7594L198.925 57.7246L205.341 59.3164L191.264 102.195L178.43 94.0871L166.541 132.539L154.553 122.889L144.704 157.659Z" fill="#E0E0E0"/>
<path d="M228.422 218.596C228.422 218.645 177.286 218.745 114.211 218.745C51.1364 218.745 0 218.695 0 218.596C0 218.546 51.1364 218.446 114.211 218.446C177.286 218.446 228.422 218.496 228.422 218.596Z" fill="#003744"/>
<path d="M132.901 218.454H145.188V198.358H132.901V218.454Z" fill="#00E8E8"/>
<path d="M182.368 218.444H194.655V184.37H182.368V218.444Z" fill="#00E8E8"/>
<path d="M207.127 218.446H219.413V206.06H207.127V218.446Z" fill="#00E8E8"/>
<path d="M157.66 218.462H169.946V188.815H157.66V218.462Z" fill="#00E8E8"/>
<path d="M108.142 218.489H120.429V181.58H108.142V218.489Z" fill="#00E8E8"/>
<path d="M83.4337 218.464H95.7203V171.009H83.4337V218.464Z" fill="#00E8E8"/>
<path d="M58.6751 218.482H70.9618L70.9618 159.238H58.6751L58.6751 218.482Z" fill="#00E8E8"/>
<path d="M33.9166 218.486H46.2032L46.2032 143.274H33.9166L33.9166 218.486Z" fill="#00E8E8"/>
<path d="M9.20797 218.462H21.4946L21.4946 119.572H9.20797L9.20797 218.462Z" fill="#00E8E8"/>
<path d="M197.979 205.164C194.05 197.553 185.792 192.33 177.236 192.131C182.459 186.361 183.454 177.457 180.47 170.294C177.485 163.131 170.869 157.808 163.457 155.52C156.046 153.232 147.937 153.779 140.575 156.117C141.421 150.546 135.85 144.925 130.229 145.82C132.417 144.328 133.164 141.045 131.87 138.756C130.577 136.418 127.393 135.424 124.956 136.518L125.304 95.5293H117.246H109.038H100.979L101.328 136.518C98.8903 135.424 95.7067 136.468 94.4134 138.756C93.12 141.094 93.8662 144.328 96.0549 145.82C90.4836 144.974 84.8626 150.546 85.7082 156.117C78.3462 153.729 70.238 153.182 62.8262 155.52C55.4144 157.808 48.7985 163.131 45.8139 170.294C42.8293 177.457 43.8242 186.361 49.0472 192.131C40.4914 192.33 32.1842 197.553 28.3042 205.164C26.016 209.591 25.817 216.157 30.2442 218.495H109.137H117.345H196.238C200.417 216.157 200.218 209.591 197.979 205.164Z" fill="#EBEBEB"/>
<path d="M30.0452 218.446C30.0452 218.446 29.8462 218.347 29.4483 218.098C29.0503 217.849 28.5529 217.402 27.956 216.705C27.4088 215.959 26.9113 214.964 26.6626 213.621C26.4139 212.328 26.4139 210.736 26.7124 209.045C27.0108 207.353 27.7072 205.513 28.8513 203.672C29.9457 201.832 31.438 200.041 33.2785 198.35C35.1688 196.708 37.3575 195.117 39.9939 194.022C40.3421 193.873 40.6406 193.724 40.9888 193.624C41.337 193.525 41.6852 193.376 42.0334 193.276C42.3816 193.127 42.7298 193.027 43.078 192.928C43.4262 192.828 43.8241 192.729 44.1723 192.629C45.6646 192.281 47.2067 192.082 48.7985 192.032L48.7487 192.182C47.2564 190.49 46.0129 188.451 45.1175 186.113C44.2718 183.825 43.8241 181.288 43.8241 178.651C43.8241 176.015 44.2718 173.329 45.3164 170.742C45.8139 169.449 46.4605 168.156 47.2067 166.962C47.9529 165.768 48.8482 164.574 49.8431 163.48C53.7728 159.102 59.3939 155.819 65.7113 154.625C68.8451 153.979 72.178 153.829 75.5108 154.028C78.8436 154.277 82.2262 154.973 85.5092 156.018L85.4595 156.167C85.2605 154.824 85.4097 153.431 85.9072 152.138C86.3549 150.845 87.1508 149.651 88.0959 148.606C89.0908 147.611 90.2846 146.766 91.6277 146.219C92.9707 145.671 94.4631 145.472 95.9056 145.671L95.8061 145.87C93.7169 144.428 92.8215 141.244 94.0651 138.807C95.3087 136.369 98.6415 135.176 101.228 136.32L101.029 136.419C100.93 123.337 100.83 109.607 100.681 95.4305V95.2812H100.83C104.71 95.2812 108.839 95.2812 113.017 95.2812C117.096 95.2812 121.175 95.2812 125.205 95.2812H125.354V95.4305C125.254 109.558 125.105 123.287 125.006 136.419L124.807 136.32C127.344 135.176 130.577 136.32 131.92 138.707C133.213 141.095 132.417 144.328 130.229 145.87L130.129 145.671C131.572 145.423 133.064 145.671 134.357 146.169C135.7 146.666 136.894 147.512 137.889 148.507C138.884 149.502 139.63 150.696 140.128 152.039C140.625 153.332 140.774 154.775 140.575 156.118L140.426 155.968C143.709 154.924 147.092 154.227 150.425 153.979C153.757 153.73 157.09 153.929 160.224 154.576C166.541 155.819 172.162 159.052 176.092 163.43C177.087 164.524 177.933 165.668 178.729 166.912C179.525 168.106 180.121 169.399 180.619 170.692C181.166 171.986 181.465 173.329 181.763 174.622C182.012 175.965 182.111 177.308 182.111 178.602C182.111 181.238 181.663 183.775 180.818 186.063C179.972 188.351 178.729 190.441 177.187 192.132L177.137 191.983C178.729 192.032 180.32 192.231 181.763 192.58C182.111 192.679 182.509 192.779 182.857 192.878C183.206 192.978 183.554 193.077 183.902 193.226C184.25 193.326 184.598 193.475 184.947 193.574C185.295 193.724 185.593 193.873 185.941 193.972C188.578 195.117 190.816 196.659 192.707 198.3C194.547 199.991 196.039 201.782 197.134 203.623C198.228 205.413 198.924 207.254 199.223 208.995C199.521 210.686 199.521 212.278 199.273 213.571C199.024 214.865 198.527 215.909 197.979 216.606C197.432 217.302 196.885 217.75 196.487 217.999C196.089 218.247 195.89 218.347 195.89 218.347C195.89 218.347 196.089 218.198 196.487 217.949C196.885 217.7 197.382 217.252 197.93 216.556C198.477 215.86 198.924 214.815 199.173 213.522C199.422 212.228 199.422 210.686 199.123 208.995C198.825 207.304 198.129 205.463 196.984 203.672C195.89 201.882 194.398 200.041 192.557 198.4C190.717 196.758 188.478 195.216 185.842 194.072C185.494 193.923 185.195 193.773 184.847 193.674C184.499 193.574 184.151 193.425 183.802 193.326C183.454 193.177 183.106 193.077 182.758 192.978C182.41 192.878 182.061 192.779 181.663 192.679C180.171 192.331 178.629 192.132 177.037 192.082H176.888L176.988 191.933C178.48 190.242 179.723 188.202 180.569 185.914C181.415 183.626 181.862 181.089 181.862 178.502C181.862 177.209 181.713 175.866 181.514 174.572C181.266 173.279 180.917 171.936 180.37 170.643C179.873 169.349 179.226 168.106 178.48 166.912C177.734 165.718 176.888 164.574 175.893 163.48C171.963 159.152 166.442 155.919 160.125 154.725C156.991 154.078 153.708 153.929 150.375 154.178C147.042 154.426 143.709 155.123 140.426 156.167L140.227 156.217L140.277 156.018C140.476 154.675 140.327 153.332 139.829 152.039C139.381 150.745 138.586 149.601 137.64 148.606C136.695 147.611 135.501 146.816 134.208 146.318C132.915 145.821 131.472 145.622 130.079 145.821L129.532 145.92L129.98 145.622C132.069 144.179 132.815 141.045 131.621 138.757C130.378 136.469 127.244 135.424 124.856 136.469L124.657 136.568V136.369C124.757 123.237 124.856 109.508 124.956 95.3807L125.105 95.53C121.076 95.53 116.997 95.53 112.918 95.53C108.739 95.53 104.611 95.53 100.731 95.53L100.88 95.3807C100.979 109.558 101.079 123.337 101.178 136.369V136.568L100.979 136.469C98.4923 135.375 95.3087 136.519 94.1646 138.807C92.9707 141.145 93.8164 144.179 95.8061 145.572L96.2538 145.87L95.7066 145.771C94.3138 145.572 92.8215 145.771 91.5282 146.268C90.2349 146.766 89.041 147.611 88.0959 148.606C86.1559 150.596 85.1113 153.332 85.5092 155.919L85.559 156.118L85.36 156.068C82.0769 155.023 78.7441 154.327 75.4113 154.078C72.0785 153.829 68.7954 153.979 65.6615 154.625C59.3939 155.869 53.8226 159.102 49.8928 163.43C48.898 164.524 48.0523 165.668 47.3062 166.862C46.56 168.056 45.9134 169.3 45.4159 170.593C44.4211 173.18 43.9734 175.866 43.9236 178.452C43.9236 181.039 44.3713 183.576 45.217 185.864C46.0626 188.152 47.3062 190.192 48.7985 191.883L48.898 192.032H48.7487C47.157 192.082 45.6149 192.281 44.1226 192.629C43.7744 192.729 43.3764 192.828 43.0282 192.928C42.68 193.027 42.3318 193.127 41.9836 193.276C41.6354 193.376 41.2872 193.525 40.939 193.624C40.5908 193.773 40.2923 193.923 39.9441 194.022C37.3077 195.117 35.0693 196.659 33.2288 198.35C31.3883 199.991 29.8959 201.832 28.8016 203.623C27.7072 205.413 26.9611 207.254 26.6626 208.945C26.3642 210.637 26.3144 212.179 26.6129 213.472C26.8616 214.765 27.359 215.81 27.8565 216.506C28.4036 217.203 28.9508 217.65 29.299 217.899C29.8462 218.347 30.0452 218.446 30.0452 218.446Z" fill="#003744"/>
<path d="M81.4303 39.2696L112.122 3.55371L141.62 39.2696H130.129V97.569H94.3636V39.3691L81.4303 39.2696Z" fill="#00E8E8"/>
<path d="M227.229 97.3701L205.491 104.036L210.763 107.369L225.388 116.472L230.064 119.407L227.229 97.3701Z" fill="#00E8E8"/>
<path d="M129.134 210.437L116.052 203.92L147.092 155.918L159.727 168.005L184.399 128.808L196.736 137.811L218.822 101.747L226.283 105.229L199.074 153.978L185.295 141.144L161.766 185.018L149.38 170.542L129.134 210.437Z" fill="#00E8E8"/>
<g opacity="0.3">
<path d="M141.968 198.101C138.983 196.111 135.153 195.913 131.621 196.609C130.477 196.858 129.184 197.156 128.189 196.509C127.194 195.913 126.846 194.669 126.448 193.525C124.409 187.904 118.788 184.024 112.868 183.029C106.949 182.034 102.223 182.532 96.8507 185.218C93.6671 186.809 90.3343 189.048 87.5487 193.226C86.7528 194.42 85.3102 196.858 85.3102 196.858C84.2158 197.654 82.823 197.703 81.5297 197.902C76.1077 198.798 71.4318 203.175 70.2379 208.547L145.4 207.304C146.694 204.12 144.953 200.041 141.968 198.101Z" fill="#003744"/>
</g>
<path d="M66.0098 213.522C68.3477 205.214 77.6 199.494 86.1062 201.135C87.8969 192.082 96.5523 184.919 105.805 184.82C115.007 184.77 123.812 191.784 125.752 200.837C130.875 199.643 136.347 198.798 141.222 200.688C146.097 202.628 149.828 208.299 147.788 213.124" fill="#EBEBEB"/>
<path d="M147.788 213.123C147.788 213.123 147.788 213.074 147.838 212.974C147.888 212.875 147.937 212.725 147.987 212.576C148.037 212.377 148.136 212.178 148.186 211.88C148.236 211.581 148.335 211.283 148.335 210.935C148.485 209.492 148.136 207.204 146.545 204.965C145.749 203.871 144.704 202.777 143.311 201.832C141.968 200.886 140.277 200.289 138.387 199.941C136.546 199.593 134.507 199.543 132.417 199.742C130.328 199.941 128.139 200.339 125.851 200.886L125.752 200.936L125.702 200.837C124.906 197.255 122.966 193.624 119.932 190.788C116.947 187.953 112.968 185.764 108.54 185.118C105.805 184.72 103.019 184.968 100.482 185.764C97.9451 186.56 95.6072 187.854 93.6174 189.396C91.6277 190.987 89.9862 192.828 88.7426 194.818C87.499 196.807 86.6533 198.996 86.2554 201.085V201.185H86.1559C84.2656 200.837 82.3754 200.837 80.6344 201.135C79.739 201.235 78.9431 201.483 78.1472 201.682C77.7492 201.832 77.3513 201.931 77.0031 202.08C76.6051 202.18 76.2569 202.379 75.9087 202.528C75.1626 202.826 74.5657 203.224 73.919 203.573C73.6205 203.772 73.3221 203.971 73.0236 204.169C72.8744 204.269 72.7251 204.368 72.5759 204.468C72.4267 204.567 72.3272 204.667 72.178 204.766C71.9292 204.965 71.6805 205.164 71.3821 205.413C71.1333 205.612 70.9344 205.861 70.6857 206.06C70.4867 206.259 70.238 206.458 70.039 206.706C69.84 206.905 69.641 207.154 69.4918 207.353C68.0492 209.044 67.2036 210.636 66.7559 211.73C66.5072 212.278 66.4077 212.725 66.2585 213.024C66.159 213.322 66.1093 213.472 66.1093 213.472C66.1093 213.472 66.2585 212.875 66.7062 211.73C67.1539 210.636 67.9498 208.995 69.4421 207.303C69.641 207.104 69.84 206.856 69.9892 206.657C70.1882 206.458 70.4369 206.209 70.6359 206.01C70.8846 205.811 71.0836 205.562 71.3323 205.363C71.581 205.164 71.8298 204.965 72.1282 204.717C72.2774 204.617 72.3769 204.518 72.5262 204.368C72.6754 204.269 72.8246 204.169 72.9739 204.07C73.2723 203.871 73.5708 203.672 73.8692 203.473C74.5159 203.125 75.1626 202.727 75.9087 202.379C76.2569 202.229 76.6051 202.03 77.0031 201.881C77.401 201.732 77.799 201.583 78.1969 201.483C78.9928 201.284 79.8385 201.036 80.7339 200.886C82.4749 200.588 84.3651 200.588 86.3051 200.936L86.1559 201.036C86.6036 198.897 87.3995 196.708 88.6928 194.668C89.9364 192.629 91.6277 190.739 93.6174 189.147C95.6072 187.555 97.9451 186.262 100.532 185.466C103.118 184.62 105.954 184.421 108.739 184.819C113.216 185.466 117.246 187.655 120.23 190.54C123.265 193.425 125.205 197.106 126.05 200.737L125.901 200.638C128.189 200.14 130.378 199.693 132.467 199.494C134.606 199.295 136.646 199.344 138.536 199.693C140.426 200.041 142.117 200.687 143.51 201.633C144.903 202.578 145.948 203.672 146.744 204.816C148.335 207.104 148.684 209.393 148.534 210.835C148.534 211.183 148.435 211.532 148.385 211.78C148.335 212.079 148.236 212.278 148.186 212.477C148.136 212.626 148.087 212.775 148.037 212.875C147.838 213.074 147.788 213.123 147.788 213.123Z" fill="#003744"/>
<path d="M101.029 85.4822C101.328 105.479 85.4098 121.994 65.5621 122.292C45.6647 122.591 29.2493 106.623 28.9011 86.6263C28.6026 66.6294 44.5206 50.1146 64.3682 49.8161C84.2657 49.4679 100.681 65.4853 101.029 85.4822ZM47.7042 86.3279C47.8534 95.8786 55.7129 103.539 65.2139 103.39C74.7149 103.241 82.3257 95.3315 82.1764 85.7807C82.0272 76.2299 74.1677 68.5694 64.6667 68.7187C55.1657 68.8679 47.5549 76.7771 47.7042 86.3279Z" fill="#E0E0E0"/>
<path d="M101.029 85.4822C101.328 105.479 85.4097 121.994 65.5621 122.292L65.2636 103.39C74.7646 103.241 82.3754 95.3315 82.2262 85.7807C82.0769 76.2299 74.2174 68.5694 64.7164 68.7187L64.418 49.8161C84.2656 49.4679 100.681 65.4853 101.029 85.4822Z" fill="#455A64"/>
<path d="M65.2636 122.541L64.9651 103.141H65.2139C74.5656 102.991 82.0769 95.1817 81.9277 85.7802C81.8779 81.2038 80.0374 76.9756 76.7544 73.792C73.4713 70.6084 69.1933 68.9172 64.6667 68.9669H64.418L64.1195 49.5669H64.3682C74.0682 49.4177 83.221 53.049 90.1851 59.8638C97.1492 66.629 101.079 75.732 101.228 85.4818C101.527 105.578 85.5092 122.242 65.5123 122.541H65.2636ZM65.4626 103.588L65.761 121.994C85.4097 121.546 101.079 105.18 100.78 85.432C100.631 75.8315 96.7513 66.8777 89.8867 60.1623C83.0718 53.5464 74.118 49.9151 64.6667 50.0146L64.9651 68.4197C69.5416 68.4197 73.8692 70.1608 77.1523 73.3941C80.5349 76.6772 82.4251 81.0546 82.4749 85.7305C82.5744 95.3807 75.0133 103.34 65.4626 103.588Z" fill="#455A64"/>
<path d="M68.7456 125.177C45.4657 125.575 26.9113 107.518 26.5631 84.1382L48.5995 83.79C48.7985 94.9823 57.3046 101.996 68.3974 101.847L68.7456 125.177Z" fill="#00E8E8"/>
<path d="M39.198 84.5365C39.3472 84.636 37.258 87.9191 34.5718 91.8488C31.8857 95.7786 29.5477 98.8627 29.3985 98.8129C29.2493 98.7134 31.3385 95.4304 34.0247 91.5006C36.7606 87.5211 39.0488 84.437 39.198 84.5365Z" fill="#003744"/>
<path d="M48.7985 86.3776C48.9477 86.4771 45.8636 91.2027 41.9339 96.9232C38.0042 102.644 34.6713 107.17 34.5718 107.121C34.4226 107.021 37.5067 102.296 41.4365 96.575C45.3165 90.8048 48.6493 86.2781 48.7985 86.3776Z" fill="#003744"/>
<path d="M53.4246 96.1268C53.5738 96.2262 50.7882 100.504 47.2564 105.678C43.6748 110.851 40.6902 114.93 40.541 114.88C40.3918 114.781 43.1774 110.503 46.7092 105.329C50.2907 100.156 53.2754 96.0273 53.4246 96.1268Z" fill="#003744"/>
<path d="M61.5329 101.549C61.6821 101.648 58.8965 105.926 55.3647 111.099C51.7831 116.273 48.7985 120.352 48.6493 120.302C48.5001 120.202 51.2857 115.925 54.8175 110.751C58.399 105.578 61.3836 101.449 61.5329 101.549Z" fill="#003744"/>
<path d="M68.4969 108.414C68.6461 108.513 66.3579 112.045 63.423 116.273C60.4882 120.551 58.001 123.884 57.8518 123.784C57.7025 123.685 59.9907 120.153 62.9256 115.925C65.8605 111.697 68.3476 108.364 68.4969 108.414Z" fill="#003744"/>
<path d="M183.355 16.4874C183.355 16.4874 185.543 11.4633 185.643 10.7172C185.742 9.92126 185.543 8.18024 184.947 7.73255C184.399 7.23511 183.653 7.13562 183.156 7.48383C183.156 7.48383 183.056 6.38947 181.962 6.1905C180.868 5.99152 180.868 7.03614 180.868 7.03614C180.868 7.03614 180.917 6.28998 180.121 6.09101C179.723 5.99152 179.276 6.24024 179.276 6.24024C179.276 6.24024 178.231 5.29511 177.485 5.89204C176.789 6.48896 177.585 15.592 177.585 15.592L183.355 16.4874Z" fill="#FFBF9D"/>
<path d="M177.485 14.3981C177.485 14.3981 175.545 11.0652 175.545 10.1699C175.545 9.27447 176.639 7.18524 177.236 6.93652C177.833 6.6878 180.221 6.14062 180.221 6.14062C180.221 6.14062 181.216 7.03601 179.773 7.98113L178.082 8.92626C178.082 8.92626 180.768 9.82165 180.669 12.5575" fill="#FFBF9D"/>
<path d="M180.669 12.5076C180.619 12.5076 180.669 12.0101 180.42 11.264C180.271 10.866 180.022 10.4681 179.624 10.0204C179.226 9.62243 178.679 9.22448 178.032 8.97576L177.833 8.87628L178.032 8.77679C178.579 8.47833 179.127 8.13012 179.723 7.78192C180.022 7.58294 180.271 7.38397 180.37 7.08551C180.47 6.78705 180.37 6.43884 180.121 6.19012L180.221 6.23987C179.823 6.33935 179.375 6.43884 178.928 6.53833C178.579 6.63782 178.231 6.68756 177.933 6.78705C177.783 6.83679 177.585 6.88653 177.435 6.93628C177.336 6.98602 177.286 6.98602 177.236 7.03576C177.187 7.08551 177.137 7.08551 177.087 7.13525C176.639 7.58294 176.341 8.13012 176.092 8.6773C175.943 8.92602 175.843 9.22448 175.794 9.4732C175.694 9.72191 175.645 10.0204 175.694 10.2691C175.794 10.7665 175.993 11.264 176.192 11.6619C176.59 12.5076 176.938 13.1542 177.137 13.6019C177.386 14.0496 177.485 14.2983 177.485 14.3481C177.485 14.3481 177.286 14.0993 177.037 13.6517C176.789 13.204 176.391 12.5573 175.993 11.7117C175.794 11.264 175.595 10.8163 175.446 10.2691C175.396 9.97063 175.446 9.67217 175.545 9.37371C175.645 9.07525 175.744 8.82653 175.843 8.52807C176.092 7.98089 176.391 7.38397 176.888 6.88653C176.938 6.83679 177.037 6.78705 177.137 6.7373C177.236 6.68756 177.286 6.68756 177.386 6.63782C177.535 6.58807 177.734 6.53833 177.883 6.48858C178.231 6.3891 178.579 6.28961 178.878 6.23987C179.326 6.14038 179.773 6.04089 180.171 5.94141H180.221L180.271 5.99115C180.569 6.28961 180.718 6.7373 180.569 7.13525C180.42 7.5332 180.121 7.78192 179.823 7.98089C179.226 8.3291 178.629 8.62756 178.132 8.92602V8.72704C178.828 8.97576 179.375 9.42345 179.773 9.8214C180.171 10.2691 180.42 10.7168 180.569 11.1147C180.619 11.3137 180.669 11.5127 180.669 11.6619C180.669 11.8111 180.718 11.9604 180.718 12.0599C180.718 12.4081 180.718 12.5076 180.669 12.5076Z" fill="#FF9A6C"/>
<path d="M180.669 6.98633C180.42 7.93146 180.32 8.97607 180.37 9.97094C180.42 10.3191 180.47 10.6674 180.669 10.9161C180.917 11.1648 181.266 11.2145 181.564 11.1648C181.863 11.115 182.161 10.9161 182.41 10.6674" fill="#FFBF9D"/>
<path d="M182.459 10.7171C182.459 10.7171 182.31 11.0653 181.763 11.2643C181.514 11.3638 181.116 11.3638 180.768 11.115C180.42 10.8663 180.32 10.3689 180.32 9.97094C180.171 8.27966 180.669 6.98633 180.718 6.98633C180.818 6.98633 180.42 8.3294 180.569 9.9212C180.569 10.3191 180.669 10.7171 180.917 10.8663C181.166 11.0653 181.465 11.0653 181.713 11.0156C182.161 10.9658 182.41 10.6674 182.459 10.7171Z" fill="#FF9A6C"/>
<path d="M178.53 8.82715C178.38 9.27484 178.43 9.47381 178.43 9.92151C178.48 10.3692 178.729 10.8666 179.176 10.9661C179.574 11.0656 180.022 10.5682 180.271 10.021" fill="#FFBF9D"/>
<path d="M180.32 10.0209C180.37 10.0209 180.32 10.2696 180.072 10.5681C179.972 10.7173 179.823 10.9163 179.574 11.0158C179.475 11.0655 179.276 11.1153 179.127 11.0158C178.977 10.9661 178.828 10.8666 178.729 10.7671C178.53 10.5184 178.38 10.2696 178.38 10.0209C178.38 9.77221 178.38 9.57324 178.38 9.37427C178.43 8.97632 178.579 8.77734 178.579 8.77734C178.629 8.77734 178.53 9.02606 178.579 9.37427C178.629 9.57324 178.629 9.77221 178.629 9.97119C178.679 10.1702 178.778 10.4189 178.928 10.6179C179.027 10.7173 179.127 10.7671 179.226 10.8168C179.326 10.8666 179.425 10.8666 179.524 10.8168C179.723 10.7173 179.873 10.5681 179.972 10.4686C180.171 10.2199 180.271 9.97119 180.32 10.0209Z" fill="#FF9A6C"/>
<path d="M183.305 7.4834C182.758 8.08032 182.36 8.77673 182.161 9.57263C182.061 9.97058 182.012 10.468 182.31 10.7665C182.658 11.0649 183.156 10.9654 183.554 10.7167C184.101 10.3685 184.549 9.7716 184.648 9.12494" fill="#FFBF9D"/>
<path d="M184.648 9.12506C184.698 9.12506 184.698 9.57275 184.35 10.1199C184.151 10.4184 183.902 10.7169 183.504 10.9158C183.305 11.0153 183.056 11.1148 182.808 11.1148C182.559 11.1148 182.26 11.0153 182.111 10.7666C181.962 10.5179 181.962 10.2194 181.962 10.0204C182.012 9.77172 182.061 9.57275 182.111 9.37378C182.26 8.97583 182.459 8.62762 182.609 8.37891C182.957 7.83173 183.305 7.58301 183.305 7.58301C183.355 7.63275 183.056 7.88147 182.758 8.42865C182.609 8.67737 182.459 9.02557 182.31 9.42352C182.26 9.62249 182.211 9.82147 182.161 10.0204C182.161 10.2194 182.161 10.4681 182.26 10.6174C182.459 10.9656 183.007 10.9158 183.305 10.7169C183.653 10.5179 183.902 10.2692 184.101 10.0204C184.549 9.47326 184.648 9.07532 184.648 9.12506Z" fill="#FF9A6C"/>
<path d="M156.344 48.5219C156.344 48.5219 159.03 45.6367 160.125 44.9403C161.169 44.2937 168.183 35.9367 168.929 33.748C169.675 31.5593 176.54 13.9004 176.391 14.0993C176.291 14.2983 185.146 15.9896 185.146 15.9896C185.146 15.9896 178.53 36.3347 177.734 38.6726C176.291 42.9008 169.078 51.4567 164.999 56.5803C163.258 58.769 160.821 65.7331 160.821 65.7331L156.344 48.5219Z" fill="#003744"/>
<path d="M162.761 59.4651C162.711 59.4651 162.612 58.8681 162.512 57.8733C162.413 56.8784 162.313 55.4856 162.263 53.9933C162.214 52.4512 162.313 51.1081 162.363 50.1133C162.462 49.1184 162.512 48.5215 162.562 48.5215C162.612 48.5215 162.562 49.1184 162.562 50.1133C162.512 51.1081 162.512 52.501 162.512 53.9933C162.562 55.4856 162.612 56.8784 162.661 57.8733C162.761 58.8681 162.811 59.4651 162.761 59.4651Z" fill="#455A64"/>
<path d="M118.29 163.33L114.51 171.04L114.012 172.931C114.012 172.931 116.549 184.421 114.957 185.565L103.666 167.359L106.551 165.519L110.182 157.809L118.29 163.33Z" fill="#455A64"/>
<path d="M103.715 167.31L105.158 166.514L115.455 184.272C115.455 184.272 115.604 185.267 115.007 185.516L103.715 167.31Z" fill="#003744"/>
<path d="M114.311 173.179C114.211 173.229 113.913 172.831 113.366 172.532C112.818 172.234 112.321 172.234 112.321 172.134C112.271 172.035 112.868 171.886 113.515 172.184C114.161 172.532 114.41 173.129 114.311 173.179Z" fill="#003744"/>
<path d="M114.758 175.517C114.709 175.567 114.311 175.268 113.763 175.218C113.216 175.119 112.769 175.268 112.719 175.218C112.669 175.119 113.117 174.771 113.763 174.87C114.46 174.97 114.808 175.467 114.758 175.517Z" fill="#003744"/>
<path d="M113.266 177.955C113.216 177.905 113.565 177.507 114.161 177.458C114.758 177.408 115.206 177.706 115.156 177.806C115.107 177.905 114.709 177.806 114.211 177.856C113.664 177.856 113.316 178.055 113.266 177.955Z" fill="#003744"/>
<path d="M156.941 106.473C156.593 107.369 137.541 136.469 133.611 139.702C129.731 142.935 116.4 169.498 116.4 169.498C116.4 169.498 105.506 164.226 105.257 164.773C105.009 165.37 112.918 146.019 117.594 138.06C122.27 130.102 124.508 127.067 124.508 127.067L133.86 102.146C133.86 102.146 134.059 93.938 135.253 90.7544C136.447 87.5708 139.978 84.7852 139.978 84.7852L156.941 106.473Z" fill="#003744"/>
<path d="M139.829 141.692L129.731 142.438C129.731 142.438 127.144 153.53 125.254 153.879L123.016 133.235L138.735 131.444L139.829 141.692Z" fill="#455A64"/>
<path d="M129.831 135.921C129.681 135.523 129.234 135.324 128.836 135.424C128.488 135.573 128.239 136.021 128.388 136.419C128.537 136.817 129.084 137.115 129.433 136.916C129.781 136.717 130.03 136.17 129.781 135.822" fill="#E0E0E0"/>
<path d="M123.016 133.185L124.608 133.086L126.15 152.934C126.15 152.934 125.851 153.879 125.254 153.879L123.016 133.185Z" fill="#003744"/>
<path d="M129.831 142.736C129.731 142.736 129.632 142.239 129.283 141.791C128.935 141.343 128.488 141.095 128.537 140.995C128.537 140.896 129.134 140.995 129.582 141.542C129.98 142.139 129.93 142.736 129.831 142.736Z" fill="#003744"/>
<path d="M129.234 144.975C129.134 145.025 128.935 144.577 128.488 144.278C128.04 143.98 127.592 143.93 127.592 143.831C127.542 143.731 128.139 143.582 128.637 143.98C129.184 144.378 129.283 144.975 129.234 144.975Z" fill="#003744"/>
<path d="M126.896 146.517C126.846 146.417 127.343 146.218 127.891 146.417C128.438 146.616 128.687 147.064 128.637 147.114C128.587 147.163 128.239 146.915 127.791 146.765C127.294 146.566 126.896 146.616 126.896 146.517Z" fill="#003744"/>
<path d="M132.119 142.289C132.019 142.239 132.119 141.791 132.019 141.194C131.92 140.647 131.721 140.199 131.771 140.15C131.82 140.1 132.218 140.498 132.318 141.145C132.467 141.841 132.169 142.338 132.119 142.289Z" fill="#003744"/>
<path d="M130.925 98.8625C130.925 98.8625 130.875 108.562 135.302 111.846C139.73 115.129 155.001 127.465 155.001 127.465L130.626 131.643L132.467 142.935C132.467 142.935 165.397 139.602 169.426 138.259C173.456 136.916 176.341 130.101 173.207 125.376C171.615 122.988 155.25 99.7081 155.25 99.7081L154.752 93.4404L134.059 94.7338L130.925 98.8625Z" fill="#003744"/>
<path d="M132.417 142.935C132.417 142.935 132.417 142.885 132.368 142.736C132.318 142.587 132.318 142.388 132.268 142.139C132.169 141.592 132.069 140.846 131.87 139.901C131.522 137.911 131.074 135.125 130.477 131.643V131.544H130.577C136.447 130.549 144.256 129.206 152.862 127.713C153.608 127.614 154.304 127.465 155.001 127.365L154.951 127.614C151.519 124.779 148.236 122.092 145.251 119.705C143.759 118.511 142.316 117.367 141.023 116.322C139.68 115.278 138.436 114.332 137.342 113.338C135.203 111.398 133.81 109.507 133.014 108.114C132.616 107.418 132.318 106.871 132.119 106.473C132.019 106.274 131.97 106.125 131.92 106.025C131.87 105.926 131.87 105.876 131.87 105.876C131.87 105.876 131.92 105.926 131.97 106.025C132.019 106.125 132.069 106.274 132.169 106.473C132.368 106.821 132.666 107.368 133.064 108.065C133.91 109.408 135.352 111.248 137.441 113.188C138.486 114.183 139.779 115.079 141.122 116.123C142.465 117.168 143.908 118.312 145.4 119.506C148.385 121.893 151.668 124.58 155.1 127.415L155.299 127.614L155.001 127.664C154.304 127.763 153.608 127.912 152.862 128.012C144.256 129.454 136.447 130.797 130.577 131.792L130.676 131.693C131.223 135.175 131.671 138.01 131.97 139.95C132.119 140.895 132.218 141.691 132.318 142.189C132.368 142.437 132.368 142.636 132.417 142.786C132.417 142.835 132.467 142.935 132.417 142.935Z" fill="#455A64"/>
<path d="M161.617 128.162C161.617 128.261 160.174 127.813 158.334 127.614C156.543 127.415 155.051 127.515 155.051 127.465C155.051 127.415 155.399 127.366 155.996 127.316C156.593 127.266 157.438 127.266 158.334 127.366C159.229 127.465 160.075 127.664 160.672 127.813C161.268 127.963 161.617 128.112 161.617 128.162Z" fill="#455A64"/>
<path d="M146.544 17.3824C146.843 16.487 147.738 15.8403 148.634 15.8403C149.529 14.7957 151.22 14.547 152.414 15.2434C153.111 14.5967 154.155 14.3978 155.1 14.6962C155.996 14.9947 156.742 15.7906 156.941 16.7357C157.836 16.4373 158.931 16.7357 159.527 17.5316C160.124 18.2778 160.174 19.4219 159.627 20.2675C160.721 20.4167 161.567 21.4614 161.567 22.5557C161.517 23.6501 160.572 24.6449 159.527 24.6947L147.39 19.8696C146.644 19.3721 146.246 18.2778 146.544 17.3824Z" fill="#003744"/>
<path d="M159.826 24.894C158.582 20.1187 153.857 17.134 149.032 18.0294L148.534 18.1289C143.411 19.3725 142.664 24.4463 144.057 29.5699L148.037 48.7709L157.538 54.392L158.682 50.2135V43.3986C158.682 43.3986 163.507 41.7074 162.661 36.733C162.263 34.1961 161.02 29.3212 159.826 24.894Z" fill="#FFBF9D"/>
<path d="M158.732 43.2989C158.732 43.2989 155.598 44.045 151.867 42.5527C151.867 42.5527 153.807 46.1343 158.682 44.7912L158.732 43.2989Z" fill="#FF9A6C"/>
<path d="M159.229 29.5693C159.328 29.9673 159.08 30.3155 158.682 30.415C158.284 30.5145 157.936 30.2658 157.836 29.9175C157.737 29.5196 157.985 29.1714 158.383 29.0719C158.732 28.9724 159.129 29.2211 159.229 29.5693Z" fill="#003744"/>
<path d="M159.279 27.7787C159.229 27.8782 158.582 27.5797 157.836 27.729C157.09 27.8782 156.593 28.3756 156.493 28.2761C156.443 28.2264 156.493 28.0772 156.692 27.8284C156.891 27.6295 157.289 27.3807 157.737 27.2813C158.234 27.1818 158.632 27.2813 158.93 27.4305C159.229 27.53 159.328 27.7289 159.279 27.7787Z" fill="#003744"/>
<path d="M152.563 31.0615C152.663 31.4595 152.414 31.8077 152.016 31.9072C151.618 32.0067 151.27 31.7579 151.17 31.4097C151.071 31.0118 151.32 30.6636 151.718 30.5641C152.066 30.4646 152.464 30.7133 152.563 31.0615Z" fill="#003744"/>
<path d="M151.966 28.973C151.917 29.0725 151.27 28.7741 150.524 28.9233C149.778 29.0725 149.28 29.57 149.181 29.4705C149.131 29.4207 149.181 29.2715 149.38 29.0228C149.579 28.8238 149.977 28.5751 150.424 28.4756C150.922 28.3761 151.32 28.4756 151.618 28.6248C151.917 28.7741 152.016 28.9233 151.966 28.973Z" fill="#003744"/>
<path d="M155.548 34.1955C155.548 34.1458 155.996 33.9965 156.742 33.7478C156.941 33.6981 157.09 33.5986 157.14 33.4991C157.14 33.3499 157.04 33.1509 156.891 32.9519C156.642 32.5042 156.344 32.0565 156.045 31.5591C154.852 29.5694 153.956 27.9278 154.056 27.8781C154.155 27.8283 155.15 29.4201 156.344 31.3601C156.642 31.8576 156.891 32.3053 157.189 32.753C157.289 32.9519 157.488 33.2006 157.438 33.4991C157.388 33.6483 157.289 33.7976 157.189 33.8473C157.09 33.8971 156.941 33.9468 156.891 33.9468C155.996 34.1458 155.548 34.2453 155.548 34.1955Z" fill="#003744"/>
<path d="M153.359 35.1408C153.459 35.091 153.658 35.9367 154.454 36.3844C155.249 36.8321 156.145 36.5833 156.145 36.7326C156.145 36.7823 155.996 36.9315 155.598 37.031C155.249 37.1305 154.702 37.0808 154.205 36.7823C153.707 36.4839 153.409 36.0362 153.359 35.688C153.26 35.3895 153.309 35.1408 153.359 35.1408Z" fill="#003744"/>
<path d="M151.618 26.7836C151.569 26.9825 150.872 26.9328 150.076 27.082C149.28 27.2313 148.634 27.5297 148.534 27.3307C148.484 27.2313 148.584 27.0323 148.833 26.8333C149.081 26.6343 149.479 26.3856 149.977 26.2861C150.474 26.1866 150.922 26.2364 151.22 26.3856C151.469 26.5349 151.618 26.6841 151.618 26.7836Z" fill="#003744"/>
<path d="M158.731 25.6895C158.632 25.8885 158.085 25.8387 157.438 26.0377C156.792 26.1869 156.344 26.4356 156.145 26.3361C156.045 26.2864 156.095 26.0874 156.294 25.8387C156.493 25.6397 156.841 25.391 157.239 25.2915C157.687 25.192 158.085 25.2418 158.334 25.3413C158.682 25.4408 158.781 25.59 158.731 25.6895Z" fill="#003744"/>
<path d="M158.931 22.6552C158.931 22.6552 157.04 19.77 155.399 19.3223C153.409 18.7752 153.011 20.9141 151.171 20.7649C149.33 20.6157 147.49 20.0685 145.947 21.71C144.256 23.5505 145.351 24.3962 145.649 26.6346C146.793 35.688 145.649 38.5233 144.405 34.3946C144.256 33.9469 142.913 33.7977 142.366 31.8577C141.67 29.3705 141.023 26.2864 141.222 24.3962C141.421 22.8044 142.067 21.5608 143.411 20.168C145.5 17.8798 148.833 17.2331 151.171 17.0839C153.558 16.8849 158.433 18.7254 158.931 22.6552Z" fill="#003744"/>
<path d="M145.351 34.0965C145.201 33.3503 144.405 32.8529 143.659 33.0519C142.764 33.3006 141.819 34.0467 142.217 35.937C142.963 39.3195 146.196 37.9267 146.146 37.8272C146.196 37.7277 145.699 35.4893 145.351 34.0965Z" fill="#FFBF9D"/>
<path d="M145.201 36.6826C145.201 36.6826 145.152 36.7324 145.052 36.7821C144.953 36.8319 144.803 36.9313 144.604 36.8816C144.206 36.8319 143.808 36.3344 143.659 35.7375C143.56 35.439 143.609 35.1406 143.659 34.8421C143.709 34.5934 143.808 34.3447 144.007 34.2949C144.157 34.1955 144.306 34.2949 144.405 34.3944C144.455 34.4939 144.455 34.5437 144.505 34.5437C144.505 34.5437 144.555 34.4939 144.505 34.3447C144.455 34.2949 144.405 34.1954 144.306 34.1457C144.206 34.096 144.107 34.096 143.958 34.1457C143.709 34.1954 143.51 34.4939 143.46 34.7924C143.361 35.0908 143.361 35.439 143.46 35.7872C143.609 36.4837 144.107 37.0308 144.654 37.0806C144.903 37.0806 145.102 36.9811 145.152 36.8816C145.201 36.7821 145.201 36.6826 145.201 36.6826Z" fill="#FF9A6C"/>
<path d="M143.61 27.5801C144.107 27.7791 144.604 28.0278 145.152 27.9781C145.699 27.9283 146.246 27.5304 146.246 26.9832C146.246 26.7345 146.146 26.4858 146.246 26.237C146.395 25.9883 146.743 25.9883 147.042 25.9883C148.037 25.9386 148.932 25.0432 148.982 23.9986C149.28 24.3468 149.877 24.1975 150.225 23.8991C150.574 23.6006 150.723 23.1529 150.972 22.755C151.22 22.357 151.568 21.9591 152.016 21.9591C152.265 21.9591 152.514 22.0586 152.762 22.0088C153.21 21.9093 153.31 21.3124 153.31 20.8647C153.31 20.417 153.26 19.8699 153.608 19.5714C153.906 19.2729 154.404 19.3227 154.802 19.3227C155.2 19.3227 155.747 19.1237 155.747 18.676C155.747 18.477 155.647 18.2283 155.498 18.0791C154.802 17.3329 153.608 17.1837 152.762 17.7309C152.215 16.6863 151.021 15.9899 149.827 16.0396C148.634 16.1391 147.539 16.9847 147.191 18.1288C146.345 17.5817 145.251 17.5319 144.356 17.9299C143.46 18.3278 142.764 19.1735 142.565 20.1186C141.719 20.0688 140.824 20.5663 140.426 21.3124C140.028 22.1083 140.127 23.1032 140.675 23.7499C140.127 24.1976 139.73 24.894 139.829 25.6401C139.928 26.3365 140.774 26.9334 141.421 26.635C141.272 27.2319 141.62 27.9283 142.167 28.177C142.764 28.376 143.46 28.0775 143.709 27.4806" fill="#003744"/>
<path d="M141.172 26.6343C141.172 26.6343 141.172 26.9328 141.52 27.2313C141.67 27.3805 141.968 27.5297 142.266 27.5297C142.565 27.5297 142.963 27.3805 143.162 27.082H143.013C143.212 27.3307 143.51 27.6292 143.858 27.8282C144.057 27.9774 144.306 28.0769 144.555 28.1266C144.803 28.1764 145.052 28.1266 145.251 28.0769C145.649 27.9277 145.997 27.6292 146.146 27.3307C146.296 27.0323 146.296 26.7338 146.296 26.5846C146.296 26.3856 146.296 26.2861 146.296 26.2861C146.296 26.2861 146.246 26.3856 146.246 26.5846C146.196 26.7338 146.196 27.0323 146.047 27.281C145.798 27.8282 144.803 28.2759 144.008 27.6789C143.709 27.48 143.411 27.2313 143.212 26.9825L143.112 26.8831L143.062 26.9825C142.863 27.2313 142.565 27.3805 142.316 27.3805C142.018 27.3805 141.819 27.281 141.62 27.1815C141.272 26.9328 141.222 26.6343 141.172 26.6343Z" fill="#455A64"/>
<path d="M146.196 17.681C146.196 17.681 146.296 17.681 146.445 17.7308C146.594 17.7805 146.843 17.88 147.042 18.079L147.092 18.1287L147.141 18.079C147.39 17.5815 147.788 16.9349 148.534 16.4374C148.882 16.1887 149.33 15.9897 149.827 15.8903C150.325 15.7908 150.822 15.8405 151.32 16.0395C151.718 16.1887 152.066 16.4374 152.315 16.6862C152.563 16.9846 152.762 17.2831 152.862 17.6313L152.912 17.7308L153.011 17.681C153.508 17.4323 154.056 17.4323 154.454 17.5815C154.901 17.7308 155.2 18.0292 155.399 18.2779C155.797 18.8251 155.747 19.2728 155.797 19.2728C155.797 19.2728 155.797 19.1733 155.797 18.9744C155.747 18.7754 155.697 18.5267 155.498 18.2282C155.299 17.9297 155.001 17.6313 154.553 17.4323C154.105 17.2831 153.508 17.2333 152.961 17.482L153.111 17.5318C153.011 17.1338 152.812 16.7856 152.514 16.4872C152.215 16.1887 151.867 15.94 151.419 15.7908C150.872 15.5918 150.325 15.5421 149.778 15.6415C149.28 15.741 148.783 15.94 148.435 16.2385C147.688 16.7856 147.241 17.482 147.042 17.9795H147.141C146.893 17.7308 146.644 17.681 146.445 17.6313C146.296 17.6313 146.196 17.681 146.196 17.681Z" fill="#455A64"/>
<path d="M151.867 100.603C152.365 100.653 153.956 101.2 156.046 97.3203C158.135 93.4403 160.174 79.0645 160.174 79.0645L151.867 100.603Z" fill="#E0E0E0"/>
<path d="M160.92 73.5433L161.169 59.6151L158.383 48.97C158.383 48.97 156.443 45.8859 154.304 44.3439C151.768 42.5034 149.678 42.0557 149.678 42.0557L146.495 41.2598L146.146 43.8962L155.449 54.5413L160.92 73.5433Z" fill="#E0E0E0"/>
<path d="M146.146 42.2549C146.146 42.2549 153.807 42.9015 157.488 52.1538C159.478 57.1282 160.672 70.4595 160.92 72.499C161.169 74.5882 160.373 79.3636 158.98 85.7805C158.682 87.0241 157.687 90.3071 155.001 98.2661C152.066 106.772 149.778 113.09 149.778 113.09L125.304 103.638L137.491 82.2984C137.491 82.2984 136.844 75.7323 136.894 75.0856C137.143 70.2108 136.198 67.4251 137.79 58.0733C138.287 55.2877 139.232 52.5518 140.724 50.1144C142.267 47.5277 143.411 46.7318 145.997 44.7918L146.146 42.2549Z" fill="#003744"/>
<path d="M148.783 100.554L149.43 95.3809L137.74 90.6553L135.601 95.5799L148.783 100.554Z" fill="#003744"/>
<path d="M148.783 100.554C148.783 100.554 148.683 100.504 148.534 100.455C148.335 100.355 148.087 100.256 147.788 100.156C147.141 99.9074 146.196 99.5094 145.052 99.0617C142.714 98.1664 139.431 96.9228 135.7 95.4802L135.75 95.6294C136.297 94.2864 136.944 92.8935 137.541 91.451C137.64 91.2023 137.74 90.9535 137.889 90.7048L137.74 90.7546C142.316 92.5951 146.445 94.2366 149.43 95.4305L149.38 95.331C149.181 96.9228 149.081 98.1664 148.982 99.1115C148.932 99.5592 148.882 99.9074 148.882 100.156C148.783 100.405 148.783 100.554 148.783 100.554C148.783 100.554 148.783 100.455 148.833 100.206C148.882 99.9571 148.932 99.6089 148.982 99.211C149.131 98.2659 149.28 96.9725 149.529 95.3807V95.331L149.479 95.2812C146.495 94.0874 142.416 92.3961 137.839 90.5059H137.69L137.64 90.6053C137.541 90.8541 137.441 91.1028 137.292 91.3515C136.646 92.7941 136.049 94.1869 135.501 95.53L135.452 95.6792L135.601 95.7289C139.381 97.1217 142.714 98.3653 145.102 99.2607C146.246 99.6587 147.191 100.007 147.838 100.256C148.136 100.355 148.385 100.455 148.584 100.504C148.683 100.504 148.783 100.554 148.783 100.554Z" fill="#455A64"/>
<path d="M158.433 87.5215C158.433 87.5215 158.433 87.5712 158.383 87.6707C158.334 87.7702 158.334 87.9194 158.284 88.0687C158.184 88.4169 157.985 88.9143 157.786 89.561C157.339 90.8543 156.742 92.6948 155.996 94.983C154.454 99.5594 152.315 105.877 149.927 112.791C149.877 112.94 149.828 113.04 149.778 113.189L149.728 113.338L149.579 113.289C142.814 110.652 136.695 108.265 132.268 106.573C130.079 105.728 128.289 104.981 127.045 104.534C126.448 104.285 125.951 104.086 125.652 103.937C125.503 103.887 125.403 103.837 125.304 103.788C125.204 103.738 125.204 103.738 125.204 103.738C125.204 103.738 125.254 103.738 125.354 103.788C125.453 103.837 125.553 103.887 125.752 103.937C126.1 104.086 126.597 104.235 127.194 104.484C128.438 104.981 130.229 105.628 132.417 106.474C136.844 108.165 142.963 110.553 149.728 113.139L149.579 113.239C149.629 113.139 149.678 112.99 149.728 112.841C152.116 105.877 154.255 99.6092 155.846 95.0328C156.642 92.7943 157.289 90.9538 157.737 89.6605C157.936 89.0635 158.135 88.5661 158.284 88.2179C158.334 88.0687 158.383 87.9194 158.433 87.8199C158.383 87.5215 158.433 87.5215 158.433 87.5215Z" fill="#455A64"/>
<path d="M122.469 114.78C122.469 114.78 125.354 105.378 127.841 104.732C130.278 104.085 133.561 103.985 134.109 105.577C134.706 107.169 135.153 109.507 135.054 111.895C134.954 114.282 134.059 117.764 134.059 117.764L131.522 116.969C131.522 116.969 133.462 107.418 132.965 105.826C132.467 104.234 128.289 104.632 127.542 106.274C126.796 107.915 124.359 115.377 124.359 115.377L122.469 114.78Z" fill="#455A64"/>
<path d="M110.928 126.619C111.823 122.69 113.863 113.984 114.758 110.204C115.007 109.159 116.052 108.513 117.096 108.712L140.675 113.388C141.719 113.587 142.416 114.581 142.267 115.676L139.58 132.041C139.381 133.136 138.337 133.882 137.242 133.683L112.47 129.057C111.376 128.808 110.679 127.714 110.928 126.619Z" fill="#455A64"/>
<path d="M139.829 119.407C139.829 119.407 139.829 119.457 139.779 119.606C139.779 119.755 139.73 119.904 139.68 120.153C139.58 120.601 139.431 121.297 139.282 122.193C138.934 123.983 138.436 126.52 137.79 129.704C137.74 129.903 137.69 130.102 137.69 130.301C137.64 130.5 137.591 130.748 137.441 130.898C137.292 131.047 137.093 131.196 136.894 131.246C136.646 131.296 136.447 131.246 136.198 131.196C135.352 131.047 134.457 130.848 133.512 130.699C131.671 130.35 129.632 129.953 127.542 129.555C125.453 129.157 123.265 128.709 120.976 128.261C119.832 128.062 118.688 127.814 117.494 127.565C116.897 127.465 116.3 127.316 115.704 127.217L115.256 127.117C115.107 127.067 114.957 127.067 114.808 127.018C114.51 126.868 114.261 126.62 114.161 126.272C114.112 126.122 114.112 125.973 114.161 125.824C114.161 125.675 114.211 125.575 114.261 125.426C114.311 125.177 114.36 124.928 114.41 124.68C114.51 124.182 114.609 123.635 114.758 123.138C114.957 122.143 115.206 121.148 115.405 120.153C115.803 118.213 116.251 116.273 116.599 114.482V114.383H116.698C123.414 116.074 129.184 117.318 133.313 118.114C135.352 118.512 136.994 118.81 138.138 119.009C138.685 119.108 139.133 119.208 139.431 119.258C139.58 119.307 139.68 119.307 139.779 119.307C139.779 119.357 139.829 119.407 139.829 119.407C139.829 119.407 139.779 119.407 139.73 119.407C139.63 119.407 139.531 119.357 139.381 119.357C139.083 119.307 138.635 119.258 138.088 119.158C136.944 118.959 135.302 118.661 133.263 118.313C129.134 117.517 123.364 116.323 116.649 114.632L116.748 114.582C116.35 116.373 115.952 118.313 115.554 120.253C115.355 121.247 115.156 122.242 114.908 123.237C114.808 123.735 114.709 124.232 114.559 124.779C114.51 125.028 114.46 125.277 114.41 125.525C114.36 125.774 114.261 126.023 114.36 126.272C114.41 126.57 114.609 126.769 114.858 126.868C114.957 126.918 115.107 126.968 115.306 126.968L115.753 127.067C116.35 127.167 116.947 127.316 117.544 127.416C118.738 127.664 119.882 127.863 121.026 128.112C123.314 128.56 125.503 129.007 127.592 129.405C129.681 129.803 131.671 130.201 133.561 130.549C134.507 130.748 135.402 130.898 136.248 131.097C136.447 131.146 136.646 131.196 136.845 131.146C137.043 131.097 137.242 130.997 137.342 130.848C137.491 130.699 137.541 130.5 137.591 130.301C137.64 130.102 137.69 129.903 137.69 129.704C138.337 126.57 138.884 123.983 139.232 122.242C139.431 121.347 139.58 120.651 139.68 120.203C139.73 119.954 139.779 119.805 139.779 119.656C139.829 119.457 139.829 119.407 139.829 119.407Z" fill="#003744"/>
<path d="M131.024 128.56C131.024 128.56 131.174 128.609 131.472 128.56C131.721 128.56 132.169 128.51 132.616 128.211C133.064 127.913 133.462 127.366 133.512 126.62C133.661 125.873 133.81 125.028 134.009 124.083C134.109 123.635 134.208 123.138 134.308 122.64C134.457 122.143 134.407 121.596 134.158 121.098C133.91 120.601 133.462 120.252 132.915 120.103C132.368 119.954 131.721 119.855 131.124 119.755C128.687 119.258 125.951 118.71 123.115 118.163C122.419 118.014 121.722 118.263 121.275 118.76C121.026 119.009 120.877 119.307 120.827 119.656C120.777 120.004 120.678 120.352 120.628 120.65C120.479 121.297 120.379 121.993 120.23 122.64C120.18 122.939 120.081 123.287 120.031 123.585C119.981 123.884 119.882 124.232 119.882 124.53C119.832 125.127 120.131 125.724 120.529 126.122C120.728 126.321 120.976 126.47 121.275 126.52C121.523 126.62 121.822 126.62 122.12 126.719C123.215 126.918 124.21 127.167 125.155 127.366C126.995 127.764 128.488 128.062 129.532 128.261C130.03 128.361 130.428 128.46 130.726 128.51C130.875 128.56 130.975 128.56 131.024 128.56C131.024 128.56 130.975 128.56 130.925 128.56C130.825 128.56 130.726 128.51 130.627 128.51C130.328 128.46 129.93 128.361 129.433 128.261C128.388 128.062 126.896 127.764 125.006 127.416C124.06 127.217 123.066 127.018 121.971 126.819C121.673 126.769 121.424 126.719 121.126 126.62C120.827 126.52 120.578 126.371 120.33 126.172C119.882 125.774 119.583 125.127 119.633 124.481C119.633 124.132 119.733 123.834 119.782 123.536C119.832 123.237 119.932 122.889 119.981 122.59C120.131 121.944 120.23 121.297 120.379 120.601C120.429 120.252 120.529 119.904 120.578 119.606C120.678 119.258 120.827 118.909 121.076 118.661C121.573 118.113 122.369 117.815 123.115 118.014C125.951 118.611 128.637 119.158 131.124 119.656C131.721 119.805 132.318 119.904 132.915 120.053C133.512 120.203 134.009 120.65 134.258 121.148C134.507 121.645 134.556 122.242 134.407 122.789C134.308 123.287 134.208 123.784 134.109 124.232C133.91 125.177 133.76 126.023 133.611 126.719C133.561 126.918 133.561 127.067 133.512 127.266C133.462 127.416 133.362 127.614 133.313 127.714C133.114 128.012 132.915 128.211 132.716 128.361C132.268 128.659 131.82 128.709 131.522 128.709C131.174 128.609 131.024 128.56 131.024 128.56Z" fill="#003744"/>
<g opacity="0.3">
<path d="M114.709 126.868C121.275 130.35 128.886 131.793 136.297 131.047L114.709 126.868Z" fill="#003744"/>
</g>
<path d="M129.532 121.993L126.747 121.446C126.299 121.346 126.05 120.948 126.1 120.501C126.199 120.053 126.597 119.804 127.045 119.854L129.831 120.401C130.278 120.501 130.527 120.899 130.477 121.346C130.378 121.794 129.93 122.043 129.532 121.993Z" fill="#E0E0E0"/>
<path d="M133.91 102.593C133.91 102.593 134.606 103.687 134.805 104.384C134.954 105.08 134.855 107.766 134.855 107.766C134.855 107.766 134.258 108.065 133.81 106.473C133.362 104.931 133.263 104.185 133.263 104.185L133.91 102.593Z" fill="#FFBF9D"/>
<path d="M133.86 107.567L133.959 102.643L132.069 99.0116L126.05 98.9121L125.851 104.881C125.851 104.881 126.747 107.468 127.145 107.916C127.542 108.413 128.388 108.065 128.388 108.065C128.836 108.761 130.079 108.513 130.079 108.513C130.676 109.259 131.671 108.562 131.671 108.562C131.671 108.562 132.517 109.309 132.915 109.259C133.064 109.259 133.213 109.159 133.313 109.01C133.661 108.612 133.86 108.115 133.86 107.567Z" fill="#FFBF9D"/>
<path d="M127.94 106.771C127.99 106.771 128.139 107.02 128.239 107.368C128.338 107.717 128.388 108.015 128.338 108.015C128.289 108.015 128.139 107.766 128.04 107.418C127.94 107.07 127.891 106.771 127.94 106.771Z" fill="#FF9A6C"/>
<path d="M129.483 106.672C129.532 106.672 129.632 107.07 129.781 107.567C129.93 108.065 130.079 108.463 130.03 108.512C129.98 108.562 129.731 108.164 129.582 107.617C129.433 107.12 129.433 106.672 129.483 106.672Z" fill="#FF9A6C"/>
<path d="M131.273 106.871C131.323 106.871 131.373 107.269 131.472 107.717C131.572 108.164 131.621 108.562 131.572 108.562C131.522 108.562 131.323 108.214 131.223 107.766C131.174 107.219 131.223 106.871 131.273 106.871Z" fill="#FF9A6C"/>
<path d="M133.91 104.185C133.959 104.185 134.009 105.03 134.009 106.075C134.009 107.119 133.959 107.965 133.86 107.965C133.81 107.965 133.76 107.119 133.76 106.075C133.76 105.03 133.81 104.185 133.91 104.185Z" fill="#FF9A6C"/>
<path d="M127.841 105.777C127.841 105.777 127.841 105.876 127.692 105.926C127.592 105.976 127.393 106.025 127.194 105.976C126.995 105.926 126.846 105.826 126.796 105.727C126.747 105.628 126.697 105.528 126.747 105.528C126.796 105.478 126.946 105.727 127.244 105.777C127.592 105.826 127.791 105.727 127.841 105.777Z" fill="#FF9A6C"/>
<path d="M129.681 106.075C129.681 106.075 129.632 106.174 129.532 106.224C129.433 106.274 129.234 106.324 129.035 106.274C128.836 106.224 128.687 106.125 128.587 106.025C128.488 105.926 128.488 105.826 128.488 105.826C128.537 105.776 128.736 105.975 129.084 106.075C129.383 106.125 129.632 106.025 129.681 106.075Z" fill="#FF9A6C"/>
<path d="M133.163 105.726C133.163 105.677 133.313 105.876 133.163 106.075C133.014 106.274 132.766 106.373 132.417 106.423C132.069 106.473 131.82 106.373 131.621 106.224C131.422 106.124 131.373 105.975 131.373 105.975C131.422 105.925 131.82 106.224 132.368 106.174C132.616 106.174 132.865 106.025 133.014 105.925C133.163 105.826 133.114 105.726 133.163 105.726Z" fill="#FF9A6C"/>
<path d="M151.917 59.3164C149.529 61.8036 134.855 76.2292 134.855 76.2292C134.855 76.2292 134.009 99.5589 133.561 99.6584C133.114 99.7579 124.657 99.0615 124.657 99.0615C124.657 99.0615 123.464 74.3389 124.458 71.5036C125.453 68.6682 138.038 52.2031 138.287 51.8549C138.536 51.5066 139.978 48.9697 144.803 47.7759C150.425 46.3333 152.812 49.0195 153.757 51.8051C154.553 54.1928 153.011 57.9236 152.265 58.9184C152.166 59.0677 152.066 59.2169 151.917 59.3164Z" fill="#003744"/>
<path d="M151.917 59.3168C151.917 59.3168 151.967 59.2173 152.116 59.0183C152.265 58.8691 152.464 58.5706 152.663 58.1727C153.061 57.3768 153.608 56.1332 153.857 54.4419C153.956 53.5963 154.006 52.6512 153.658 51.6563C153.31 50.7112 152.762 49.6665 151.867 48.8707C151.419 48.4727 150.872 48.1245 150.325 47.8758C149.728 47.6271 149.081 47.4778 148.385 47.4281C147.042 47.3286 145.599 47.5773 144.107 48.025C142.664 48.4727 141.172 49.1194 139.879 50.164C139.232 50.7112 138.685 51.3081 138.188 52.0542C137.64 52.7506 137.143 53.4471 136.596 54.1435C134.457 57.0286 132.169 60.1127 129.781 63.3958C128.587 65.0373 127.393 66.7286 126.249 68.4696C125.702 69.365 125.105 70.2604 124.608 71.2055C124.558 71.305 124.508 71.4542 124.458 71.5537L124.359 71.9517C124.309 72.2004 124.259 72.4491 124.259 72.7476L124.21 73.5434L124.16 74.3393C124.011 78.7168 124.11 83.2932 124.259 87.9193C124.359 91.6998 124.508 95.4306 124.657 99.0121L124.558 98.9126C126.1 99.0121 127.592 99.1614 129.084 99.2609C129.831 99.3106 130.577 99.3603 131.323 99.4101C131.671 99.4101 132.069 99.4598 132.417 99.4598H132.964H133.213H133.313C133.462 98.7634 133.462 98.0173 133.561 97.3209C133.611 96.6244 133.661 95.8783 133.711 95.1819C133.81 93.7891 133.86 92.3962 133.959 91.0532C134.208 85.6311 134.457 80.607 134.606 76.1301V76.0804L134.656 76.0306C139.929 70.8573 144.207 66.6291 147.141 63.6942C148.634 62.2517 149.778 61.1076 150.574 60.3614C150.972 59.9635 151.27 59.7147 151.469 59.5158C151.817 59.4163 151.917 59.3168 151.917 59.3168C151.917 59.3168 151.817 59.4163 151.618 59.6153C151.419 59.8142 151.121 60.1127 150.723 60.5106C149.927 61.3065 148.783 62.4506 147.34 63.8932C144.405 66.8281 140.128 71.0563 134.904 76.2793L134.954 76.2296C134.805 80.7065 134.606 85.7306 134.357 91.1527C134.308 92.4957 134.208 93.8886 134.158 95.2814C134.109 95.9778 134.059 96.6742 134.009 97.4203C133.959 98.1167 133.91 98.8629 133.76 99.6091C133.76 99.6588 133.76 99.6588 133.711 99.7085C133.661 99.7583 133.611 99.7583 133.611 99.7583H133.561H133.412H133.114H132.567C132.218 99.7583 131.82 99.7085 131.472 99.7085C130.726 99.6588 129.98 99.6091 129.234 99.5593C127.741 99.4598 126.199 99.3106 124.707 99.2111H124.608V99.1116C124.458 95.5301 124.309 91.7993 124.16 88.0188C124.011 83.3429 123.911 78.8163 124.06 74.3891L124.11 73.5434L124.16 72.7476C124.16 72.4988 124.21 72.2004 124.259 71.9517L124.359 71.5537C124.409 71.4045 124.458 71.305 124.508 71.1558C125.006 70.1609 125.602 69.2655 126.15 68.3701C127.294 66.5793 128.488 64.9378 129.681 63.2963C132.019 60.0132 134.357 56.9291 136.496 54.0937C137.043 53.3973 137.591 52.7009 138.088 52.0045C138.337 51.6563 138.586 51.3081 138.884 51.0096C139.182 50.7112 139.481 50.4127 139.829 50.1142C141.122 49.0696 142.664 48.3732 144.107 47.9255C145.599 47.4778 147.042 47.2291 148.435 47.3783C149.131 47.4778 149.778 47.5773 150.375 47.8758C150.972 48.1245 151.519 48.4727 151.967 48.9204C152.862 49.766 153.409 50.8106 153.757 51.8055C154.105 52.8004 154.056 53.7953 153.907 54.6409C153.608 56.3322 153.061 57.5758 152.663 58.3717C152.464 58.7696 152.265 59.0681 152.066 59.2173C152.016 59.2671 151.917 59.3168 151.917 59.3168Z" fill="#455A64"/>
<path d="M160.274 70.012C160.274 70.012 160.224 69.9125 160.174 69.7135C160.124 69.5145 160.025 69.2161 159.926 68.9176C159.727 68.1715 159.428 67.1766 159.08 65.8833C158.383 63.2966 157.389 59.7151 156.294 55.7356V55.6858L156.344 55.6361C156.642 55.1884 156.891 54.7407 157.19 54.293L157.438 53.9448L157.538 54.1438C156.991 54.094 156.443 54.0443 155.896 53.9946H155.797L155.747 53.8951C155.449 52.9499 155.1 52.0048 154.702 51.1592C154.304 50.3135 153.907 49.4679 153.409 48.8212C152.912 48.1248 152.166 47.7269 151.569 47.3289C150.922 46.9807 150.275 46.6325 149.678 46.3838C148.534 45.8366 147.589 45.4387 146.893 45.1899C146.594 45.0407 146.346 44.9412 146.147 44.8915C145.997 44.8417 145.898 44.792 145.898 44.792C145.898 44.792 145.997 44.792 146.196 44.8915C146.395 44.9412 146.644 45.0407 146.992 45.1402C147.639 45.3889 148.634 45.7371 149.778 46.2843C150.375 46.533 151.021 46.8315 151.668 47.2294C152.315 47.6274 153.061 48.0253 153.608 48.7217C154.155 49.4181 154.553 50.2638 154.951 51.1094C155.349 51.9551 155.697 52.9002 155.996 53.8951L155.896 53.7956C156.443 53.8453 156.991 53.8951 157.538 53.9448H157.737L157.637 54.1438L157.389 54.492C157.09 54.9397 156.792 55.3874 156.543 55.8351V55.7356C157.588 59.7151 158.582 63.2966 159.279 65.8833C159.627 67.1268 159.876 68.1715 160.075 68.9176C160.174 69.2658 160.224 69.5145 160.274 69.7633C160.274 69.9125 160.274 70.012 160.274 70.012Z" fill="#455A64"/>
<path d="M158.533 55.1382C155.648 56.8295 153.31 56.8295 148.484 56.4315C145.152 56.1331 142.217 55.1879 138.884 55.0884C134.059 54.9392 130.428 56.4315 126.05 58.4213L122.817 62.2515L128.885 64.092C128.885 64.092 134.705 60.7592 142.217 61.1571C149.678 61.5551 156.692 59.5156 159.179 57.6254L160.025 55.2874L159.726 54.0438L158.682 53.9443L158.533 55.1382Z" fill="#00E8E8"/>
<path d="M158.533 55.1381C158.533 55.1381 158.533 55.0386 158.533 54.8397C158.533 54.6407 158.582 54.3422 158.582 53.9443V53.8945H158.632C158.931 53.8945 159.279 53.9443 159.677 53.994H159.727V54.0438C159.826 54.392 159.926 54.8397 160.075 55.2874C159.826 55.9838 159.528 56.7797 159.229 57.675C158.582 58.1725 157.787 58.5704 156.891 58.9684C155.996 59.3663 155.001 59.7145 153.956 60.013C151.817 60.6099 149.38 61.0576 146.694 61.2566C145.351 61.3561 143.958 61.3561 142.515 61.3063C141.073 61.2566 139.58 61.2566 138.088 61.4556C136.596 61.6545 135.054 61.953 133.512 62.4007C131.97 62.8484 130.428 63.4453 128.985 64.1915L128.935 64.2412H128.886C127.741 63.893 126.548 63.5448 125.304 63.1468C124.458 62.8981 123.613 62.6494 122.767 62.4007L122.568 62.3509L122.717 62.2017C123.812 60.9084 124.906 59.615 125.951 58.3714H126C128.189 57.3766 130.278 56.4812 132.467 55.8843C134.606 55.2874 136.745 55.0386 138.785 55.0884C140.824 55.1381 142.714 55.4863 144.455 55.8345C146.196 56.1827 147.838 56.4315 149.28 56.5309C150.773 56.6304 152.116 56.7299 153.26 56.6802C154.454 56.6304 155.449 56.4812 156.195 56.2325C156.991 55.9838 157.538 55.735 157.936 55.5361C158.135 55.4366 158.234 55.3868 158.383 55.2874C158.483 55.1879 158.533 55.1381 158.533 55.1381C158.533 55.1381 158.483 55.1879 158.383 55.2376C158.284 55.2874 158.135 55.3868 157.936 55.4863C157.538 55.6853 156.991 55.9838 156.195 56.2325C155.399 56.4812 154.404 56.6802 153.21 56.7299C152.016 56.7797 150.673 56.7299 149.181 56.5807C147.689 56.4812 146.047 56.2325 144.306 55.934C142.565 55.6356 140.675 55.2376 138.685 55.2376C136.695 55.1879 134.556 55.4366 132.467 56.0335C130.328 56.6304 128.239 57.5756 126.05 58.5207L126.1 58.4709C125.055 59.7145 123.961 61.0079 122.867 62.3012L122.817 62.1022C123.662 62.3509 124.508 62.5997 125.354 62.8484C126.597 63.1966 127.791 63.5945 128.935 63.9427H128.836C130.328 63.1468 131.87 62.5997 133.412 62.1022C134.954 61.6545 136.496 61.3063 138.038 61.1571C139.58 60.9581 141.073 60.9581 142.515 61.0079C143.958 61.1073 145.351 61.0576 146.644 60.9581C149.33 60.8089 151.718 60.3612 153.857 59.7643C154.901 59.4658 155.896 59.1176 156.792 58.7694C157.687 58.4212 158.483 57.9735 159.13 57.5258V57.5756C159.428 56.6802 159.727 55.8843 159.975 55.2376V55.2874C159.876 54.8397 159.776 54.392 159.677 54.0438L159.727 54.0935C159.329 54.0438 158.98 53.994 158.682 53.994L158.732 53.9443C158.682 54.3422 158.632 54.6407 158.632 54.8397C158.582 55.0386 158.533 55.1381 158.533 55.1381Z" fill="#003744"/>
<path d="M147.141 86.1779C147.141 86.2277 144.903 85.5312 142.217 84.5364C139.531 83.5912 137.392 82.7456 137.392 82.6959C137.392 82.6461 139.63 83.3425 142.316 84.3374C145.002 85.2825 147.191 86.1282 147.141 86.1779Z" fill="#455A64"/>
</svg>
