<svg width="229" height="220" viewBox="0 0 229 220" fill="none" xmlns="http://www.w3.org/2000/svg">
<path d="M218.684 105.732C216.289 126.164 206.953 149.919 188.33 160.819C160.176 177.291 162.522 202.659 107.582 213.706C99.0281 215.417 90.8653 216.15 83.2402 216.003C79.1344 215.905 75.1263 215.612 71.2649 215.025C36.3164 209.942 12.8057 185.698 4.20299 156.371C-7.13692 117.854 15.494 92.5838 30.5487 77.3824C45.5546 62.1811 56.5523 14.8174 110.515 3.52641C118.726 1.81564 127.133 0.935824 135.541 1.13134C154.75 1.62013 175.67 7.92551 190.138 21.0739C191.214 22.0515 192.289 23.078 193.316 24.1533C213.405 44.8291 221.959 77.8712 218.684 105.732Z" fill="#00DEDE"/>
<path opacity="0.7" d="M218.684 105.732C216.289 126.164 206.953 149.919 188.33 160.819C160.176 177.291 162.522 202.659 107.582 213.706C99.0281 215.417 90.8653 216.15 83.2402 216.003C79.1344 215.905 75.1263 215.612 71.2649 215.025C36.3164 209.942 12.8057 185.698 4.20299 156.371C-7.13692 117.854 15.494 92.5838 30.5487 77.3824C45.5546 62.1811 56.5523 14.8174 110.515 3.52641C118.726 1.81564 127.133 0.935824 135.541 1.13134C154.75 1.62013 175.67 7.92551 190.138 21.0739C191.214 22.0515 192.289 23.078 193.316 24.1533C213.405 44.8291 221.959 77.8712 218.684 105.732Z" fill="white"/>
<path d="M179.629 107.004H166.041" stroke="#003744" stroke-width="0.977578" stroke-miterlimit="10" stroke-linecap="round" stroke-linejoin="round"/>
<path d="M179.629 123.525H166.041" stroke="#003744" stroke-width="0.977578" stroke-miterlimit="10" stroke-linecap="round" stroke-linejoin="round"/>
<path d="M179.63 139.997H166.139" stroke="#003744" stroke-width="0.977578" stroke-miterlimit="10" stroke-linecap="round" stroke-linejoin="round"/>
<path d="M179.629 156.47H166.041" stroke="#003744" stroke-width="0.977578" stroke-miterlimit="10" stroke-linecap="round" stroke-linejoin="round"/>
<path d="M179.629 172.941H166.041" stroke="#003744" stroke-width="0.977578" stroke-miterlimit="10" stroke-linecap="round" stroke-linejoin="round"/>
<path d="M179.629 189.463H166.041" stroke="#003744" stroke-width="0.977578" stroke-miterlimit="10" stroke-linecap="round" stroke-linejoin="round"/>
<path d="M179.629 205.935H166.041" stroke="#003744" stroke-width="0.977578" stroke-miterlimit="10" stroke-linecap="round" stroke-linejoin="round"/>
<path d="M166.041 103.484V218.35" stroke="#003744" stroke-width="0.977578" stroke-miterlimit="10" stroke-linecap="round" stroke-linejoin="round"/>
<path d="M179.776 103.484V218.35" stroke="#003744" stroke-width="0.977578" stroke-miterlimit="10" stroke-linecap="round" stroke-linejoin="round"/>
<path d="M50.4914 145.813H41.6443" stroke="#003744" stroke-width="0.977578" stroke-miterlimit="10" stroke-linecap="round" stroke-linejoin="round"/>
<path d="M50.4914 156.566H41.6443" stroke="#003744" stroke-width="0.977578" stroke-miterlimit="10" stroke-linecap="round" stroke-linejoin="round"/>
<path d="M50.4914 167.271H41.6932" stroke="#003744" stroke-width="0.977578" stroke-miterlimit="10" stroke-linecap="round" stroke-linejoin="round"/>
<path d="M50.4914 178.024H41.6443" stroke="#003744" stroke-width="0.977578" stroke-miterlimit="10" stroke-linecap="round" stroke-linejoin="round"/>
<path d="M50.4914 188.778H41.6443" stroke="#003744" stroke-width="0.977578" stroke-miterlimit="10" stroke-linecap="round" stroke-linejoin="round"/>
<path d="M50.4914 199.531H41.6443" stroke="#003744" stroke-width="0.977578" stroke-miterlimit="10" stroke-linecap="round" stroke-linejoin="round"/>
<path d="M50.4914 210.285H41.6443" stroke="#003744" stroke-width="0.977578" stroke-miterlimit="10" stroke-linecap="round" stroke-linejoin="round"/>
<path d="M41.6443 143.517V218.35" stroke="#003744" stroke-width="0.977578" stroke-miterlimit="10" stroke-linecap="round" stroke-linejoin="round"/>
<path d="M50.5403 143.517V218.35" stroke="#003744" stroke-width="0.977578" stroke-miterlimit="10" stroke-linecap="round" stroke-linejoin="round"/>
<path d="M122.637 81.6836C122.637 81.6836 130.408 67.411 144.388 64.6249C158.367 61.8388 160.86 73.6186 163.011 76.7469C165.161 79.8751 169.218 73.0321 176.061 72.1034C182.904 71.1747 186.619 73.6675 187.548 79.2397C188.477 84.8119 192.533 83.2966 195.613 81.3904C198.741 79.533 203.042 77.3334 207.393 82.0258C211.743 86.6693 212.672 87.0114 214.822 86.0827C216.973 85.154 220.394 81.7325 224.451 85.4473C228.508 89.1621 228.508 89.1621 228.508 89.1621H111.15C111.15 89.1621 110.857 83.8832 114.572 82.0258C118.286 80.1684 119.802 84.5186 122.637 81.6836Z" fill="white" stroke="#003744" stroke-width="0.488789" stroke-miterlimit="10" stroke-linecap="round" stroke-linejoin="round"/>
<path d="M10.2151 116.388C10.2151 116.388 12.9035 111.402 17.7914 110.425C22.6793 109.447 23.5591 113.553 24.2923 114.677C25.0743 115.752 26.4429 113.357 28.838 113.064C31.2331 112.771 32.5039 113.602 32.8461 115.557C33.1882 117.512 34.6057 116.974 35.681 116.339C36.7564 115.703 38.2716 114.921 39.7869 116.534C41.3021 118.147 41.6443 118.294 42.3775 117.952C43.1595 117.61 44.3326 116.437 45.7501 117.756C47.1676 119.076 47.1676 119.076 47.1676 119.076H6.20706C6.20706 119.076 6.1093 117.219 7.38015 116.583C8.69988 115.85 9.23755 117.365 10.2151 116.388Z" fill="white" stroke="#003744" stroke-width="0.488789" stroke-miterlimit="10" stroke-linecap="round" stroke-linejoin="round"/>
<path d="M172.004 40.4307C182.127 40.4307 190.334 32.2242 190.334 22.1011C190.334 11.9779 182.127 3.77148 172.004 3.77148C161.881 3.77148 153.675 11.9779 153.675 22.1011C153.675 32.2242 161.881 40.4307 172.004 40.4307Z" stroke="#003744" stroke-width="0.488789" stroke-miterlimit="10" stroke-linecap="round" stroke-linejoin="round"/>
<path d="M172.004 35.9829C179.671 35.9829 185.886 29.7679 185.886 22.1013C185.886 14.4347 179.671 8.21973 172.004 8.21973C164.338 8.21973 158.123 14.4347 158.123 22.1013C158.123 29.7679 164.338 35.9829 172.004 35.9829Z" stroke="#003744" stroke-width="0.488789" stroke-miterlimit="10" stroke-linecap="round" stroke-linejoin="round"/>
<path d="M172.004 30.5087C176.648 30.5087 180.412 26.7447 180.412 22.1015C180.412 17.4584 176.648 13.6943 172.004 13.6943C167.361 13.6943 163.597 17.4584 163.597 22.1015C163.597 26.7447 167.361 30.5087 172.004 30.5087Z" stroke="#003744" stroke-width="0.488789" stroke-miterlimit="10" stroke-linecap="round" stroke-linejoin="round"/>
<path d="M172.004 26.3046C174.326 26.3046 176.208 24.4226 176.208 22.1011C176.208 19.7795 174.326 17.8975 172.004 17.8975C169.683 17.8975 167.801 19.7795 167.801 22.1011C167.801 24.4226 169.683 26.3046 172.004 26.3046Z" stroke="#003744" stroke-width="0.488789" stroke-miterlimit="10" stroke-linecap="round" stroke-linejoin="round"/>
<path d="M83.9037 197.41C86.6612 190.488 83.2855 182.642 76.3638 179.884C69.4422 177.127 61.5957 180.503 58.8382 187.424C56.0807 194.346 59.4564 202.192 66.3781 204.95C73.2997 207.707 81.1462 204.332 83.9037 197.41Z" stroke="#003744" stroke-width="0.488789" stroke-miterlimit="10" stroke-linecap="round" stroke-linejoin="round"/>
<path d="M80.9138 196.195C83.0034 190.925 80.4252 184.959 75.1554 182.87C69.8855 180.78 63.9195 183.358 61.8299 188.628C59.7403 193.898 62.3185 199.864 67.5883 201.953C72.8582 204.043 78.8242 201.465 80.9138 196.195Z" stroke="#003744" stroke-width="0.488789" stroke-miterlimit="10" stroke-linecap="round" stroke-linejoin="round"/>
<path d="M71.3626 198.652C74.791 198.652 77.5703 195.872 77.5703 192.444C77.5703 189.016 74.791 186.236 71.3626 186.236C67.9343 186.236 65.155 189.016 65.155 192.444C65.155 195.872 67.9343 198.652 71.3626 198.652Z" stroke="#003744" stroke-width="0.488789" stroke-miterlimit="10" stroke-linecap="round" stroke-linejoin="round"/>
<path d="M71.3626 195.572C73.0903 195.572 74.4909 194.171 74.4909 192.444C74.4909 190.716 73.0903 189.315 71.3626 189.315C69.6349 189.315 68.2344 190.716 68.2344 192.444C68.2344 194.171 69.6349 195.572 71.3626 195.572Z" stroke="#003744" stroke-width="0.488789" stroke-miterlimit="10" stroke-linecap="round" stroke-linejoin="round"/>
<path d="M26.8829 81.8309V80.1201C25.4654 80.0712 24.3901 79.5824 23.7058 78.7515C23.0215 77.8717 22.6304 76.6497 22.5815 75.0856L25.221 74.5479C25.2699 75.1833 25.3188 75.7699 25.4654 76.2587C25.612 76.7474 25.8076 77.1385 26.0519 77.3829C26.2963 77.6273 26.6874 77.7739 27.1273 77.7739C27.6161 77.7739 27.9582 77.6273 28.2026 77.334C28.3981 77.0407 28.5448 76.6497 28.5448 76.2098C28.5448 75.4766 28.3981 74.89 28.056 74.4013C27.7138 73.9125 27.2739 73.4726 26.7363 72.9838L24.6345 71.1264C24.2434 70.7842 23.9013 70.4421 23.608 70.051C23.3147 69.66 23.0703 69.269 22.9237 68.7802C22.7771 68.2914 22.6793 67.7537 22.6793 67.1183C22.6793 65.8474 23.0215 64.8699 23.7546 64.1856C24.4878 63.5013 25.4165 63.1102 26.6385 63.0125V61.3506H27.5183V63.0125C28.2026 63.0613 28.7892 63.208 29.2291 63.4524C29.669 63.6968 30.06 64.0878 30.3044 64.4788C30.5488 64.9187 30.7932 65.3587 30.891 65.8963C31.0376 66.434 31.0865 66.9717 31.1354 67.5093L28.5448 67.9492C28.4959 67.4116 28.447 66.9717 28.3981 66.5317C28.3004 66.0918 28.1537 65.7986 27.9582 65.5542C27.7138 65.3098 27.4206 65.212 26.9806 65.212C26.4919 65.212 26.1497 65.3587 25.9053 65.6519C25.6609 65.9452 25.5632 66.2874 25.5632 66.7273C25.5632 67.3138 25.7098 67.8026 25.9542 68.1448C26.1986 68.4869 26.5407 68.8779 26.9318 69.2201L29.0336 71.0775C29.4735 71.4685 29.8645 71.9084 30.2555 72.3972C30.6466 72.886 30.9398 73.3748 31.1842 73.9613C31.4286 74.5479 31.5264 75.1833 31.5264 75.9165C31.5264 76.6497 31.3797 77.334 31.0865 77.9205C30.7932 78.5071 30.3533 78.9959 29.8156 79.338C29.278 79.6802 28.6425 79.9246 27.9093 79.9735V81.7331H26.8829V81.8309Z" stroke="#003744" stroke-width="0.488789" stroke-miterlimit="10" stroke-linecap="round" stroke-linejoin="round"/>
<path d="M26.9806 87.5007C35.9969 87.5007 43.3061 80.1915 43.3061 71.1752C43.3061 62.1588 35.9969 54.8496 26.9806 54.8496C17.9642 54.8496 10.655 62.1588 10.655 71.1752C10.655 80.1915 17.9642 87.5007 26.9806 87.5007Z" stroke="#003744" stroke-width="0.488789" stroke-miterlimit="10" stroke-linecap="round" stroke-linejoin="round"/>
<path d="M26.9806 84.7636C34.4852 84.7636 40.5689 78.6799 40.5689 71.1753C40.5689 63.6706 34.4852 57.5869 26.9806 57.5869C19.4759 57.5869 13.3922 63.6706 13.3922 71.1753C13.3922 78.6799 19.4759 84.7636 26.9806 84.7636Z" stroke="#003744" stroke-width="0.488789" stroke-miterlimit="10" stroke-linecap="round" stroke-linejoin="round"/>
<path d="M147.858 148.16V146.938C146.832 146.889 146.098 146.547 145.561 145.96C145.072 145.325 144.779 144.445 144.73 143.321L146.636 142.93C146.636 143.419 146.734 143.81 146.783 144.152C146.881 144.494 147.027 144.787 147.223 144.983C147.418 145.178 147.663 145.276 148.005 145.276C148.347 145.276 148.591 145.178 148.787 144.934C148.933 144.738 149.031 144.445 149.031 144.103C149.031 143.565 148.933 143.125 148.689 142.832C148.445 142.49 148.151 142.148 147.76 141.806L146.245 140.486C145.952 140.241 145.707 139.997 145.512 139.704C145.316 139.41 145.121 139.117 145.023 138.775C144.925 138.433 144.828 138.042 144.828 137.602C144.828 136.722 145.072 135.989 145.61 135.5C146.147 135.011 146.832 134.718 147.663 134.669V133.447H148.298V134.62C148.787 134.669 149.227 134.767 149.52 134.963C149.862 135.158 150.107 135.402 150.302 135.696C150.498 135.989 150.644 136.331 150.742 136.722C150.84 137.113 150.889 137.504 150.889 137.895L149.031 138.237C149.031 137.846 148.982 137.504 148.933 137.211C148.885 136.918 148.787 136.673 148.591 136.478C148.445 136.282 148.2 136.233 147.858 136.233C147.516 136.233 147.272 136.331 147.076 136.576C146.881 136.771 146.832 137.064 146.832 137.358C146.832 137.797 146.929 138.14 147.125 138.384C147.32 138.628 147.565 138.922 147.809 139.166L149.324 140.486C149.618 140.779 149.911 141.072 150.204 141.415C150.498 141.757 150.693 142.148 150.84 142.539C150.986 142.93 151.084 143.419 151.084 143.956C151.084 144.494 150.986 144.983 150.742 145.374C150.546 145.814 150.253 146.156 149.862 146.4C149.471 146.645 149.031 146.791 148.494 146.889V148.16H147.858Z" stroke="#003744" stroke-width="0.488789" stroke-miterlimit="10" stroke-linecap="round" stroke-linejoin="round"/>
<path d="M147.956 152.217C154.435 152.217 159.687 146.965 159.687 140.486C159.687 134.007 154.435 128.755 147.956 128.755C141.477 128.755 136.225 134.007 136.225 140.486C136.225 146.965 141.477 152.217 147.956 152.217Z" stroke="#003744" stroke-width="0.488789" stroke-miterlimit="10" stroke-linecap="round" stroke-linejoin="round"/>
<path d="M147.956 150.262C153.355 150.262 157.732 145.885 157.732 140.486C157.732 135.087 153.355 130.71 147.956 130.71C142.557 130.71 138.18 135.087 138.18 140.486C138.18 145.885 142.557 150.262 147.956 150.262Z" stroke="#003744" stroke-width="0.488789" stroke-miterlimit="10" stroke-linecap="round" stroke-linejoin="round"/>
<path d="M27.8116 145.813V144.884C27.0784 144.836 26.4919 144.591 26.1008 144.151C25.7098 143.711 25.5143 143.027 25.5143 142.196L26.9318 141.903C26.9318 142.245 26.9806 142.538 27.0295 142.832C27.0784 143.076 27.1762 143.32 27.3228 143.418C27.4694 143.565 27.665 143.614 27.9093 143.614C28.1537 143.614 28.3493 143.516 28.4959 143.369C28.5937 143.223 28.6425 143.027 28.6425 142.783C28.6425 142.392 28.5448 142.098 28.3493 141.805C28.1537 141.561 27.9582 141.316 27.665 141.072L26.5407 140.094C26.3452 139.899 26.1497 139.703 26.0031 139.508C25.8564 139.312 25.7098 139.068 25.6609 138.823C25.5632 138.579 25.5143 138.286 25.5143 137.944C25.5143 137.259 25.7098 136.771 26.1008 136.38C26.4919 135.988 26.9807 135.793 27.665 135.744V134.864H28.1537V135.744C28.5448 135.744 28.838 135.842 29.0824 135.988C29.3268 136.135 29.5224 136.331 29.669 136.526C29.8156 136.771 29.9134 137.015 30.0111 137.259C30.06 137.553 30.1089 137.846 30.1578 138.139L28.7892 138.384C28.7892 138.09 28.7403 137.846 28.6914 137.65C28.6425 137.406 28.5448 137.259 28.447 137.113C28.3493 136.966 28.1537 136.917 27.9093 136.966C27.665 136.966 27.4694 137.064 27.3228 137.21C27.1762 137.357 27.1273 137.553 27.1273 137.797C27.1273 138.09 27.1762 138.384 27.3228 138.579C27.4694 138.775 27.6161 138.97 27.8605 139.166L28.9847 140.143C29.2291 140.339 29.4246 140.583 29.6201 140.827C29.8156 141.072 29.9623 141.365 30.1089 141.658C30.2067 141.952 30.3044 142.343 30.3044 142.734C30.3044 143.125 30.2067 143.467 30.06 143.809C29.9134 144.102 29.669 144.396 29.3757 144.542C29.0824 144.738 28.7403 144.836 28.3493 144.884V145.813H27.8116Z" stroke="#003744" stroke-width="0.488789" stroke-miterlimit="10" stroke-linecap="round" stroke-linejoin="round"/>
<path d="M29.2551 148.684C33.9982 147.914 37.2193 143.445 36.4495 138.702C35.6797 133.959 31.2106 130.738 26.4675 131.508C21.7243 132.277 18.5033 136.746 19.2731 141.49C20.0429 146.233 24.512 149.454 29.2551 148.684Z" stroke="#003744" stroke-width="0.488789" stroke-miterlimit="10" stroke-linecap="round" stroke-linejoin="round"/>
<path d="M29.028 147.285C32.9983 146.64 35.6946 142.899 35.0502 138.929C34.4059 134.958 30.6649 132.262 26.6945 132.907C22.7241 133.551 20.0279 137.292 20.6722 141.262C21.3166 145.233 25.0576 147.929 29.028 147.285Z" stroke="#003744" stroke-width="0.488789" stroke-miterlimit="10" stroke-linecap="round" stroke-linejoin="round"/>
<path d="M83.4357 14.7204V13.7917C82.7026 13.7428 82.116 13.4984 81.725 13.0585C81.3339 12.6186 81.1384 11.9343 81.1384 11.1033L82.5559 10.81C82.5559 11.1522 82.6048 11.4455 82.6537 11.7387C82.7026 11.9831 82.8003 12.2275 82.9469 12.3253C83.0936 12.4719 83.2891 12.5208 83.5335 12.5208C83.7779 12.5208 83.9734 12.4231 84.12 12.2764C84.2178 12.1298 84.2667 11.9343 84.2667 11.6899C84.2667 11.2988 84.1689 11.0056 83.9734 10.7123C83.7779 10.4679 83.5824 10.2235 83.2891 9.97911L82.1649 9.00153C81.9694 8.80601 81.7739 8.6105 81.6272 8.41498C81.4806 8.21947 81.3339 7.97507 81.2851 7.73068C81.1873 7.48628 81.1384 7.19301 81.1384 6.85086C81.1384 6.16655 81.3339 5.67776 81.725 5.28673C82.116 4.8957 82.6048 4.70018 83.2891 4.6513V3.77148H83.7779V4.6513C84.1689 4.6513 84.4622 4.74906 84.7066 4.8957C84.951 5.04234 85.1465 5.23785 85.2931 5.43337C85.4398 5.67776 85.5375 5.92216 85.6353 6.16655C85.6842 6.45983 85.733 6.7531 85.7819 7.04637L84.4133 7.29077C84.4133 6.99749 84.3644 6.7531 84.3156 6.55758C84.2667 6.31319 84.1689 6.16655 84.0712 6.01992C83.9734 5.87328 83.7779 5.8244 83.5335 5.87328C83.2891 5.87328 83.0936 5.97104 82.9469 6.11767C82.8003 6.26431 82.7514 6.45982 82.7514 6.70422C82.7514 6.99749 82.8003 7.29077 82.9469 7.48628C83.0936 7.6818 83.2402 7.87731 83.4846 8.07283L84.6088 9.05041C84.8532 9.24592 85.0487 9.49032 85.2443 9.73471C85.4398 9.97911 85.5864 10.2724 85.7331 10.5657C85.8308 10.8589 85.9286 11.25 85.9286 11.641C85.9286 12.032 85.8308 12.3742 85.6842 12.7163C85.5375 13.0096 85.2931 13.3029 84.9999 13.4495C84.7066 13.645 84.3644 13.7428 83.9734 13.7917V14.7204H83.4357Z" stroke="#003744" stroke-width="0.488789" stroke-miterlimit="10" stroke-linecap="round" stroke-linejoin="round"/>
<path d="M83.4846 17.7505C88.2898 17.7505 92.1851 13.8552 92.1851 9.05006C92.1851 4.24493 88.2898 0.349609 83.4846 0.349609C78.6795 0.349609 74.7842 4.24493 74.7842 9.05006C74.7842 13.8552 78.6795 17.7505 83.4846 17.7505Z" stroke="#003744" stroke-width="0.488789" stroke-miterlimit="10" stroke-linecap="round" stroke-linejoin="round"/>
<path d="M83.4846 16.3335C87.5069 16.3335 90.7676 13.0728 90.7676 9.05054C90.7676 5.02827 87.5069 1.76758 83.4846 1.76758C79.4623 1.76758 76.2017 5.02827 76.2017 9.05054C76.2017 13.0728 79.4623 16.3335 83.4846 16.3335Z" stroke="#003744" stroke-width="0.488789" stroke-miterlimit="10" stroke-linecap="round" stroke-linejoin="round"/>
<path d="M205.975 202.22V201.292C205.242 201.243 204.655 200.998 204.264 200.558C203.873 200.119 203.678 199.434 203.678 198.603L205.095 198.31C205.095 198.652 205.144 198.945 205.193 199.239C205.242 199.483 205.34 199.727 205.486 199.825C205.633 199.972 205.829 200.021 206.073 200.021C206.317 200.021 206.513 199.923 206.659 199.776C206.757 199.63 206.806 199.434 206.806 199.19C206.806 198.799 206.708 198.506 206.513 198.212C206.317 197.968 206.122 197.723 205.829 197.479L204.704 196.501C204.509 196.306 204.313 196.11 204.167 195.915C204.02 195.719 203.873 195.475 203.825 195.231C203.727 194.986 203.678 194.693 203.678 194.351C203.678 193.667 203.873 193.178 204.264 192.787C204.655 192.396 205.144 192.2 205.829 192.151V191.32H206.317V192.2C206.708 192.2 207.002 192.298 207.246 192.445C207.49 192.591 207.686 192.787 207.833 192.982C207.979 193.227 208.077 193.471 208.175 193.715C208.224 194.009 208.272 194.302 208.321 194.595L206.953 194.84C206.953 194.546 206.904 194.302 206.855 194.106C206.806 193.862 206.708 193.715 206.611 193.569C206.513 193.422 206.317 193.373 206.073 193.422C205.829 193.422 205.633 193.52 205.486 193.666C205.34 193.813 205.291 194.009 205.291 194.253C205.291 194.546 205.34 194.84 205.486 195.035C205.633 195.231 205.78 195.426 206.024 195.622L207.148 196.599C207.393 196.795 207.588 197.039 207.784 197.284C207.979 197.528 208.126 197.821 208.272 198.114C208.37 198.408 208.468 198.799 208.468 199.19C208.468 199.581 208.37 199.923 208.224 200.265C208.077 200.558 207.833 200.852 207.539 200.998C207.246 201.194 206.904 201.292 206.513 201.34V202.269H205.975V202.22Z" stroke="#003744" stroke-width="0.488789" stroke-miterlimit="10" stroke-linecap="round" stroke-linejoin="round"/>
<path d="M206.024 205.251C210.829 205.251 214.725 201.355 214.725 196.55C214.725 191.745 210.829 187.85 206.024 187.85C201.219 187.85 197.324 191.745 197.324 196.55C197.324 201.355 201.219 205.251 206.024 205.251Z" stroke="#003744" stroke-width="0.488789" stroke-miterlimit="10" stroke-linecap="round" stroke-linejoin="round"/>
<path d="M206.024 203.834C210.046 203.834 213.307 200.573 213.307 196.551C213.307 192.528 210.046 189.268 206.024 189.268C202.002 189.268 198.741 192.528 198.741 196.551C198.741 200.573 202.002 203.834 206.024 203.834Z" stroke="#003744" stroke-width="0.488789" stroke-miterlimit="10" stroke-linecap="round" stroke-linejoin="round"/>
<path d="M208.859 67.901V66.9723C208.126 66.9234 207.539 66.6791 207.148 66.2391C206.757 65.7992 206.562 65.1149 206.562 64.284L207.979 63.9907C207.979 64.3329 208.028 64.6261 208.077 64.9194C208.126 65.1638 208.224 65.4082 208.37 65.506C208.517 65.6526 208.712 65.7015 208.957 65.7015C209.201 65.7015 209.397 65.6037 209.543 65.4571C209.641 65.3104 209.69 65.1149 209.69 64.8705C209.69 64.4795 209.592 64.1862 209.397 63.893C209.201 63.6486 209.006 63.4042 208.712 63.1598L207.588 62.1822C207.393 61.9867 207.197 61.7912 207.051 61.5956C206.904 61.4001 206.757 61.1557 206.708 60.9113C206.611 60.6669 206.562 60.3737 206.562 60.0315C206.562 59.3472 206.757 58.8584 207.148 58.4674C207.539 58.0764 208.028 57.8808 208.712 57.832V56.9521H209.201V57.832C209.592 57.832 209.886 57.9297 210.13 58.0764C210.374 58.223 210.57 58.4185 210.716 58.614C210.863 58.8584 210.961 59.1028 211.059 59.3472C211.108 59.6405 211.156 59.9338 211.205 60.227L209.837 60.4714C209.837 60.1782 209.788 59.9338 209.739 59.7382C209.69 59.4939 209.592 59.3472 209.495 59.2006C209.397 59.0539 209.201 59.0051 208.957 59.0539C208.712 59.0539 208.517 59.1517 208.37 59.2983C208.224 59.445 208.175 59.6405 208.175 59.8849C208.175 60.1782 208.224 60.4714 208.37 60.6669C208.517 60.8625 208.664 61.058 208.908 61.2535L210.032 62.2311C210.277 62.4266 210.472 62.671 210.668 62.9154C210.863 63.1598 211.01 63.453 211.156 63.7463C211.254 64.0396 211.352 64.4306 211.352 64.8216C211.352 65.2127 211.254 65.5548 211.108 65.897C210.961 66.1903 210.716 66.4835 210.423 66.6302C210.13 66.8257 209.788 66.9234 209.397 66.9723V67.901H208.859Z" stroke="#003744" stroke-width="0.488789" stroke-miterlimit="10" stroke-linecap="round" stroke-linejoin="round"/>
<path d="M208.908 70.9312C213.713 70.9312 217.608 67.0358 217.608 62.2307C217.608 57.4256 213.713 53.5303 208.908 53.5303C204.103 53.5303 200.208 57.4256 200.208 62.2307C200.208 67.0358 204.103 70.9312 208.908 70.9312Z" stroke="#003744" stroke-width="0.488789" stroke-miterlimit="10" stroke-linecap="round" stroke-linejoin="round"/>
<path d="M208.908 69.5142C212.93 69.5142 216.191 66.2535 216.191 62.2312C216.191 58.2089 212.93 54.9482 208.908 54.9482C204.886 54.9482 201.625 58.2089 201.625 62.2312C201.625 66.2535 204.886 69.5142 208.908 69.5142Z" stroke="#003744" stroke-width="0.488789" stroke-miterlimit="10" stroke-linecap="round" stroke-linejoin="round"/>
<path d="M130.702 8.70801H105.187" stroke="#003744" stroke-width="1.95516" stroke-miterlimit="10" stroke-linecap="round" stroke-linejoin="round"/>
<path d="M130.702 39.7949H105.187" stroke="#003744" stroke-width="1.95516" stroke-miterlimit="10" stroke-linecap="round" stroke-linejoin="round"/>
<path d="M130.702 70.833H105.382" stroke="#003744" stroke-width="1.95516" stroke-miterlimit="10" stroke-linecap="round" stroke-linejoin="round"/>
<path d="M130.702 101.871H105.187" stroke="#003744" stroke-width="1.95516" stroke-miterlimit="10" stroke-linecap="round" stroke-linejoin="round"/>
<path d="M130.702 132.909H105.187" stroke="#003744" stroke-width="1.95516" stroke-miterlimit="10" stroke-linecap="round" stroke-linejoin="round"/>
<path d="M130.702 163.947H105.187" stroke="#003744" stroke-width="1.95516" stroke-miterlimit="10" stroke-linecap="round" stroke-linejoin="round"/>
<path d="M130.702 194.985H105.187" stroke="#003744" stroke-width="1.95516" stroke-miterlimit="10" stroke-linecap="round" stroke-linejoin="round"/>
<path d="M105.187 2.10938V218.35" stroke="#003744" stroke-width="1.95516" stroke-miterlimit="10" stroke-linecap="round" stroke-linejoin="round"/>
<path d="M130.995 2.10938V218.35" stroke="#003744" stroke-width="1.95516" stroke-miterlimit="10" stroke-linecap="round" stroke-linejoin="round"/>
<path d="M102.889 182.13L104.014 185.894C104.014 185.894 105.48 188.142 106.751 188.826C108.022 189.511 114.034 190.733 114.229 191.417C114.474 192.101 113.643 192.541 112.958 192.883C112.274 193.225 107.973 195.376 105.822 195.718C103.671 196.06 102.401 195.376 101.521 194.936C100.592 194.496 99.6145 194.252 99.6145 194.252L101.228 197.673L99.8589 198.26C99.8589 198.26 97.9527 195.181 97.1217 194.154C96.3397 193.128 95.9975 190.537 96.4374 188.826C96.8773 187.116 97.024 186.578 97.1217 185.991C97.2195 185.405 97.2195 183.254 97.2195 183.254L102.889 182.13Z" fill="white" stroke="#003744" stroke-width="0.488789" stroke-miterlimit="10" stroke-linecap="round" stroke-linejoin="round"/>
<path d="M114.278 191.417C114.132 190.928 111.248 190.244 109.097 189.608L109.977 191.564C109.977 191.564 108.511 192.248 106.556 192.15C104.649 192.052 103.134 191.221 100.299 190.439C98.9304 190.048 97.4152 189.999 96.2421 190.048C96.1443 191.612 96.4865 193.421 97.1219 194.203C97.904 195.229 99.8591 198.309 99.8591 198.309L101.228 197.722L99.6147 194.301C99.6147 194.301 100.641 194.545 101.521 194.985C102.45 195.425 103.672 196.109 105.822 195.767C107.973 195.425 112.274 193.274 112.959 192.932C113.692 192.541 114.474 192.101 114.278 191.417Z" fill="#003744" stroke="#003744" stroke-width="0.488789" stroke-miterlimit="10" stroke-linecap="round" stroke-linejoin="round"/>
<path d="M97.0241 85.8877C97.0241 85.8877 101.472 98.9384 102.352 109.496C103.281 120.054 103.476 145.471 103.476 145.471L104.845 183.352C104.845 183.352 102.938 184.721 100.299 185.161C97.6595 185.601 95.3134 185.943 95.3134 185.943L93.7003 150.994C93.7003 150.994 90.621 139.166 90.1811 137.504C89.7412 135.793 89.1546 133.74 88.5681 131.589C87.9815 129.439 82.556 112.429 82.556 112.429C82.556 112.429 80.503 107.541 79.6232 104.266C78.6945 100.991 82.4582 87.2563 82.4582 87.2563L97.0241 85.8877Z" fill="#00DEDE" stroke="#003744" stroke-width="0.488789" stroke-miterlimit="10" stroke-linecap="round" stroke-linejoin="round"/>
<path d="M103.33 112.429L86.0264 122.693L82.6049 112.429H103.33Z" fill="#003744" stroke="#003744" stroke-width="0.488789" stroke-miterlimit="10" stroke-linecap="round" stroke-linejoin="round"/>
<path d="M97.1707 57.4887L82.1649 57.0488L88.0304 82.5147L87.1017 88.6246L96.5842 88.1358L95.6555 77.8712L97.1707 57.4887Z" fill="white" stroke="#003744" stroke-width="0.488789" stroke-miterlimit="10" stroke-linecap="round" stroke-linejoin="round"/>
<path d="M101.716 64.1367L102.841 76.3564L111.883 71.6641L113.838 78.1161C113.838 78.1161 104.405 84.3237 102.499 85.2524C100.592 86.1811 99.5169 86.1811 98.8326 85.839C98.1483 85.4968 98.3438 82.2708 98.3438 82.2708L101.716 64.1367Z" fill="#00DEDE" stroke="#003744" stroke-width="0.488789" stroke-miterlimit="10" stroke-linecap="round" stroke-linejoin="round"/>
<path d="M110.515 147.621L110.27 150.212C110.27 150.212 111.199 153.829 113.447 157.495C115.696 161.112 118.775 162.138 118.678 162.823C118.58 163.507 118.433 163.849 114.572 163.605C110.71 163.36 106.751 162.676 106.262 161.894C105.822 161.112 104.209 157.935 103.525 157.25C102.841 156.566 102.841 156.566 102.841 156.566L102.596 162.236L100.983 161.894C100.983 161.894 100.641 157.935 100.983 155.54C101.326 153.144 101.765 152.362 102.694 150.896C103.623 149.43 103.623 149.43 103.623 149.43L104.063 146.595L110.515 147.621Z" fill="white" stroke="#003744" stroke-width="0.488789" stroke-miterlimit="10" stroke-linecap="round" stroke-linejoin="round"/>
<path d="M114.572 159.01L111.737 160.672C111.737 160.672 108.657 159.059 106.849 157.055C105.48 155.539 103.33 152.802 102.352 151.58C101.717 152.704 101.325 153.584 101.032 155.588C100.69 157.983 101.032 161.942 101.032 161.942L102.645 162.285L102.89 156.615C102.89 156.615 102.89 156.615 103.574 157.299C104.258 157.983 105.822 161.16 106.311 161.942C106.751 162.724 110.759 163.409 114.621 163.653C118.482 163.898 118.58 163.555 118.726 162.871C118.775 162.236 116.625 161.454 114.572 159.01Z" fill="#003744" stroke="#003744" stroke-width="0.488789" stroke-miterlimit="10" stroke-linecap="round" stroke-linejoin="round"/>
<path d="M85.782 96.1029C85.782 96.1029 100.641 98.0092 107.68 100.991C114.718 103.924 125.276 105.097 125.178 107.932C125.081 110.767 117.211 134.082 116.185 138.774C114.816 145.177 113.692 151.287 113.692 151.287C113.692 151.287 110.173 151.971 106.898 150.701C103.623 149.43 102.45 148.99 102.45 148.99C102.45 148.99 103.623 132.811 104.405 128.656C106.36 118.832 110.612 114.139 110.612 114.139C110.612 114.139 91.3053 115.263 85.4887 114.579C79.721 113.895 77.1793 112.428 76.9838 110.718C76.7394 109.007 76.2017 104.363 78.2546 100.16C80.3075 96.0051 84.0712 95.5163 85.782 96.1029Z" fill="#00DEDE" stroke="#003744" stroke-width="0.488789" stroke-miterlimit="10" stroke-linecap="round" stroke-linejoin="round"/>
<path d="M107.044 100.697L100.006 84.5672C100.006 84.5672 102.89 64.5757 103.476 60.5188C104.063 56.4618 100.152 56.3641 98.4905 56.3152C96.8286 56.2663 85.2443 56.1686 85.2443 56.1686C85.2443 56.1686 71.4116 51.134 70.2385 50.9385C69.0654 50.7919 66.0349 51.6717 66.0349 51.6717L60.5605 50.0098L72.2425 39.7941L68.9188 33.9775C68.9188 33.9775 47.9497 48.0058 47.3632 49.2278C46.7766 50.4497 49.856 51.7206 54.4017 55.2887C58.9475 58.8569 70.4829 66.3843 70.4829 66.3843L76.886 84.1273C76.886 84.1273 69.9941 98.1556 67.5013 101.528C65.0085 104.95 67.5013 108.909 71.7049 113.943C75.9085 118.978 78.1569 118.587 78.1569 118.587C78.1569 118.587 78.5479 117.609 79.0856 115.703C79.5744 113.797 90.1322 84.0295 90.1322 81.7811C90.1322 79.5327 84.0224 57.8304 84.0224 57.8304C84.0224 57.8304 90.0834 57.8305 92.234 58.5148C94.3847 59.1991 94.9712 60.2744 94.9712 60.2744C94.9712 60.2744 94.2381 80.7547 94.2869 81.83C94.3358 82.5632 97.3174 92.2412 99.2726 98.4488C102.059 99.1331 104.845 99.8663 107.044 100.697Z" fill="#00DEDE" stroke="#003744" stroke-width="0.488789" stroke-miterlimit="10" stroke-linecap="round" stroke-linejoin="round"/>
<path d="M96.9753 58.6123C96.9753 58.6123 97.7574 67.9971 96.7309 72.9338C95.6556 77.8706 94.8735 80.9989 94.8735 80.9989" stroke="#003744" stroke-width="0.488789" stroke-miterlimit="10" stroke-linecap="round" stroke-linejoin="round"/>
<path d="M67.1592 53.5781L70.4829 65.4068L65.9861 55.1911" stroke="#003744" stroke-width="0.488789" stroke-miterlimit="10" stroke-linecap="round" stroke-linejoin="round"/>
<path d="M60.5116 50.0098C60.5116 50.0098 55.3793 51.7205 54.9883 51.8672L60.5116 50.0098Z" fill="#00DEDE"/>
<path d="M60.5116 50.0098C60.5116 50.0098 55.3793 51.7205 54.9883 51.8672" stroke="#003744" stroke-width="0.488789" stroke-miterlimit="10" stroke-linecap="round" stroke-linejoin="round"/>
<path d="M72.7313 97.178L80.3076 102.115L80.5519 99.8663L74.3443 96.0049" stroke="#003744" stroke-width="0.488789" stroke-miterlimit="10" stroke-linecap="round" stroke-linejoin="round"/>
<path d="M78.939 54.5068C78.939 54.5068 78.939 60.2257 82.2627 66.971C85.5865 73.7162 88.9103 78.8974 88.9103 78.8974" stroke="#003744" stroke-width="0.488789" stroke-miterlimit="10" stroke-linecap="round" stroke-linejoin="round"/>
<path d="M83.9246 28.6502C83.9246 28.6502 81.1874 26.9883 78.9878 29.7255C76.7882 32.4627 77.7658 35.4443 77.5703 37.7417C77.3748 40.039 72.8291 40.3811 74.9308 46.6376C77.0326 52.8941 80.6497 55.1914 83.3869 54.4582C86.1241 53.6762 87.9815 54.9959 92.2829 56.56C96.5842 58.0753 99.4192 58.6618 101.521 56.9999C103.623 55.3381 102.841 52.5031 106.995 53.7251C111.15 54.947 113.252 57 115.696 54.8004C118.091 52.6008 117.798 50.4991 120.633 50.6457C123.468 50.7434 127.231 52.4053 130.311 51.6233C133.39 50.8412 135.345 46.2466 134.172 44.5847C132.95 42.9228 132.07 42.4829 132.07 43.1672C132.07 43.8026 133.39 44.4869 132.168 45.269C130.946 46.0511 130.506 46.5887 129.529 43.8515C128.551 41.1143 129.529 37.2529 124.787 33.6358C120.046 30.0188 115.354 30.3609 112.128 31.9739C108.951 33.6358 104.112 33.3914 100.152 29.139C96.1932 24.8376 91.4519 24.3 88.3726 25.2775C85.3909 26.2551 83.9246 28.6502 83.9246 28.6502Z" fill="#003744" stroke="#003744" stroke-width="0.488789" stroke-miterlimit="10" stroke-linecap="round" stroke-linejoin="round"/>
<path d="M94.1892 49.5703L92.4784 67.3622L92.1362 69.5129C92.1362 69.5129 90.0345 66.3358 89.4479 65.1627C88.8614 63.9896 88.4215 62.8165 88.4215 62.8165L89.2524 59.4439L84.5111 56.2667L83.778 52.3075C83.778 52.3075 85.1466 53.8228 87.6883 52.8941C90.2789 51.9654 94.1892 49.5703 94.1892 49.5703Z" fill="white" stroke="#003744" stroke-width="0.488789" stroke-miterlimit="10" stroke-linecap="round" stroke-linejoin="round"/>
<path d="M92.2829 52.0635L84.8533 56.8536L84.3645 53.2854L92.2829 52.0635Z" fill="#003744" stroke="#003744" stroke-width="0.488789" stroke-miterlimit="10" stroke-linecap="round" stroke-linejoin="round"/>
<path d="M81.8228 35.249C81.8228 35.249 81.0407 39.7458 80.7475 41.5055C80.4542 43.2651 80.0632 46.931 80.552 48.3485C81.0407 49.766 84.4134 54.7517 85.8798 54.8006C87.3461 54.8494 93.1138 52.0145 93.7981 50.988C94.4824 49.9615 95.0201 47.3221 95.0201 47.3221C95.0201 47.3221 95.4111 47.9575 96.2421 47.0777C97.073 46.1979 97.5618 43.3629 97.5618 43.3629C97.5618 43.3629 95.1667 42.0432 92.625 39.1593C90.0833 36.3243 89.6923 35.2979 87.5416 33.9781C85.391 32.6584 82.6537 33.636 81.8228 35.249Z" fill="white" stroke="#003744" stroke-width="0.488789" stroke-miterlimit="10" stroke-linecap="round" stroke-linejoin="round"/>
<path d="M82.1649 37.7422L85.1465 38.0355" stroke="#003744" stroke-width="0.488789" stroke-miterlimit="10" stroke-linecap="round" stroke-linejoin="round"/>
<path d="M88.4215 38.2309C88.4215 38.2309 90.2789 36.7645 91.9897 39.1107" stroke="#003744" stroke-width="0.488789" stroke-miterlimit="10" stroke-linecap="round" stroke-linejoin="round"/>
<path d="M83.0937 43.5589C84.4704 43.5589 85.5865 42.4428 85.5865 41.0661C85.5865 39.6893 84.4704 38.5732 83.0937 38.5732C81.7169 38.5732 80.6008 39.6893 80.6008 41.0661C80.6008 42.4428 81.7169 43.5589 83.0937 43.5589Z" stroke="#003744" stroke-width="0.488789" stroke-miterlimit="10" stroke-linecap="round" stroke-linejoin="round"/>
<path d="M92.2829 41.9941C92.2829 40.4789 91.012 39.208 89.4968 39.208C87.9815 39.208 86.7107 40.4789 86.7107 41.9941C86.7107 43.5094 87.9815 44.7802 89.4968 44.7802C91.012 44.7802 92.2829 43.5094 92.2829 41.9941Z" stroke="#003744" stroke-width="0.488789" stroke-miterlimit="10" stroke-linecap="round" stroke-linejoin="round"/>
<path d="M83.778 40.6746C83.778 41.1146 83.5336 41.4567 83.2892 41.4567C82.9959 41.4567 82.8004 41.1146 82.8004 40.6746C82.8004 40.2347 83.0448 39.8926 83.2892 39.8926C83.5825 39.8926 83.778 40.2347 83.778 40.6746Z" fill="#003744"/>
<path d="M89.5457 41.4569C89.5457 41.8968 89.3013 42.2389 89.0569 42.2389C88.7636 42.2389 88.5681 41.8968 88.5681 41.4569C88.5681 41.017 88.8125 40.6748 89.0569 40.6748C89.3502 40.6748 89.5457 41.017 89.5457 41.4569Z" fill="#003744"/>
<path d="M85.6842 42.2871C85.6842 42.2871 85.4887 43.0692 84.6088 43.6068C83.729 44.1934 82.507 44.2911 82.8492 44.8288C83.1425 45.3176 84.2667 45.8553 84.8532 45.7086" stroke="#003744" stroke-width="0.488789" stroke-miterlimit="10" stroke-linecap="round" stroke-linejoin="round"/>
<path d="M85.5864 41.0659C85.5864 41.0659 86.0752 40.3815 86.6618 41.0659" stroke="#003744" stroke-width="0.488789" stroke-miterlimit="10" stroke-linecap="round" stroke-linejoin="round"/>
<path d="M92.2828 41.9941L97.5618 43.3628" stroke="#003744" stroke-width="0.488789" stroke-miterlimit="10" stroke-linecap="round" stroke-linejoin="round"/>
<path d="M85.5864 47.4684C85.5864 47.4684 88.2259 47.7617 89.399 45.9043" stroke="#003744" stroke-width="0.488789" stroke-miterlimit="10" stroke-linecap="round" stroke-linejoin="round"/>
<path d="M69.3586 34.8085C69.3586 34.8085 72.1936 32.9022 72.9757 32.7067C73.7577 32.5112 82.1649 32.56 82.6537 32.6578C83.1425 32.7067 89.6434 36.226 89.6434 36.226C89.6434 36.226 89.9367 36.7148 89.2035 36.9103C88.4214 37.1058 87.7371 36.7636 86.2707 36.4704C84.8044 36.1771 82.2138 35.8349 82.2138 35.8349C82.2138 35.8349 80.7474 36.0793 80.5519 37.1547C80.3564 38.23 81.0407 38.8654 81.0407 38.8654L80.7963 40.1363C80.7963 40.1363 79.9165 39.8919 78.499 39.0121C77.0815 38.1322 75.0286 36.9103 74.3932 36.9103C73.7577 36.9103 71.2649 38.1811 71.2649 38.1811L69.3586 34.8085Z" fill="white" stroke="#003744" stroke-width="0.488789" stroke-miterlimit="10" stroke-linecap="round" stroke-linejoin="round"/>
<path d="M86.6617 34.5152C86.6617 34.5152 90.2788 35.4439 90.2788 35.9327C90.2788 36.4215 89.5945 36.5193 87.9326 36.5193C86.2707 36.5193 82.7514 35.1995 82.7514 35.1995L80.5519 35.004C80.5519 35.004 81.6272 33.782 82.8492 33.7332C83.9734 33.6354 86.6617 34.5152 86.6617 34.5152Z" fill="white" stroke="#003744" stroke-width="0.488789" stroke-miterlimit="10" stroke-linecap="round" stroke-linejoin="round"/>
<path d="M77.277 33.0973C77.277 33.0973 82.4582 32.853 83.0936 33.0485C83.7291 33.244 86.7107 33.7328 87.5416 33.9772C88.3726 34.2216 89.4479 33.7817 89.2524 34.2704C89.0569 34.7592 87.9326 34.9547 87.0528 35.0525C86.173 35.1014 83.1425 34.5637 83.1425 34.5637C83.1425 34.5637 80.7963 35.3458 78.5968 35.7857C76.3972 36.2256 73.3178 34.9059 73.4156 34.6615" fill="white"/>
<path d="M77.277 33.0973C77.277 33.0973 82.4582 32.853 83.0936 33.0485C83.7291 33.244 86.7107 33.7328 87.5416 33.9772C88.3726 34.2216 89.4479 33.7817 89.2524 34.2704C89.0569 34.7592 87.9326 34.9547 87.0528 35.0525C86.173 35.1014 83.1425 34.5637 83.1425 34.5637C83.1425 34.5637 80.7963 35.3458 78.5968 35.7857C76.3972 36.2256 73.3178 34.9059 73.4156 34.6615" stroke="#003744" stroke-width="0.488789" stroke-miterlimit="10" stroke-linecap="round" stroke-linejoin="round"/>
<path d="M92.4784 67.3625L95.46 59.6396L93.4071 57.7822L92.4784 67.3625Z" fill="white" stroke="#003744" stroke-width="0.488789" stroke-miterlimit="10" stroke-linecap="round" stroke-linejoin="round"/>
<path d="M95.4601 59.6396L97.513 65.5051L93.847 64.0388L95.4601 59.6396Z" fill="white" stroke="#003744" stroke-width="0.488789" stroke-miterlimit="10" stroke-linecap="round" stroke-linejoin="round"/>
<path d="M90.0344 59.248L90.0832 66.0422L87.1505 62.7673L90.0344 59.248Z" fill="white" stroke="#003744" stroke-width="0.488789" stroke-miterlimit="10" stroke-linecap="round" stroke-linejoin="round"/>
<path d="M90.0344 59.2481L85.5865 64.918L81.9205 55.7777L83.3869 54.5068L90.0344 59.2481Z" fill="white" stroke="#003744" stroke-width="0.488789" stroke-miterlimit="10" stroke-linecap="round" stroke-linejoin="round"/>
<path d="M112.03 72.6408C112.03 72.6408 113.839 71.321 114.278 70.7345C114.767 70.1479 115.354 67.0197 116.38 66.9219C117.407 66.8242 118.091 67.2152 118.091 67.2152C118.091 67.2152 119.704 66.8242 120.095 67.0197C120.486 67.2152 120.975 67.4107 120.975 67.4107C120.975 67.4107 121.561 67.313 121.855 67.4107C122.148 67.5085 122.637 67.8995 122.979 68.5349C123.37 69.2192 123.077 70.8323 123.077 70.8323C123.077 70.8323 123.859 70.2457 124.299 69.9524C124.787 69.6592 126.498 69.9524 125.374 70.8323C124.25 71.7121 123.272 72.4453 122.392 73.3251C121.513 74.2049 117.113 74.7426 117.113 74.7426L113.301 76.7466L112.03 72.6408Z" fill="white" stroke="#003744" stroke-width="0.488789" stroke-miterlimit="10" stroke-linecap="round" stroke-linejoin="round"/>
<path d="M123.126 70.7832C123.126 70.7832 121.61 71.9563 120.095 72.2007L123.126 70.7832Z" fill="white"/>
<path d="M123.126 70.7832C123.126 70.7832 121.61 71.9563 120.095 72.2007" stroke="#003744" stroke-width="0.488789" stroke-miterlimit="10" stroke-linecap="round" stroke-linejoin="round"/>
<path d="M121.855 71.3695C121.855 71.3695 122.197 70.7341 122.099 70.0498L121.855 71.3695Z" fill="white"/>
<path d="M121.855 71.3695C121.855 71.3695 122.197 70.7341 122.099 70.0498" stroke="#003744" stroke-width="0.488789" stroke-miterlimit="10" stroke-linecap="round" stroke-linejoin="round"/>
<path d="M14.3699 172.452C14.3699 172.452 23.9013 154.905 41.0578 151.483C58.2143 148.061 61.2936 162.53 63.9331 166.342C66.6214 170.155 71.5582 161.748 79.9654 160.623C88.3726 159.499 92.9183 162.53 94.0914 169.373C95.2156 176.216 100.201 174.309 104.014 172.061C107.826 169.764 113.154 167.124 118.531 172.843C123.859 178.562 125.032 178.953 127.671 177.78C130.36 176.656 134.514 172.452 139.5 176.998C144.437 181.592 144.437 181.592 144.437 181.592H0.243869C0.243869 181.592 -0.147163 175.092 4.44746 172.843C9.04207 170.546 10.9484 175.874 14.3699 172.452Z" fill="white" stroke="#003744" stroke-width="0.488789" stroke-miterlimit="10" stroke-linecap="round" stroke-linejoin="round"/>
<path d="M163.499 157.495C163.499 157.495 168.045 149.137 176.208 147.524C184.371 145.911 185.837 152.803 187.108 154.611C188.379 156.42 190.725 152.412 194.733 151.874C198.741 151.336 200.892 152.803 201.429 156.029C201.967 159.304 204.313 158.375 206.171 157.3C207.979 156.224 210.521 154.953 213.063 157.642C215.604 160.379 216.142 160.526 217.413 159.988C218.684 159.45 220.688 157.446 223.034 159.646C225.38 161.845 225.38 161.845 225.38 161.845H156.754C156.754 161.845 156.559 158.766 158.758 157.691C160.958 156.566 161.838 159.108 163.499 157.495Z" fill="white" stroke="#003744" stroke-width="0.488789" stroke-miterlimit="10" stroke-linecap="round" stroke-linejoin="round"/>
</svg>
