<svg width="74" height="72" viewBox="0 0 74 72" fill="none" xmlns="http://www.w3.org/2000/svg">
<g id="Group 36">
<circle id="Ellipse 19" cx="37" cy="32" r="27" fill="#003744" stroke="#008080" stroke-width="4"/>
<g id="Vector" filter="url(#filter0_d_103_5982)">
<path d="M37.8947 27.3642C38.9684 26.9853 39.8274 26.1263 40.2063 25.0526H44.2105L40.4211 33.8947C40.4211 35.9916 42.4042 37.6842 44.8421 37.6842C47.28 37.6842 49.2632 35.9916 49.2632 33.8947L45.4737 25.0526H48V22.5263H40.2063C39.6884 21.0484 38.2863 20 36.6316 20C34.9768 20 33.5747 21.0484 33.0568 22.5263H25.2632V25.0526H27.7895L24 33.8947C24 35.9916 25.9832 37.6842 28.4211 37.6842C30.8589 37.6842 32.8421 35.9916 32.8421 33.8947L29.0526 25.0526H33.0568C33.4358 26.1263 34.2947 26.9853 35.3684 27.3642V41.4737H24V44H49.2632V41.4737H37.8947V27.3642ZM47.2042 33.8947H42.48L44.8421 28.3874L47.2042 33.8947ZM30.7832 33.8947H26.0589L28.4211 28.3874L30.7832 33.8947ZM36.6316 25.0526C35.9368 25.0526 35.3684 24.4842 35.3684 23.7895C35.3684 23.0947 35.9368 22.5263 36.6316 22.5263C37.3263 22.5263 37.8947 23.0947 37.8947 23.7895C37.8947 24.4842 37.3263 25.0526 36.6316 25.0526Z" fill="white"/>
</g>
</g>
<defs>
<filter id="filter0_d_103_5982" x="0" y="0" width="73.2632" height="72" filterUnits="userSpaceOnUse" color-interpolation-filters="sRGB">
<feFlood flood-opacity="0" result="BackgroundImageFix"/>
<feColorMatrix in="SourceAlpha" type="matrix" values="0 0 0 0 0 0 0 0 0 0 0 0 0 0 0 0 0 0 127 0" result="hardAlpha"/>
<feOffset dy="4"/>
<feGaussianBlur stdDeviation="12"/>
<feComposite in2="hardAlpha" operator="out"/>
<feColorMatrix type="matrix" values="0 0 0 0 1 0 0 0 0 1 0 0 0 0 1 0 0 0 0.25 0"/>
<feBlend mode="normal" in2="BackgroundImageFix" result="effect1_dropShadow_103_5982"/>
<feBlend mode="normal" in="SourceGraphic" in2="effect1_dropShadow_103_5982" result="shape"/>
</filter>
</defs>
</svg>
