<svg width="219" height="220" viewBox="0 0 219 220" fill="none" xmlns="http://www.w3.org/2000/svg">
<path d="M208.02 143.27C201.328 161.225 187.615 180.64 168.341 186.389C139.218 195.06 135.73 218.529 83.6101 216.361C75.4575 216.031 67.9646 214.9 61.0844 213.062C57.3615 212.072 53.8271 210.894 50.4813 209.528C19.9914 197.228 4.11032 170.037 2.79083 141.621C1.0472 104.251 27.1073 86.4373 44.0723 76.0227C61.0373 65.6081 81.4424 25.1749 132.714 26.9185C140.537 27.2012 148.313 28.238 155.9 30.3115C173.148 34.9769 190.678 45.2972 200.904 60.4243C201.658 61.5553 202.412 62.7334 203.119 63.9116C216.738 87.0028 217.162 118.812 208.02 143.27Z" fill="#00DFDF"/>
<path opacity="0.8" d="M208.02 143.27C201.328 161.225 187.615 180.64 168.341 186.389C139.218 195.06 135.73 218.529 83.6101 216.361C75.4575 216.031 67.9646 214.9 61.0844 213.062C57.3615 212.072 53.8271 210.894 50.4813 209.528C19.9914 197.228 4.11032 170.037 2.79083 141.621C1.0472 104.251 27.1073 86.4373 44.0723 76.0227C61.0373 65.6081 81.4424 25.1749 132.714 26.9185C140.537 27.2012 148.313 28.238 155.9 30.3115C173.148 34.9769 190.678 45.2972 200.904 60.4243C201.658 61.5553 202.412 62.7334 203.119 63.9116C216.738 87.0028 217.162 118.812 208.02 143.27Z" fill="white"/>
<g opacity="0.3">
<path d="M58.3195 59.3514C64.411 53.2599 64.411 43.3837 58.3195 37.2922C52.228 31.2007 42.3518 31.2007 36.2603 37.2922C30.1688 43.3837 30.1688 53.2599 36.2603 59.3514C42.3518 65.4429 52.228 65.4429 58.3195 59.3514Z" fill="black"/>
<path d="M54.8254 55.1695C58.606 51.0089 58.2979 44.5712 54.1373 40.7906C49.9767 37.01 43.539 37.3181 39.7585 41.4787C35.9779 45.6394 36.2859 52.077 40.4466 55.8576C44.6072 59.6382 51.0448 59.3301 54.8254 55.1695Z" fill="white"/>
<path d="M47.2768 53.6859C50.2438 53.6859 52.649 51.2807 52.649 48.3136C52.649 45.3466 50.2438 42.9414 47.2768 42.9414C44.3098 42.9414 41.9045 45.3466 41.9045 48.3136C41.9045 51.2807 44.3098 53.6859 47.2768 53.6859Z" fill="black"/>
</g>
<path d="M41.1034 51.3768L40.6792 54.6284L46.7584 48.5493L38.1816 48.6436L40.8206 50.6228L25.6935 56.9376L21.4994 56.1836L17.4938 57.8801L20.1328 59.3881C20.0856 59.4823 20.0385 59.6237 20.0856 59.7179C20.1328 59.8593 20.227 59.9064 20.3684 59.9536L19.5673 62.8753L23.5729 61.1788L25.9291 57.6916L41.1034 51.3768Z" fill="#263238"/>
<path opacity="0.3" d="M192.846 11.8389V9.62402H190.725V11.8389H184.552V9.62402H182.431V11.8389H176.258V9.62402H174.137V11.8389H167.964V9.62402H165.843V11.8389H159.717V9.62402H157.596V11.8389H149.962V56.7018H198.878V11.8389H192.846ZM157.691 53.4031H153.355V49.0676H157.691V53.4031ZM157.691 47.2297H153.355V42.8942H157.691V47.2297ZM157.691 41.1035H153.355V36.768H157.691V41.1035ZM157.691 34.9301H153.355V30.5946H157.691V34.9301ZM164.005 53.4031H159.67V49.0676H164.005V53.4031ZM164.005 47.2297H159.67V42.8942H164.005V47.2297ZM164.005 41.1035H159.67V36.768H164.005V41.1035ZM164.005 34.9301H159.67V30.5946H164.005V34.9301ZM170.32 53.4031H165.985V49.0676H170.32V53.4031ZM170.32 47.2297H165.985V42.8942H170.32V47.2297ZM170.32 41.1035H165.985V36.768H170.32V41.1035ZM170.32 34.9301H165.985V30.5946H170.32V34.9301ZM176.635 53.4031H172.299V49.0676H176.635V53.4031ZM176.635 47.2297H172.299V42.8942H176.635V47.2297ZM176.635 41.1035H172.299V36.768H176.635V41.1035ZM176.635 34.9301H172.299V30.5946H176.635V34.9301ZM182.95 53.4031H178.614V49.0676H182.95V53.4031ZM182.95 47.2297H178.614V42.8942H182.95V47.2297ZM182.95 41.1035H178.614V36.768H182.95V41.1035ZM182.95 34.9301H178.614V30.5946H182.95V34.9301ZM189.264 53.4031H184.929V49.0676H189.264V53.4031ZM189.264 47.2297H184.929V42.8942H189.264V47.2297ZM189.264 41.1035H184.929V36.768H189.264V41.1035ZM189.264 34.9301H184.929V30.5946H189.264V34.9301ZM195.579 53.4031H191.243V49.0676H195.579V53.4031ZM195.579 47.2297H191.243V42.8942H195.579V47.2297ZM195.579 41.1035H191.243V36.768H195.579V41.1035ZM195.579 34.9301H191.243V30.5946H195.579V34.9301ZM196.003 25.7408H152.931V15.5618H196.003V25.7408Z" fill="black"/>
<path d="M165.089 70.9334C165.089 70.9334 165.796 63.8176 162.968 60.6131C160.141 57.4086 155.853 61.3199 156.936 65.6083C157.973 69.8967 165.089 70.9334 165.089 70.9334Z" fill="#00DFDF"/>
<path d="M156.889 102.648C156.889 102.648 158.02 91.5739 153.543 86.5786C149.114 81.5834 142.469 87.7096 144.118 94.3543C145.815 100.999 156.889 102.648 156.889 102.648Z" fill="#00DFDF"/>
<path d="M154.486 120.603C154.486 120.603 153.261 109.529 147.888 105.57C142.516 101.612 137.285 108.963 140.301 115.137C143.317 121.31 154.486 120.603 154.486 120.603Z" fill="#00DFDF"/>
<path d="M165.796 129.887C159.246 131.159 153.355 140.631 153.355 140.631C153.355 140.631 163.157 146.051 168.529 141.809C173.901 137.521 172.346 128.614 165.796 129.887Z" fill="#00DFDF"/>
<path d="M167.964 146.569C158.586 148.36 150.198 161.932 150.198 161.932C150.198 161.932 164.241 169.707 171.922 163.581C179.603 157.502 177.341 144.778 167.964 146.569Z" fill="#00DFDF"/>
<path d="M152.648 140.773C152.931 140.773 153.119 140.773 153.119 140.773C153.119 140.773 153.072 140.254 152.931 139.359C153.685 135.165 154.439 129.887 155.334 123.572C155.476 122.724 155.57 121.828 155.711 120.933C158.256 122.158 165.607 125.127 169.99 121.64C175.362 117.351 173.807 108.492 167.21 109.764C162.45 110.66 158.067 115.891 156.041 118.718C156.607 114.712 157.266 110.424 157.973 105.9C158.115 105.146 158.209 104.345 158.397 103.544C160.895 105.382 167.068 109.293 171.875 106.937C178.001 103.874 178.331 94.8729 171.639 94.7315C166.833 94.6372 161.508 98.7842 158.869 101.14C159.811 96.3809 161.178 90.9144 162.591 85.495C164.147 86.626 168.199 89.3121 171.357 87.757C175.315 85.7778 175.504 80.0285 171.215 79.9343C168.105 79.8871 164.665 82.5733 162.968 84.0813C164.099 79.7458 165.278 75.5516 166.361 71.8288C168.105 73.1011 171.828 75.2218 174.703 73.808C178.661 71.8288 178.85 66.0795 174.561 65.9853C171.828 65.9382 168.859 68.0117 167.021 69.5196C168.576 64.1003 169.802 60.1418 170.131 59.105C171.734 58.0683 176.54 54.7695 177.342 52.7903C178.284 50.434 177.153 47.7008 174.797 46.7583C172.441 45.8158 169.707 46.9468 168.765 49.303C168.011 51.188 169 56.5603 169.472 58.6338L169.189 58.5395C169.142 58.6809 167.54 63.8175 165.513 70.9805C165.419 71.0748 165.372 71.1219 165.372 71.1219C165.372 71.1219 165.419 71.1219 165.466 71.169C164.335 75.0333 163.11 79.463 161.932 83.987C161.979 81.8193 161.885 77.2481 159.717 74.8448C156.889 71.6403 152.601 75.5516 153.685 79.84C154.627 83.6571 160.424 84.9295 161.649 85.118C160.047 91.1971 158.539 97.4176 157.549 102.554C157.408 102.696 157.313 102.79 157.313 102.79C157.313 102.79 157.361 102.837 157.455 102.931C157.266 103.968 157.078 104.958 156.936 105.9C155.9 112.309 155.051 118.341 154.297 123.619C153.591 128.614 152.978 132.903 152.365 136.578C151.47 133.044 149.773 128.237 146.616 125.928C141.244 121.97 136.013 129.321 139.029 135.495C141.338 140.207 148.407 140.914 151.611 141.008C151.47 141.621 151.376 142.233 151.234 142.799C150.763 145.108 149.962 151.376 149.208 158.303C148.171 153.214 145.674 144.684 140.443 140.867C132.761 135.212 125.268 145.721 129.557 154.533C133.185 161.932 145.061 162.45 148.737 162.403C147.7 172.064 146.805 181.63 146.757 182.337L147.888 182.431C147.936 182.101 151.046 148.831 152.318 143.035C152.365 142.186 152.507 141.479 152.648 140.773Z" fill="#00DFDF"/>
<path d="M68.2473 105.429C68.2473 105.429 67.8232 101.282 69.4725 99.4437C71.1219 97.5587 73.6195 99.8678 73.0069 102.365C72.3943 104.816 68.2473 105.429 68.2473 105.429Z" fill="#00DFDF"/>
<path d="M73.007 123.902C73.007 123.902 72.3472 117.446 74.9391 114.524C77.531 111.602 81.3952 115.184 80.4056 119.048C79.4631 122.912 73.007 123.902 73.007 123.902Z" fill="#00DFDF"/>
<path d="M74.3735 134.363C74.3735 134.363 75.0804 127.907 78.1907 125.598C81.3009 123.289 84.364 127.577 82.6204 131.159C80.9239 134.74 74.3735 134.363 74.3735 134.363Z" fill="#00DFDF"/>
<path d="M67.8232 139.736C71.6403 140.49 75.0333 146.003 75.0333 146.003C75.0333 146.003 69.3312 149.161 66.1738 146.663C63.0636 144.165 64.0061 139.029 67.8232 139.736Z" fill="#00DFDF"/>
<path d="M66.5508 149.443C72.0173 150.48 76.9183 158.397 76.9183 158.397C76.9183 158.397 68.7657 162.921 64.2888 159.34C59.7648 155.805 61.0843 148.407 66.5508 149.443Z" fill="#00DFDF"/>
<path d="M75.4574 146.098C75.2689 146.098 75.1747 146.098 75.1747 146.098C75.1747 146.098 75.2218 145.768 75.316 145.297C74.8919 142.846 74.4207 139.783 73.9023 136.107C73.808 135.589 73.7609 135.118 73.6667 134.552C72.1587 135.259 67.9174 137.003 65.3727 134.976C62.2624 132.479 63.1578 127.295 66.9749 128.049C69.7553 128.567 72.3 131.63 73.4782 133.233C73.1483 130.876 72.7713 128.379 72.3472 125.787C72.3 125.363 72.2058 124.891 72.1115 124.42C70.6507 125.504 67.0692 127.766 64.2888 126.399C60.7073 124.609 60.5188 119.378 64.4302 119.284C67.2106 119.236 70.3208 121.64 71.8759 123.006C71.3104 120.226 70.5564 117.069 69.7082 113.911C68.8128 114.571 66.4565 116.126 64.6187 115.231C62.3096 114.1 62.2153 110.707 64.7129 110.66C66.5037 110.613 68.5301 112.215 69.5197 113.063C68.8599 110.565 68.153 108.115 67.5404 105.947C66.5037 106.654 64.3831 107.926 62.6866 107.078C60.3774 105.947 60.2832 102.554 62.7808 102.507C64.3831 102.46 66.0796 103.685 67.1634 104.581C66.2681 101.423 65.5612 99.1141 65.3727 98.5014C64.4302 97.8888 61.6498 95.9567 61.1786 94.8257C60.6131 93.4591 61.2728 91.8568 62.6866 91.2913C64.0532 90.7258 65.6554 91.3856 66.2209 92.7993C66.6922 93.8832 66.0795 96.9934 65.7968 98.2187L65.9853 98.1716C65.9853 98.2658 66.9278 101.235 68.153 105.429C68.2002 105.476 68.2473 105.523 68.2473 105.523C68.2473 105.523 68.2473 105.523 68.2002 105.57C68.8599 107.832 69.5668 110.424 70.2737 113.016C70.2265 111.744 70.3208 109.105 71.546 107.691C73.1954 105.806 75.693 108.115 75.0804 110.613C74.5149 112.827 71.169 113.581 70.4622 113.676C71.4047 117.21 72.2529 120.839 72.8184 123.855C72.9127 123.949 72.9598 123.996 72.9598 123.996C72.9598 123.996 72.9127 124.043 72.8655 124.09C72.9598 124.703 73.1012 125.268 73.1483 125.834C73.7609 129.557 74.2322 133.091 74.6563 136.154C75.0804 139.029 75.4103 141.574 75.7873 143.694C76.3057 141.621 77.2953 138.84 79.1332 137.474C82.2434 135.165 85.3065 139.453 83.5629 143.035C82.2434 145.768 78.0964 146.192 76.2114 146.239C76.3057 146.616 76.3528 146.946 76.447 147.276C76.7298 148.595 77.1539 152.271 77.6252 156.277C78.2378 153.308 79.6987 148.36 82.7147 146.098C87.1915 142.799 91.5741 148.925 89.0294 154.062C86.9088 158.35 80.0285 158.68 77.8608 158.633C78.4734 164.241 78.9918 169.801 79.0389 170.226L78.3792 170.273C78.3792 170.084 76.5413 150.716 75.7873 147.323C75.6459 146.899 75.5517 146.522 75.4574 146.098Z" fill="#00DFDF"/>
<path d="M17.3523 156.513C17.3523 156.513 16.2685 154.109 16.8811 152.648C17.4937 151.187 19.473 152.036 19.5672 153.685C19.7086 155.287 17.3523 156.513 17.3523 156.513Z" fill="#00DFDF"/>
<path d="M23.9498 166.597C23.9498 166.597 22.2533 162.874 23.1958 160.565C24.1383 158.303 27.2014 159.623 27.3899 162.167C27.6256 164.712 23.9498 166.597 23.9498 166.597Z" fill="#00DFDF"/>
<path d="M26.9186 172.629C26.9186 172.629 26.0233 168.624 27.437 166.597C28.8508 164.571 31.5369 166.55 31.207 169.048C30.8771 171.545 26.9186 172.629 26.9186 172.629Z" fill="#00DFDF"/>
<path d="M24.0441 177.2C26.4946 176.871 29.6519 179.51 29.6519 179.51C29.6519 179.51 26.8716 182.573 24.4682 181.724C22.1119 180.782 21.5936 177.53 24.0441 177.2Z" fill="#00DFDF"/>
<path d="M25.2693 183.28C28.7565 182.808 33.2805 186.531 33.2805 186.531C33.2805 186.531 29.2749 190.914 25.8819 189.689C22.4889 188.463 21.782 183.751 25.2693 183.28Z" fill="#00DFDF"/>
<path d="M29.9347 179.415C29.8404 179.462 29.7933 179.462 29.7933 179.462C29.7933 179.462 29.7462 179.274 29.6991 178.944C28.9451 177.577 28.0497 175.786 27.0129 173.713C26.8716 173.43 26.7302 173.147 26.5888 172.818C25.8348 173.524 23.6199 175.457 21.6878 174.75C19.3316 173.901 18.8132 170.603 21.2637 170.273C23.0073 170.037 25.1751 171.357 26.2118 172.064C25.5521 170.744 24.7981 169.283 24.0441 167.822C23.9027 167.587 23.7613 167.304 23.6199 167.021C22.9602 167.964 21.2637 170.037 19.3316 169.802C16.8339 169.472 15.6558 166.361 17.9649 165.513C19.6143 164.901 21.9706 165.749 23.1958 166.22C22.3004 164.665 21.1694 162.921 20.0384 161.178C19.6614 161.743 18.5304 163.157 17.2581 163.016C15.6558 162.78 14.9018 160.801 16.3627 160.282C17.4466 159.905 18.9546 160.424 19.7086 160.754C18.8132 159.387 17.8707 158.067 17.0696 156.889C16.5983 157.549 15.5616 158.727 14.3835 158.539C12.7812 158.303 12.0272 156.324 13.4881 155.805C14.4306 155.476 15.703 155.853 16.5512 156.135C15.3731 154.439 14.4777 153.166 14.2421 152.884C13.5823 152.695 11.5088 152.13 10.9905 151.517C10.3778 150.81 10.4721 149.726 11.179 149.114C11.8858 148.501 12.9697 148.595 13.5823 149.302C14.0536 149.868 14.3363 151.847 14.4306 152.648L14.5248 152.601C14.572 152.648 15.703 154.25 17.3052 156.512C17.3523 156.512 17.3523 156.559 17.3523 156.559C17.3523 156.559 17.3523 156.559 17.3523 156.607C18.2006 157.832 19.1431 159.246 20.0856 160.659C19.8028 159.905 19.3316 158.303 19.7557 157.219C20.3683 155.758 22.3476 156.607 22.4418 158.256C22.5361 159.717 20.6982 160.801 20.2741 161.036C21.5464 162.968 22.8188 164.948 23.7613 166.644C23.8084 166.691 23.8556 166.691 23.8556 166.691C23.8556 166.691 23.8556 166.738 23.8084 166.738C23.9969 167.068 24.1854 167.398 24.3268 167.728C25.4578 169.849 26.4474 171.828 27.3428 173.619C28.1911 175.268 28.8979 176.729 29.5577 177.907C29.4634 176.54 29.4634 174.703 30.3117 173.524C31.7254 171.498 34.4116 173.477 34.0817 175.975C33.8461 177.907 31.4427 178.991 30.3117 179.368C30.4059 179.556 30.5473 179.792 30.6416 179.933C31.0657 180.687 32.1024 182.761 33.1863 185.117C32.9507 183.232 32.8093 179.933 34.1759 178.001C36.2023 175.127 40.0665 177.907 39.5953 181.489C39.2183 184.505 35.1184 186.06 33.7989 186.484C35.3069 189.735 36.7207 192.987 36.8621 193.223L36.4851 193.411C36.4379 193.317 31.3956 182.054 30.3117 180.169C30.2174 179.886 30.0761 179.651 29.9347 179.415Z" fill="#00DFDF"/>
<path d="M201.281 169.471C201.281 169.471 203.025 167.492 204.627 167.445C206.229 167.398 206.229 169.566 204.815 170.32C203.355 171.168 201.281 169.471 201.281 169.471Z" fill="#00DFDF"/>
<path d="M194.778 179.651C194.778 179.651 197.511 176.588 199.961 176.541C202.412 176.493 202.459 179.839 200.244 181.017C197.982 182.243 194.778 179.651 194.778 179.651Z" fill="#00DFDF"/>
<path d="M190.536 184.787C190.536 184.787 193.835 182.337 196.239 182.808C198.642 183.279 197.982 186.531 195.579 187.238C193.128 187.992 190.536 184.787 190.536 184.787Z" fill="#00DFDF"/>
<path d="M185.164 184.08C186.484 186.154 185.353 190.112 185.353 190.112C185.353 190.112 181.441 188.84 181.253 186.295C181.064 183.798 183.892 182.007 185.164 184.08Z" fill="#00DFDF"/>
<path d="M180.122 187.662C182.007 190.631 180.405 196.333 180.405 196.333C180.405 196.333 174.797 194.495 174.514 190.867C174.278 187.285 178.237 184.693 180.122 187.662Z" fill="#00DFDF"/>
<path d="M185.541 190.348C185.447 190.254 185.447 190.207 185.447 190.207C185.447 190.207 185.588 190.112 185.871 189.924C186.814 188.652 188.039 187.144 189.547 185.306C189.735 185.07 189.971 184.787 190.159 184.552C189.17 184.175 186.531 182.949 186.389 180.876C186.201 178.331 188.981 176.54 190.301 178.661C191.243 180.169 190.913 182.667 190.678 183.939C191.62 182.761 192.61 181.536 193.647 180.216C193.835 179.981 194.024 179.745 194.165 179.509C193.034 179.274 190.442 178.614 189.877 176.729C189.17 174.326 191.526 171.969 193.223 173.713C194.448 174.985 194.683 177.483 194.683 178.755C195.72 177.294 196.898 175.551 197.982 173.807C197.275 173.666 195.532 173.242 195.155 172.016C194.683 170.461 196.191 168.953 197.322 170.084C198.124 170.933 198.265 172.535 198.265 173.336C199.16 171.922 200.009 170.556 200.715 169.33C199.914 169.189 198.406 168.718 198.076 167.587C197.605 166.032 199.113 164.524 200.244 165.655C200.951 166.361 201.14 167.681 201.187 168.576C202.271 166.786 203.025 165.466 203.213 165.136C203.119 164.429 202.789 162.309 203.119 161.602C203.543 160.754 204.533 160.377 205.381 160.754C206.229 161.178 206.606 162.167 206.229 163.016C205.899 163.722 204.203 164.759 203.543 165.183L203.637 165.23C203.59 165.278 202.6 167.021 201.187 169.33C201.187 169.377 201.187 169.377 201.187 169.377C201.187 169.377 201.187 169.377 201.14 169.377C200.386 170.65 199.49 172.111 198.548 173.572C199.113 173.006 200.386 171.875 201.564 171.875C203.166 171.828 203.166 173.996 201.752 174.75C200.48 175.457 198.689 174.184 198.312 173.949C197.087 175.928 195.767 177.86 194.636 179.415C194.636 179.509 194.636 179.509 194.636 179.509C194.636 179.509 194.589 179.509 194.542 179.509C194.306 179.839 194.071 180.122 193.882 180.405C192.421 182.29 191.008 184.033 189.735 185.541C188.557 187.002 187.568 188.227 186.719 189.311C187.897 188.652 189.641 187.945 191.055 188.18C193.458 188.652 192.798 191.903 190.395 192.61C188.557 193.176 186.578 191.432 185.73 190.584C185.588 190.772 185.447 190.961 185.353 191.149C184.834 191.856 183.326 193.647 181.677 195.579C183.326 194.589 186.248 193.128 188.604 193.553C192.044 194.212 191.102 198.878 187.662 199.914C184.74 200.81 181.63 197.7 180.734 196.71C178.378 199.396 176.022 202.035 175.833 202.271L175.504 201.988C175.598 201.894 183.798 192.704 185.07 190.914C185.211 190.772 185.353 190.584 185.541 190.348Z" fill="#00DFDF"/>
<path d="M187.756 135.636L186.578 136.814L185.117 137.521L184.128 140.867L185.164 141.196L185.871 140.442L186.531 141.149L185.683 143.6C185.683 143.6 184.505 143.93 184.505 144.212C184.505 144.495 185.259 145.108 185.259 145.108L186.625 144.495L190.395 144.071L191.479 143.364L190.301 137.002L187.756 135.636Z" fill="#CCCCCC" stroke="#263238" stroke-width="0.471249" stroke-miterlimit="10" stroke-linecap="round" stroke-linejoin="round"/>
<path d="M186.531 144.543L187.898 142.328" stroke="#263238" stroke-width="0.471249" stroke-miterlimit="10" stroke-linecap="round" stroke-linejoin="round"/>
<path d="M188.322 144.354L189.264 142.186" stroke="#263238" stroke-width="0.471249" stroke-miterlimit="10" stroke-linecap="round" stroke-linejoin="round"/>
<path d="M190.301 144.118L190.631 142.233" stroke="#263238" stroke-width="0.471249" stroke-miterlimit="10" stroke-linecap="round" stroke-linejoin="round"/>
<path d="M184.929 106.89L194.071 121.404L190.725 137.144L187.144 136.343L186.908 121.64L181.159 115.891L184.929 106.89Z" fill="white" stroke="#263238" stroke-width="0.471249" stroke-miterlimit="10" stroke-linecap="round" stroke-linejoin="round"/>
<path d="M177.813 102.036L184.929 106.889L177.059 127.247L163.911 123.383L162.592 111.743L164.147 101.564L170.603 100.857L177.813 102.036Z" fill="white" stroke="#263238" stroke-width="0.471249" stroke-miterlimit="10" stroke-linecap="round" stroke-linejoin="round"/>
<path d="M171.404 106.183L172.723 107.596C173.572 108.492 175.032 108.35 175.645 107.314L178.708 102.177L176.588 100.009L171.922 100.198L169.943 101.235L169.048 103.826C168.529 105.334 169.943 106.748 171.404 106.183Z" fill="white" stroke="#263238" stroke-width="0.471249" stroke-miterlimit="10" stroke-linecap="round" stroke-linejoin="round"/>
<path d="M173.242 86.6259C173.242 86.6259 171.027 88.0868 170.744 88.6994C170.461 89.312 170.367 90.3488 170.367 90.3488L167.87 91.3384L168.953 92.9407C168.953 92.9407 168.011 96.5693 168.671 97.1348C169.33 97.7003 171.64 99.0669 171.64 99.0669L171.592 103.591C171.592 104.675 172.771 105.287 173.666 104.675L177.672 101.942L178.897 99.1612C178.897 99.1612 182.902 95.8624 182.855 93.836C182.808 91.8097 181.819 88.6523 178.897 87.0029C175.975 85.3535 173.477 86.1075 173.477 86.1075L173.242 86.6259Z" fill="#CCCCCC" stroke="#263238" stroke-width="0.471249" stroke-miterlimit="10" stroke-linecap="round" stroke-linejoin="round"/>
<path d="M174.561 86.4374C174.561 86.4374 176.211 86.7673 174.656 90.6786C173.1 94.59 171.592 97.5589 173.902 100.009C176.211 102.507 177.813 104.015 176.682 105.759C175.598 107.502 172.346 106.89 173.289 110.801C174.231 114.712 177.342 115.513 178.708 113.44C180.075 111.366 179.368 107.785 179.509 107.078C179.651 106.324 180.028 105.947 180.028 105.947L180.923 106.136L186.295 108.963C186.295 108.963 186.248 108.445 186.578 105.052C186.955 101.706 183.892 101.235 184.505 98.2657C185.117 95.2498 188.369 96.0509 187.191 91.8096C186.013 87.5213 179.132 84.5995 179.132 84.5995C179.132 84.5995 176.352 79.8399 173.195 82.3375C170.037 84.8351 172.158 87.3799 172.158 87.3799L174.561 86.4374Z" fill="#263238" stroke="#263238" stroke-width="0.471249" stroke-miterlimit="10" stroke-linecap="round" stroke-linejoin="round"/>
<path d="M171.592 90.726C171.498 91.103 171.592 91.48 171.781 91.5271C171.969 91.5742 172.252 91.2915 172.346 90.9145C172.441 90.5375 172.346 90.1605 172.158 90.1134C171.922 90.0662 171.687 90.3019 171.592 90.726Z" fill="#263238"/>
<path d="M173.666 89.7831C173.666 89.7831 173.053 88.6521 171.781 89.0291" stroke="#263238" stroke-width="0.471249" stroke-miterlimit="10" stroke-linecap="round" stroke-linejoin="round"/>
<path d="M146.192 101.517L146.004 99.4438C146.004 99.4438 146.192 98.0772 146.004 97.3703C145.815 96.6634 145.532 95.8623 145.297 95.2497C145.061 94.637 144.731 94.3072 144.401 94.8727C144.071 95.4382 144.213 96.5692 144.213 96.5692C144.213 96.5692 143.977 95.4382 143.647 95.014C143.27 94.5428 142.045 94.1658 140.867 93.7888C139.642 93.4118 140.207 94.0715 140.396 94.4014C140.584 94.7313 141.715 95.2968 141.715 95.2968C141.715 95.2968 139.924 94.637 139.406 94.4957C138.888 94.3543 138.087 94.9669 138.652 95.2968C139.218 95.6267 140.443 96.0037 140.443 96.0037C140.443 96.0037 139.076 96.3335 138.558 96.6163C138.039 96.899 138.275 97.5117 138.605 97.5117C138.935 97.5117 139.924 97.3703 139.924 97.3703C139.924 97.3703 139.076 98.03 139.218 98.4542C139.406 98.8312 141.055 98.3128 141.055 98.3128C141.055 98.3128 141.291 99.3495 142.045 100.056C142.799 100.716 143.742 101.235 143.742 101.235L145.202 102.978L146.192 101.517Z" fill="#CCCCCC" stroke="#263238" stroke-width="0.471249" stroke-miterlimit="10" stroke-linecap="round" stroke-linejoin="round"/>
<path d="M141.715 95.3438L141.197 97.7" stroke="#263238" stroke-width="0.471249" stroke-miterlimit="10" stroke-linecap="round" stroke-linejoin="round"/>
<path d="M144.26 96.6162L144.354 97.4173C144.354 97.4173 143.27 98.0771 143.459 99.1138" fill="#CCCCCC"/>
<path d="M144.26 96.6162L144.354 97.4173C144.354 97.4173 143.27 98.0771 143.459 99.1138" stroke="#263238" stroke-width="0.471249" stroke-miterlimit="10" stroke-linecap="round" stroke-linejoin="round"/>
<path d="M164.147 101.565L153.873 109.387L146.239 101.093L144.166 102.884L152.036 116.597L162.733 110.707L164.147 101.565Z" fill="white" stroke="#263238" stroke-width="0.471249" stroke-miterlimit="10" stroke-linecap="round" stroke-linejoin="round"/>
<path d="M179.509 152.978L179.556 140.914C179.745 133.044 177.436 127.719 177.012 127.342C176.87 127.248 176.776 127.201 176.776 127.201L163.628 123.336C163.628 123.336 161.932 128.143 160.612 128.991C145.768 138.652 142.328 143.365 142.469 143.6C146.333 150.763 158.916 162.78 158.492 161.932L161.649 160.848L151.941 144.825L166.267 139.17L169.095 152.884L183.515 179.745L187.426 178.331L179.509 152.978Z" fill="#263238" stroke="#263238" stroke-width="0.471249" stroke-miterlimit="10" stroke-linecap="round" stroke-linejoin="round"/>
<path d="M158.539 161.979L157.031 164.948C157.031 164.948 155.523 165.419 154.957 165.702C154.392 165.937 154.109 166.032 153.826 166.503C153.543 166.974 153.496 167.587 153.496 167.587L160.942 167.87C160.942 167.87 163.251 165.56 164.288 164.524C165.325 163.44 161.649 160.895 161.649 160.895L158.539 161.979Z" fill="white" stroke="#263238" stroke-width="0.471249" stroke-miterlimit="10" stroke-linecap="round" stroke-linejoin="round"/>
<path d="M187.473 178.331C187.473 178.331 187.379 180.169 187.332 181.818C187.285 183.468 185.211 185.965 183.986 186.861C182.761 187.756 181.63 187.85 182.007 185.588C182.384 183.279 183.515 179.745 183.515 179.745C183.515 179.745 187.096 178.237 187.473 178.331Z" fill="white" stroke="#263238" stroke-width="0.471249" stroke-miterlimit="10" stroke-linecap="round" stroke-linejoin="round"/>
<path d="M101.376 16.7397L92.9879 22.5361" stroke="#263238" stroke-width="0.471249" stroke-miterlimit="10" stroke-linecap="round" stroke-linejoin="round"/>
<path d="M102.554 15.9385L101.989 16.3155" stroke="#263238" stroke-width="0.471249" stroke-miterlimit="10" stroke-linecap="round" stroke-linejoin="round"/>
<path d="M89.9719 10.4251L88.0869 10.1895" stroke="#263238" stroke-width="0.471249" stroke-miterlimit="10" stroke-linecap="round" stroke-linejoin="round"/>
<path d="M102.177 12.1213L91.15 10.6133" stroke="#263238" stroke-width="0.471249" stroke-miterlimit="10" stroke-linecap="round" stroke-linejoin="round"/>
<path d="M104.157 4.72287L100.528 1" stroke="#263238" stroke-width="0.471249" stroke-miterlimit="10" stroke-linecap="round" stroke-linejoin="round"/>
<path d="M105.665 6.23106L104.816 5.38281" stroke="#263238" stroke-width="0.471249" stroke-miterlimit="10" stroke-linecap="round" stroke-linejoin="round"/>
<path d="M115.419 6.27812L119.614 1.98975" stroke="#263238" stroke-width="0.471249" stroke-miterlimit="10" stroke-linecap="round" stroke-linejoin="round"/>
<path d="M114.618 7.12627L114.995 6.70215" stroke="#263238" stroke-width="0.471249" stroke-miterlimit="10" stroke-linecap="round" stroke-linejoin="round"/>
<path d="M124.703 12.357L133.28 11.4146" stroke="#263238" stroke-width="0.471249" stroke-miterlimit="10" stroke-linecap="round" stroke-linejoin="round"/>
<path d="M116.88 13.2052L123.666 12.4512" stroke="#263238" stroke-width="0.471249" stroke-miterlimit="10" stroke-linecap="round" stroke-linejoin="round"/>
<path d="M122.724 20.7451L126.588 24.7507" stroke="#263238" stroke-width="0.471249" stroke-miterlimit="10" stroke-linecap="round" stroke-linejoin="round"/>
<path d="M117.21 15.0435L121.97 19.9445" stroke="#263238" stroke-width="0.471249" stroke-miterlimit="10" stroke-linecap="round" stroke-linejoin="round"/>
<path d="M111.649 14.8076H109.482V21.0752H111.649V14.8076Z" fill="#00DFDF" stroke="#263238" stroke-width="0.471249" stroke-miterlimit="10" stroke-linecap="round" stroke-linejoin="round"/>
<path d="M113.252 20.557V19.6616H107.879V20.557H105.335V24.1385H115.796V20.557H113.252Z" fill="#263238" stroke="#263238" stroke-width="0.471249" stroke-miterlimit="10" stroke-linecap="round" stroke-linejoin="round"/>
<path d="M110.565 3.16797L113.11 8.30459L118.812 9.15284L114.665 13.1585L115.655 18.8134L110.565 16.1273L105.523 18.8134L106.466 13.1585L102.366 9.15284L108.021 8.30459L110.565 3.16797Z" fill="#00DFDF" stroke="#263238" stroke-width="0.471249" stroke-miterlimit="10" stroke-linecap="round" stroke-linejoin="round"/>
<path d="M103.45 9.67139L110.565 11.5564L116.833 9.95414" fill="#00DFDF"/>
<path d="M103.45 9.67139L110.565 11.5564L116.833 9.95414" stroke="#263238" stroke-width="0.471249" stroke-miterlimit="10" stroke-linecap="round" stroke-linejoin="round"/>
<path d="M110.707 5.43018V9.95417" stroke="#263238" stroke-width="0.471249" stroke-miterlimit="10" stroke-linecap="round" stroke-linejoin="round"/>
<path d="M106.324 17.9181L110.424 12.5459V14.8079" fill="#00DFDF"/>
<path d="M106.324 17.9181L110.424 12.5459V14.8079" stroke="#263238" stroke-width="0.471249" stroke-miterlimit="10" stroke-linecap="round" stroke-linejoin="round"/>
<path d="M115.655 18.8135L111.414 12.5459" stroke="#263238" stroke-width="0.471249" stroke-miterlimit="10" stroke-linecap="round" stroke-linejoin="round"/>
<path d="M95.3912 82.1021C95.3912 82.1021 102.036 84.8825 108.633 85.1652C115.231 85.4951 127.106 82.1021 127.106 82.1021L119.236 71.9702H100.952L95.3912 82.1021Z" fill="#263238" stroke="#263238" stroke-width="0.471249" stroke-miterlimit="10" stroke-linecap="round" stroke-linejoin="round"/>
<path d="M126.777 133.139C126.541 132.432 124.467 126.965 124.467 126.965C124.467 126.965 123.242 117.87 123.242 113.676C123.242 109.482 121.781 106.89 121.781 106.89L120.085 76.5886L119.001 72.7715H116.598L109.859 72.8186L103.12 72.7715H102.272L99.4912 78.0495L97.8889 106.937C97.8889 106.937 96.4281 109.482 96.4281 113.723C96.4281 117.964 95.2028 127.012 95.2028 127.012C95.2028 127.012 93.1293 132.479 92.8937 133.186C92.6581 133.893 90.8202 135.589 90.8202 136.202C90.8202 136.814 91.2914 137.191 91.2914 137.191H97.9832C97.9832 137.191 98.3602 137.05 98.5958 135.872C98.8314 134.647 98.8314 133.468 98.8314 132.714C98.8314 132.008 99.5383 125.928 99.5383 125.928L108.869 87.1446H109.105H110.66H110.895L120.226 125.928C120.226 125.928 120.933 131.96 120.933 132.714C120.933 133.421 120.933 134.647 121.169 135.872C121.404 137.097 121.781 137.191 121.781 137.191H128.332C128.332 137.191 128.803 136.814 128.803 136.202C128.85 135.589 127.012 133.893 126.777 133.139Z" fill="white" stroke="#263238" stroke-width="0.471249" stroke-miterlimit="10" stroke-linecap="round" stroke-linejoin="round"/>
<path d="M124.467 126.965C124.467 126.965 123.242 117.87 123.242 113.676C123.242 109.482 121.781 106.89 121.781 106.89L120.085 76.5886L119.001 72.7715H116.597L109.859 72.8186L103.12 72.7715H102.272L99.4911 78.0495L97.8889 106.937C97.8889 106.937 96.428 109.482 96.428 113.723C96.428 117.964 95.2028 127.012 95.2028 127.012C95.2028 127.012 95.2028 127.059 95.1556 127.154H99.3026C99.3969 126.447 99.444 125.928 99.444 125.928L108.775 87.1446H109.01H110.565H110.801L120.132 125.928C120.132 125.928 120.179 126.4 120.273 127.154H124.42C124.514 127.012 124.467 126.965 124.467 126.965Z" fill="#263238" stroke="#263238" stroke-width="0.471249" stroke-miterlimit="10" stroke-linecap="round" stroke-linejoin="round"/>
<path d="M99.2555 128.426L96.8993 134.034H92.4695C91.8569 134.835 90.9615 135.777 90.9615 136.201C90.9615 136.814 91.4328 137.191 91.4328 137.191H97.9832C97.9832 137.191 98.3602 137.05 98.5958 135.872C98.8314 134.646 98.8314 133.468 98.8314 132.714C98.8314 132.29 99.067 130.169 99.2555 128.426Z" fill="#00DFDF" stroke="#263238" stroke-width="0.471249" stroke-miterlimit="10" stroke-linecap="round" stroke-linejoin="round"/>
<path d="M120.556 128.426L122.912 134.034H127.342C127.955 134.835 128.85 135.777 128.85 136.201C128.85 136.814 128.379 137.191 128.379 137.191H121.828C121.828 137.191 121.451 137.05 121.216 135.872C120.98 134.646 120.98 133.468 120.98 132.714C120.98 132.29 120.745 130.169 120.556 128.426Z" fill="#00DFDF" stroke="#263238" stroke-width="0.471249" stroke-miterlimit="10" stroke-linecap="round" stroke-linejoin="round"/>
<path d="M109.246 33.4221C109.246 33.4221 107.078 32.2911 105.476 34.5531C103.827 36.8151 104.958 38.8415 104.958 39.4541C104.958 40.0668 102.507 42.1403 103.214 43.0356C103.921 43.9781 105.052 44.4494 104.958 44.8735C104.863 45.2976 101.989 44.685 102.177 45.6746C102.366 46.7114 102.601 48.3607 106.277 51.094C109.953 53.8744 115.278 51.6124 116.739 50.0572C118.153 48.5021 119.425 46.9941 119.189 46.0516C119.001 45.1091 117.54 45.439 117.54 45.0149C117.54 44.5908 119.095 43.177 119.095 42.3288C119.095 41.5276 117.446 40.4909 117.351 39.9725C117.257 39.4541 118.153 38.7473 118.153 37.9461C118.153 37.145 116.126 36.1083 116.126 35.4014C116.126 34.6945 117.681 33.4693 115.325 31.8199C112.969 30.1705 109.717 31.49 109.246 33.4221Z" fill="#263238" stroke="#263238" stroke-width="0.471249" stroke-miterlimit="10" stroke-linecap="round" stroke-linejoin="round"/>
<path d="M108.586 46.1931L107.785 50.3401C107.785 50.3401 105.853 49.539 105.335 49.3034C104.769 49.1149 103.214 72.7245 103.214 72.7245H118.435L117.634 49.3976L114.241 50.293L113.204 46.0518L108.586 46.1931Z" fill="white" stroke="#263238" stroke-width="0.471249" stroke-miterlimit="10" stroke-linecap="round" stroke-linejoin="round"/>
<path d="M114.383 57.1735L114.995 50.1519L114.194 50.3404L113.157 46.0991L108.586 46.1462L107.785 50.2932C107.785 50.2932 107.502 50.1519 107.125 50.0105L107.879 57.1264H114.383V57.1735Z" fill="white" stroke="#263238" stroke-width="0.471249" stroke-miterlimit="10" stroke-linecap="round" stroke-linejoin="round"/>
<path d="M108.068 47.0416C108.068 47.0416 110.801 49.6806 111.367 49.6806C111.932 49.6806 113.629 47.2772 113.629 47.2772L113.393 46.4761L108.021 46.3818V47.0416H108.068Z" fill="#263238" stroke="#263238" stroke-width="0.471249" stroke-miterlimit="10" stroke-linecap="round" stroke-linejoin="round"/>
<path d="M99.2555 30.3119L103.968 25.4109L102.601 21.7351C102.601 21.7351 103.921 19.2375 104.062 18.9548C104.156 18.672 104.675 17.8238 104.675 17.8238C104.675 17.8238 105.429 17.7766 105.476 18.5778C105.523 19.3789 105.617 20.8869 105.523 21.311C105.429 21.7351 106.607 24.0443 106.136 25.081C105.664 26.1178 100.858 32.7152 100.858 32.7152L99.2555 30.3119Z" fill="white" stroke="#263238" stroke-width="0.471249" stroke-miterlimit="10" stroke-linecap="round" stroke-linejoin="round"/>
<path d="M105.476 19.3315C105.476 19.3315 103.968 21.4993 104.015 21.6878C104.015 21.8763 104.109 22.2062 104.109 22.2062" stroke="#263238" stroke-width="0.471249" stroke-miterlimit="10" stroke-linecap="round" stroke-linejoin="round"/>
<path d="M105.193 18.0596L103.167 20.9813V21.9709" stroke="#263238" stroke-width="0.471249" stroke-miterlimit="10" stroke-linecap="round" stroke-linejoin="round"/>
<path d="M106.654 49.6332C106.654 49.6332 106.183 62.2156 105.476 67.0695C104.816 71.9233 103.968 74.7037 102.319 77.1542C100.669 79.6047 95.3441 82.0552 95.3441 82.0552C95.3441 82.0552 99.1613 68.8602 99.9153 65.2787C100.669 61.6501 100.669 54.063 100.669 54.063C100.669 54.063 97.2763 51.5182 94.543 47.654C91.8098 43.7426 89.5949 39.737 89.7363 39.1715C89.8305 38.606 100.575 28.2856 100.575 28.2856L102.79 31.2545L96.8521 40.3496C96.8521 40.3496 102.46 46.8529 102.837 47.1828C103.261 47.5598 104.816 47.7482 106.654 49.6332Z" fill="#00DFDF" stroke="#263238" stroke-width="0.471249" stroke-miterlimit="10" stroke-linecap="round" stroke-linejoin="round"/>
<path d="M106.324 49.3506C106.324 49.3977 104.062 53.5447 104.062 57.4561C104.062 59.7181 104.722 66.8811 105.335 68.2948C105.382 67.9178 105.476 67.4937 105.523 67.0696C106.183 62.2157 106.701 49.6333 106.701 49.6333C106.56 49.5391 106.466 49.4448 106.324 49.3506Z" fill="#00DFDF" stroke="#263238" stroke-width="0.471249" stroke-miterlimit="10" stroke-linecap="round" stroke-linejoin="round"/>
<path d="M122.724 30.2178L117.681 25.5996L118.765 21.8296C118.765 21.8296 117.257 19.4262 117.116 19.1434C116.974 18.8607 116.456 18.0596 116.456 18.0596C116.456 18.0596 115.702 18.0596 115.702 18.8607C115.702 19.6618 115.702 21.1698 115.843 21.5939C115.985 22.0181 114.948 24.3743 115.514 25.4111C116.079 26.4478 121.31 32.6683 121.31 32.6683L122.724 30.2178Z" fill="white" stroke="#263238" stroke-width="0.471249" stroke-miterlimit="10" stroke-linecap="round" stroke-linejoin="round"/>
<path d="M115.749 19.6616C115.749 19.6616 117.399 21.688 117.399 21.9236C117.399 22.1592 117.352 22.4891 117.352 22.4891" stroke="#263238" stroke-width="0.471249" stroke-miterlimit="10" stroke-linecap="round" stroke-linejoin="round"/>
<path d="M115.985 18.3896L118.153 21.17L118.247 22.1596" stroke="#263238" stroke-width="0.471249" stroke-miterlimit="10" stroke-linecap="round" stroke-linejoin="round"/>
<path d="M115.844 49.6332C115.844 49.6332 116.315 62.2156 117.022 67.0694C117.681 71.9233 118.53 74.7037 120.179 77.1542C121.828 79.6047 127.153 82.0552 127.153 82.0552C127.153 82.0552 123.336 68.8602 122.582 65.2787C121.828 61.6501 121.828 54.063 121.828 54.063C121.828 54.063 125.221 51.5182 127.955 47.654C130.688 43.7897 134.034 39.2186 133.845 38.6531C133.657 38.0876 121.593 28.5684 121.593 28.5684L119.896 31.8671L125.787 40.8208C125.787 40.8208 120.132 46.8528 119.708 47.1827C119.284 47.5597 117.681 47.7482 115.844 49.6332Z" fill="#00DFDF" stroke="#263238" stroke-width="0.471249" stroke-miterlimit="10" stroke-linecap="round" stroke-linejoin="round"/>
<path d="M103.167 49.7276C102.601 52.0367 100.716 54.1102 100.716 54.1102C100.716 54.1102 101.847 51.4712 101.565 49.1621" stroke="#263238" stroke-width="0.471249" stroke-miterlimit="10" stroke-linecap="round" stroke-linejoin="round"/>
<path d="M118.624 49.162C119.614 51.3297 121.781 54.1101 121.781 54.1101C121.781 54.1101 120.32 48.8792 120.32 48.1724" stroke="#263238" stroke-width="0.471249" stroke-miterlimit="10" stroke-linecap="round" stroke-linejoin="round"/>
<path d="M116.173 49.3506C116.173 49.3977 118.435 53.5447 118.435 57.4561C118.435 59.7181 117.776 66.8811 117.163 68.2948C117.116 67.9178 117.022 67.4937 116.975 67.0696C116.315 62.2157 115.796 49.6333 115.796 49.6333C115.938 49.5391 116.079 49.4448 116.173 49.3506Z" fill="#00DFDF" stroke="#263238" stroke-width="0.471249" stroke-miterlimit="10" stroke-linecap="round" stroke-linejoin="round"/>
<path d="M106.607 41.9986C106.607 41.9986 105.24 40.0194 105.052 41.7159C104.863 43.4124 106.466 44.6376 106.466 44.6376L106.607 41.9986Z" fill="white" stroke="#263238" stroke-width="0.471249" stroke-miterlimit="10" stroke-linecap="round" stroke-linejoin="round"/>
<path d="M115.796 41.5745C115.796 41.5745 116.975 40.3963 117.304 41.763C117.634 43.1296 115.891 44.3548 115.891 44.3548L115.796 41.5745Z" fill="white" stroke="#263238" stroke-width="0.471249" stroke-miterlimit="10" stroke-linecap="round" stroke-linejoin="round"/>
<path d="M109.623 35.2598C109.623 35.2598 109.293 37.0034 108.068 37.4275C106.843 37.8516 106.419 38.4643 106.419 38.4643C106.419 38.4643 106.23 44.402 106.607 45.0146C106.984 45.6273 109.717 48.2191 111.037 48.2191C112.356 48.2191 115.561 45.8158 115.702 45.2031C115.796 44.5905 115.655 38.8413 115.514 38.4643C115.419 38.0401 114.1 37.4275 112.969 37.4275C111.838 37.4275 110.943 36.2023 110.707 35.7781C110.566 35.4011 109.623 35.2598 109.623 35.2598Z" fill="white" stroke="#263238" stroke-width="0.471249" stroke-miterlimit="10" stroke-linecap="round" stroke-linejoin="round"/>
<path d="M110.518 40.1609C110.518 40.1609 111.037 40.585 111.461 40.585C111.885 40.585 112.215 40.1138 112.215 40.1138" stroke="#263238" stroke-width="0.471249" stroke-miterlimit="10" stroke-linecap="round" stroke-linejoin="round"/>
<path d="M108.492 38.2286C108.492 38.2286 108.869 37.0976 110.047 37.7102" stroke="#263238" stroke-width="0.471249" stroke-miterlimit="10" stroke-linecap="round" stroke-linejoin="round"/>
<path d="M112.309 37.7576C112.309 37.7576 113.393 36.9093 114.241 38.3702" stroke="#263238" stroke-width="0.471249" stroke-miterlimit="10" stroke-linecap="round" stroke-linejoin="round"/>
<path d="M109.576 42.0931C109.576 42.0931 111.932 43.5068 113.487 41.5747" stroke="#263238" stroke-width="0.471249" stroke-miterlimit="10" stroke-linecap="round" stroke-linejoin="round"/>
<path d="M109.623 38.6527C109.623 38.9354 109.482 39.171 109.246 39.171C109.058 39.171 108.869 38.9354 108.869 38.6527C108.869 38.3699 109.011 38.1343 109.246 38.1343C109.435 38.1343 109.623 38.3699 109.623 38.6527Z" fill="#263238"/>
<path d="M113.393 38.7C113.393 38.9828 113.252 39.2184 113.016 39.2184C112.828 39.2184 112.639 38.9828 112.639 38.7C112.639 38.4173 112.78 38.1816 113.016 38.1816C113.252 38.1816 113.393 38.4173 113.393 38.7Z" fill="#263238"/>
<path d="M41.2918 102.036L34.1759 106.89L39.8309 130.829L56.9844 127.672L57.1729 102.554L48.5019 100.858L41.2918 102.036Z" fill="white" stroke="#263238" stroke-width="0.471249" stroke-miterlimit="10" stroke-linecap="round" stroke-linejoin="round"/>
<path d="M45.2031 106.56L47.418 109.481L47.795 125.033L50.5282 129.368L52.6489 122.771L48.4547 109.434L49.4915 106.136L47.1824 103.874L45.2031 106.56Z" fill="#00DFDF" stroke="#263238" stroke-width="0.471249" stroke-miterlimit="10" stroke-linecap="round" stroke-linejoin="round"/>
<path d="M47.6537 106.183L44.6849 109.435L40.3494 102.177L42.47 100.057L47.1825 100.245L51.141 102.272L51.3766 107.597L47.6537 106.183Z" fill="white" stroke="#263238" stroke-width="0.471249" stroke-miterlimit="10" stroke-linecap="round" stroke-linejoin="round"/>
<path d="M49.7742 86.7201C49.7742 86.7201 51.6592 88.6051 51.8477 89.2177C51.9891 89.8775 51.8948 90.9142 51.8948 90.9142L54.1568 92.3751L52.7902 93.7417C52.7902 93.7417 54.1097 97.4646 53.3557 97.8887C52.6017 98.3128 48.9731 99.2553 48.9731 99.2553L47.7007 106.183L42.5641 100.905L41.9043 97.9358C41.9043 97.9358 38.6056 93.8831 39.0768 91.951C39.501 89.9717 41.1032 87.05 44.3077 86.0132C47.5122 84.9765 47.7007 85.3535 47.7007 85.3535L49.7742 86.7201Z" fill="#CCCCCC" stroke="#263238" stroke-width="0.471249" stroke-miterlimit="10" stroke-linecap="round" stroke-linejoin="round"/>
<path d="M43.4595 95.0614C43.4595 95.0614 45.3916 94.5901 45.3445 93.6948C45.2974 92.7994 43.9779 92.0454 45.0146 91.3856C46.0043 90.6788 47.041 90.396 47.041 89.8776C47.041 89.3593 46.0985 88.888 46.7111 88.3225C47.3237 87.757 49.7742 86.7674 49.7742 86.7674C49.7742 86.7674 48.7375 83.9399 44.9675 83.8456C41.1975 83.7514 37.7574 88.4168 37.993 91.3856C38.2286 94.3545 41.5274 98.2659 42.3285 98.5015C43.0825 98.69 43.4595 95.0614 43.4595 95.0614Z" fill="#263238" stroke="#263238" stroke-width="0.471249" stroke-miterlimit="10" stroke-linecap="round" stroke-linejoin="round"/>
<path d="M44.2606 95.6739C44.2606 95.6739 43.0354 93.8831 42.0458 95.3911C41.0561 96.852 43.3181 98.3129 44.4963 98.2658C45.6744 98.2186 45.91 97.7003 45.91 97.7003" fill="#CCCCCC"/>
<path d="M44.2606 95.6739C44.2606 95.6739 43.0354 93.8831 42.0458 95.3911C41.0561 96.852 43.3181 98.3129 44.4963 98.2658C45.6744 98.2186 45.91 97.7003 45.91 97.7003" stroke="#263238" stroke-width="0.471249" stroke-miterlimit="10" stroke-linecap="round" stroke-linejoin="round"/>
<path d="M50.5754 91.056C50.5754 91.433 50.434 91.7629 50.1984 91.7629C49.9628 91.7629 49.7743 91.4801 49.7743 91.056C49.7743 90.679 49.9157 90.3491 50.1513 90.3491C50.3869 90.3491 50.5754 90.679 50.5754 91.056Z" fill="#263238"/>
<path d="M48.6904 89.7836C48.6904 89.7836 49.8214 88.4169 50.9996 89.0296" stroke="#263238" stroke-width="0.471249" stroke-miterlimit="10" stroke-linecap="round" stroke-linejoin="round"/>
<path d="M31.3485 135.636L32.5737 136.861L34.0346 137.568L35.0242 140.914L33.9875 141.244L33.2806 140.49L32.6208 141.196L33.4691 143.647C33.4691 143.647 34.6472 143.977 34.6472 144.26C34.6472 144.542 33.8932 145.155 33.8932 145.155L32.5266 144.542L28.7566 144.118L27.6727 143.411L28.8509 137.049L31.3485 135.636Z" fill="#CCCCCC" stroke="#263238" stroke-width="0.471249" stroke-miterlimit="10" stroke-linecap="round" stroke-linejoin="round"/>
<path d="M32.5738 144.543L31.2072 142.328" stroke="#263238" stroke-width="0.471249" stroke-miterlimit="10" stroke-linecap="round" stroke-linejoin="round"/>
<path d="M30.7358 144.354L29.8405 142.186" stroke="#263238" stroke-width="0.471249" stroke-miterlimit="10" stroke-linecap="round" stroke-linejoin="round"/>
<path d="M28.8038 144.118L28.4739 142.233" stroke="#263238" stroke-width="0.471249" stroke-miterlimit="10" stroke-linecap="round" stroke-linejoin="round"/>
<path d="M34.1759 106.89L24.9866 121.404L28.3796 137.144L31.9611 136.343L32.1496 121.64L36.7678 115.843L34.1759 106.89Z" fill="white" stroke="#263238" stroke-width="0.471249" stroke-miterlimit="10" stroke-linecap="round" stroke-linejoin="round"/>
<path d="M75.1747 98.8312L75.3632 96.7577C75.3632 96.7577 75.1747 95.3911 75.3632 94.6843C75.5517 93.9774 75.8344 93.1763 76.0701 92.5636C76.3057 91.951 76.6356 91.6211 76.9654 92.1866C77.2953 92.7521 77.1539 93.8831 77.1539 93.8831C77.1539 93.8831 77.3896 92.7521 77.7194 92.328C78.0964 91.8568 79.3217 91.4798 80.4998 91.1028C81.725 90.7258 81.1595 91.3855 80.971 91.7154C80.7825 92.0453 79.6516 92.6108 79.6516 92.6108C79.6516 92.6108 81.4423 91.951 81.9607 91.8096C82.479 91.6683 83.2802 92.2809 82.7147 92.6108C82.1492 92.9406 80.9239 93.3176 80.9239 93.3176C80.9239 93.3176 82.2905 93.6475 82.8089 93.9303C83.3273 94.213 83.0917 94.8256 82.7618 94.8256C82.4319 94.8256 81.4423 94.6843 81.4423 94.6843C81.4423 94.6843 82.2905 95.344 82.1492 95.7681C81.9607 96.1451 80.3113 95.6268 80.3113 95.6268C80.3113 95.6268 80.0757 96.6635 79.3217 97.3704C78.5677 98.0301 77.6252 98.5485 77.6252 98.5485L76.1643 100.292L75.1747 98.8312Z" fill="#CCCCCC" stroke="#263238" stroke-width="0.471249" stroke-miterlimit="10" stroke-linecap="round" stroke-linejoin="round"/>
<path d="M79.6516 92.6577L80.17 95.014" stroke="#263238" stroke-width="0.471249" stroke-miterlimit="10" stroke-linecap="round" stroke-linejoin="round"/>
<path d="M77.1068 93.9302L77.0126 94.7313C77.0126 94.7313 78.0964 95.3911 77.9079 96.4278" fill="#CCCCCC"/>
<path d="M77.1068 93.9302L77.0126 94.7313C77.0126 94.7313 78.0964 95.3911 77.9079 96.4278" stroke="#263238" stroke-width="0.471249" stroke-miterlimit="10" stroke-linecap="round" stroke-linejoin="round"/>
<path d="M57.1729 102.554L65.2312 109.387L75.1275 98.4072L77.201 100.198L67.0691 116.597L57.1729 112.733V102.554Z" fill="white" stroke="#263238" stroke-width="0.471249" stroke-miterlimit="10" stroke-linecap="round" stroke-linejoin="round"/>
<path d="M39.831 130.829L41.0562 153.166L31.6312 178.331L35.5426 179.745L49.9628 152.883L52.0835 140.914L64.9957 143.081L57.4086 160.895L60.5659 161.979C60.5659 161.979 76.5884 137.851 76.8241 137.804C77.1068 137.804 57.5028 129.887 57.5028 129.887L56.9373 127.625L39.831 130.829Z" fill="#263238" stroke="#263238" stroke-width="0.471249" stroke-miterlimit="10" stroke-linecap="round" stroke-linejoin="round"/>
<path d="M60.5659 161.979L62.0739 164.948C62.0739 164.948 63.5819 165.419 64.1474 165.702C64.7129 165.937 64.9956 166.032 65.2784 166.503C65.5611 166.974 65.6082 167.587 65.6082 167.587L58.1625 167.87C58.1625 167.87 55.8534 165.56 54.8166 164.524C53.7799 163.44 57.4556 160.895 57.4556 160.895L60.5659 161.979Z" fill="white" stroke="#263238" stroke-width="0.471249" stroke-miterlimit="10" stroke-linecap="round" stroke-linejoin="round"/>
<path d="M31.6312 178.331C31.6312 178.331 31.7255 180.169 31.7726 181.819C31.8197 183.468 33.8932 185.966 35.1185 186.861C36.3437 187.756 37.4747 187.851 37.0977 185.589C36.7207 183.28 35.5897 179.745 35.5897 179.745C35.5897 179.745 32.0082 178.237 31.6312 178.331Z" fill="white" stroke="#263238" stroke-width="0.471249" stroke-miterlimit="10" stroke-linecap="round" stroke-linejoin="round"/>
<path d="M136.578 136.296H82.1021V167.445H136.578V136.296Z" fill="#00C4C4" stroke="#263238" stroke-width="0.471249" stroke-miterlimit="10" stroke-linecap="round" stroke-linejoin="round"/>
<path d="M168.576 166.645H50.1512V197.794H168.576V166.645Z" fill="#009C9C" stroke="#263238" stroke-width="0.471249" stroke-miterlimit="10" stroke-linecap="round" stroke-linejoin="round"/>
<path d="M203.543 187.851H15.1375V219H203.543V187.851Z" fill="#008080" stroke="#263238" stroke-width="0.471249" stroke-miterlimit="10" stroke-linecap="round" stroke-linejoin="round"/>
<path d="M109.34 139.736L111.885 144.872L117.587 145.721L113.44 149.726L114.43 155.381L109.34 152.695L104.251 155.381L105.24 149.726L101.141 145.721L106.795 144.872L109.34 139.736Z" fill="#00DFDF" stroke="#263238" stroke-width="0.471249" stroke-miterlimit="10" stroke-linecap="round" stroke-linejoin="round"/>
<path d="M66.7393 167.964L69.284 173.1L74.939 173.902L70.8392 177.907L71.7817 183.562L66.7393 180.923L61.6498 183.562L62.5923 177.907L58.4924 173.902L64.1946 173.1L66.7393 167.964Z" fill="#00DFDF" stroke="#263238" stroke-width="0.471249" stroke-miterlimit="10" stroke-linecap="round" stroke-linejoin="round"/>
<path d="M152.789 167.964L155.334 173.1L161.036 173.902L156.936 177.907L157.879 183.562L152.789 180.923L147.747 183.562L148.69 177.907L144.59 173.902L150.245 173.1L152.789 167.964Z" fill="#00DFDF" stroke="#263238" stroke-width="0.471249" stroke-miterlimit="10" stroke-linecap="round" stroke-linejoin="round"/>
<path d="M1 219H218.529" stroke="#263238" stroke-width="0.471249" stroke-miterlimit="10" stroke-linecap="round" stroke-linejoin="round"/>
</svg>
