<svg width="77" height="76" viewBox="0 0 77 76" fill="none" xmlns="http://www.w3.org/2000/svg">
<g id="Group 34">
<circle id="Ellipse 17" cx="39" cy="35" r="27" fill="#003744" stroke="#008080" stroke-width="4"/>
<g id="Group" filter="url(#filter0_d_103_5966)">
<path id="Vector" fill-rule="evenodd" clip-rule="evenodd" d="M38.6758 20H38.8242C41.8313 20 44.1872 20 46.0261 20.2474C47.9067 20.5001 49.3913 21.0288 50.5569 22.1931C51.7225 23.3587 52.2499 24.8433 52.5026 26.7252C52.75 28.5628 52.75 30.9187 52.75 33.9258V34.0742C52.75 37.0813 52.75 39.4372 52.5026 41.2761C52.2499 43.1567 51.7212 44.6413 50.5569 45.8069C49.3913 46.9725 47.9067 47.4999 46.0248 47.7526C44.1872 48 41.8313 48 38.8242 48H38.6758C35.6687 48 33.3128 48 31.4739 47.7526C29.5933 47.4999 28.1087 46.9712 26.9431 45.8069C25.7775 44.6413 25.2501 43.1567 24.9974 41.2748C24.75 39.4372 24.75 37.0813 24.75 34.0742V33.9258C24.75 30.9187 24.75 28.5628 24.9974 26.7239C25.2501 24.8433 25.7788 23.3587 26.9431 22.1931C28.1087 21.0275 29.5933 20.5001 31.4752 20.2474C33.3128 20 35.6687 20 38.6758 20ZM31.7344 22.1827C30.07 22.4067 29.0659 22.8339 28.3249 23.5749C27.5826 24.3172 27.1567 25.32 26.9327 26.9857C26.7061 28.6787 26.7035 30.9031 26.7035 34C26.7035 37.0969 26.7061 39.3213 26.9327 41.0143C27.1567 42.68 27.5839 43.6841 28.3249 44.4264C29.0672 45.1674 30.07 45.5933 31.7357 45.8173C33.4287 46.0439 35.6531 46.0465 38.75 46.0465C41.8469 46.0465 44.0713 46.0439 45.7643 45.8173C47.43 45.5933 48.4341 45.1661 49.1764 44.4251C49.9174 43.6828 50.3433 42.68 50.5673 41.0143C50.7939 39.3213 50.7965 37.0969 50.7965 34C50.7965 30.9031 50.7939 28.6787 50.5673 26.9857C50.3433 25.32 49.9161 24.3159 49.1751 23.5736C48.4328 22.8326 47.43 22.4067 45.7643 22.1827C44.0713 21.9561 41.8469 21.9535 38.75 21.9535C35.6531 21.9535 33.4274 21.9561 31.7344 22.1827Z" fill="white"/>
<path id="Vector_2" fill-rule="evenodd" clip-rule="evenodd" d="M33.5798 26.147C33.7627 26.3301 33.8655 26.5784 33.8655 26.8372C33.8655 27.0961 33.7627 27.3443 33.5798 27.5274L33.2933 27.814H33.5407C35.7286 27.814 37.6496 28.9496 38.75 30.6621C39.3095 29.7883 40.0799 29.0694 40.9903 28.5716C41.9007 28.0739 42.9218 27.8133 43.9593 27.814H44.2068L43.9203 27.5274C43.7477 27.3423 43.6538 27.0974 43.6583 26.8443C43.6627 26.5913 43.7653 26.3499 43.9442 26.1709C44.1232 25.992 44.3646 25.8894 44.6176 25.885C44.8707 25.8805 45.1156 25.9744 45.3007 26.147L47.2542 28.1005C47.4371 28.2836 47.5399 28.5319 47.5399 28.7907C47.5399 29.0495 47.4371 29.2978 47.2542 29.4809L45.3007 31.4344C45.2113 31.5304 45.1035 31.6074 44.9837 31.6607C44.8639 31.7141 44.7345 31.7428 44.6034 31.7451C44.4722 31.7475 44.342 31.7233 44.2203 31.6742C44.0987 31.6251 43.9882 31.552 43.8955 31.4592C43.8027 31.3665 43.7296 31.256 43.6805 31.1344C43.6314 31.0127 43.6072 30.8825 43.6096 30.7513C43.6119 30.6202 43.6406 30.4908 43.694 30.371C43.7473 30.2512 43.8243 30.1434 43.9203 30.054L44.2068 29.7674H43.9593C42.8368 29.7674 41.7602 30.2134 40.9665 31.0071C40.1727 31.8009 39.7268 32.8775 39.7268 34V41.814C39.7268 42.073 39.6239 42.3214 39.4407 42.5046C39.2575 42.6878 39.0091 42.7907 38.75 42.7907C38.491 42.7907 38.2426 42.6878 38.0594 42.5046C37.8762 42.3214 37.7733 42.073 37.7733 41.814V34C37.7733 32.8775 37.3274 31.8009 36.5336 31.0071C35.7399 30.2134 34.6633 29.7674 33.5407 29.7674H33.2933L33.5798 30.054C33.6758 30.1434 33.7527 30.2512 33.8061 30.371C33.8595 30.4908 33.8882 30.6202 33.8905 30.7513C33.8928 30.8825 33.8687 31.0127 33.8196 31.1344C33.7705 31.256 33.6974 31.3665 33.6046 31.4592C33.5119 31.552 33.4014 31.6251 33.2798 31.6742C33.1581 31.7233 33.0279 31.7475 32.8967 31.7451C32.7656 31.7428 32.6362 31.7141 32.5164 31.6607C32.3966 31.6074 32.2888 31.5304 32.1993 31.4344L30.2459 29.4809C30.0629 29.2978 29.9602 29.0495 29.9602 28.7907C29.9602 28.5319 30.0629 28.2836 30.2459 28.1005L32.1993 26.147C32.3825 25.9641 32.6307 25.8613 32.8896 25.8613C33.1484 25.8613 33.3967 25.9641 33.5798 26.147Z" fill="white"/>
</g>
</g>
<defs>
<filter id="filter0_d_103_5966" x="0.75" y="0" width="76" height="76" filterUnits="userSpaceOnUse" color-interpolation-filters="sRGB">
<feFlood flood-opacity="0" result="BackgroundImageFix"/>
<feColorMatrix in="SourceAlpha" type="matrix" values="0 0 0 0 0 0 0 0 0 0 0 0 0 0 0 0 0 0 127 0" result="hardAlpha"/>
<feOffset dy="4"/>
<feGaussianBlur stdDeviation="12"/>
<feComposite in2="hardAlpha" operator="out"/>
<feColorMatrix type="matrix" values="0 0 0 0 1 0 0 0 0 1 0 0 0 0 1 0 0 0 0.25 0"/>
<feBlend mode="normal" in2="BackgroundImageFix" result="effect1_dropShadow_103_5966"/>
<feBlend mode="normal" in="SourceGraphic" in2="effect1_dropShadow_103_5966" result="shape"/>
</filter>
</defs>
</svg>
