<svg width="80" height="77" viewBox="0 0 80 77" fill="none" xmlns="http://www.w3.org/2000/svg">
<g id="Group 37">
<circle id="Ellipse 18" cx="42" cy="34" r="27" fill="#003744" stroke="#008080" stroke-width="4"/>
<g id="Vector" filter="url(#filter0_d_103_5975)">
<path d="M38.5004 34.2415C38.5004 33.0978 38.0958 32.1214 37.2866 31.3123C36.4775 30.5031 35.5011 30.0985 34.3574 30.0985C33.2138 30.0985 32.2374 30.5031 31.4282 31.3123C30.619 32.1214 30.2145 33.0978 30.2145 34.2415C30.2145 35.3851 30.619 36.3615 31.4282 37.1707C32.2374 37.9799 33.2138 38.3844 34.3574 38.3844C35.5011 38.3844 36.4775 37.9799 37.2866 37.1707C38.0958 36.3615 38.5004 35.3851 38.5004 34.2415ZM50.9293 42.5274C50.9293 41.9664 50.7243 41.4809 50.3143 41.0709C49.9044 40.6609 49.4189 40.4559 48.8578 40.4559C48.2968 40.4559 47.8113 40.6609 47.4013 41.0709C46.9913 41.4809 46.7863 41.9664 46.7863 42.5274C46.7863 43.0992 46.9886 43.5874 47.3932 43.992C47.7978 44.3966 48.286 44.5989 48.8578 44.5989C49.4296 44.5989 49.9179 44.3966 50.3224 43.992C50.727 43.5874 50.9293 43.0992 50.9293 42.5274ZM50.9293 25.9555C50.9293 25.3945 50.7243 24.909 50.3143 24.499C49.9044 24.089 49.4189 23.884 48.8578 23.884C48.2968 23.884 47.8113 24.089 47.4013 24.499C46.9913 24.909 46.7863 25.3945 46.7863 25.9555C46.7863 26.5273 46.9886 27.0155 47.3932 27.4201C47.7978 27.8247 48.286 28.027 48.8578 28.027C49.4296 28.027 49.9179 27.8247 50.3224 27.4201C50.727 27.0155 50.9293 26.5273 50.9293 25.9555ZM44.7149 32.7688V35.7627C44.7149 35.8706 44.6771 35.9758 44.6016 36.0783C44.5261 36.1808 44.4397 36.2374 44.3426 36.2482L41.8342 36.6366C41.7155 37.0142 41.5429 37.4242 41.3163 37.8666C41.6832 38.3844 42.1687 39.0048 42.7728 39.7277C42.8484 39.8463 42.8861 39.9542 42.8861 40.0513C42.8861 40.1808 42.8484 40.2833 42.7728 40.3588C42.5247 40.6825 42.0796 41.1653 41.4377 41.8072C40.7958 42.4492 40.3723 42.7702 40.1673 42.7702C40.0486 42.7702 39.9353 42.7324 39.8274 42.6569L37.9663 41.2004C37.5672 41.4054 37.1518 41.5726 36.7202 41.7021C36.6015 42.8673 36.4775 43.7034 36.348 44.2105C36.2725 44.4694 36.1106 44.5989 35.8625 44.5989H32.8524C32.7337 44.5989 32.6258 44.5584 32.5287 44.4775C32.4316 44.3966 32.3777 44.3022 32.3669 44.1943L31.9946 41.7182C31.6278 41.6103 31.2232 41.4431 30.7809 41.2165L28.8712 42.6569C28.7957 42.7324 28.6878 42.7702 28.5476 42.7702C28.4289 42.7702 28.3156 42.727 28.2077 42.6407C26.6541 41.2058 25.8773 40.3426 25.8773 40.0513C25.8773 39.9542 25.915 39.8517 25.9906 39.7439C26.0985 39.5928 26.3196 39.3069 26.6541 38.8861C26.9886 38.4654 27.2421 38.1363 27.4147 37.8989C27.1666 37.4242 26.9778 36.9819 26.8483 36.5719L24.3884 36.1835C24.2805 36.1727 24.1888 36.1214 24.1133 36.0297C24.0378 35.938 24 35.8328 24 35.7142V32.7202C24 32.6123 24.0378 32.5071 24.1133 32.4046C24.1888 32.3021 24.2751 32.2455 24.3722 32.2347L26.8807 31.8463C26.9993 31.4687 27.172 31.0587 27.3985 30.6164C27.0317 30.0985 26.5462 29.4781 25.942 28.7553C25.8665 28.6366 25.8287 28.5287 25.8287 28.4316C25.8287 28.3021 25.8665 28.1942 25.942 28.1079C26.1794 27.7843 26.6217 27.3041 27.2691 26.6676C27.9164 26.031 28.3426 25.7128 28.5476 25.7128C28.6662 25.7128 28.7795 25.7505 28.8874 25.8261L30.7485 27.2826C31.1153 27.0884 31.5307 26.9157 31.9946 26.7647C32.1133 25.5995 32.2374 24.7687 32.3669 24.2724C32.4424 24.0135 32.6042 23.884 32.8524 23.884H35.8625C35.9812 23.884 36.0891 23.9245 36.1862 24.0054C36.2833 24.0863 36.3372 24.1807 36.348 24.2886L36.7202 26.7647C37.087 26.8726 37.4916 27.0398 37.934 27.2664L39.8436 25.8261C39.9299 25.7505 40.0378 25.7128 40.1673 25.7128C40.286 25.7128 40.3993 25.7559 40.5072 25.8422C42.0608 27.2772 42.8376 28.1403 42.8376 28.4316C42.8376 28.5179 42.7998 28.6204 42.7243 28.7391C42.5948 28.9117 42.3683 29.203 42.0446 29.613C41.7209 30.023 41.4782 30.3466 41.3163 30.584C41.5645 31.1019 41.7479 31.5442 41.8666 31.911L44.3265 32.2833C44.4343 32.3048 44.5261 32.3615 44.6016 32.4532C44.6771 32.5449 44.7149 32.6501 44.7149 32.7688ZM55.0723 41.3946V43.6603C55.0723 43.8329 54.2685 44.0001 52.661 44.1619C52.5315 44.4532 52.3696 44.7338 52.1754 45.0035C52.7257 46.2226 53.0008 46.9671 53.0008 47.2368C53.0008 47.28 52.9792 47.3177 52.9361 47.3501C51.6198 48.1161 50.9509 48.4991 50.9293 48.4991C50.843 48.4991 50.5949 48.2456 50.1849 47.7385C49.7749 47.2314 49.4944 46.8646 49.3433 46.638C49.1276 46.6596 48.9657 46.6704 48.8578 46.6704C48.7499 46.6704 48.5881 46.6596 48.3723 46.638C48.2213 46.8646 47.9408 47.2314 47.5308 47.7385C47.1208 48.2456 46.8727 48.4991 46.7863 48.4991C46.7648 48.4991 46.0958 48.1161 44.7796 47.3501C44.7364 47.3177 44.7149 47.28 44.7149 47.2368C44.7149 46.9671 44.99 46.2226 45.5402 45.0035C45.346 44.7338 45.1842 44.4532 45.0547 44.1619C43.4472 44.0001 42.6434 43.8329 42.6434 43.6603V41.3946C42.6434 41.2219 43.4472 41.0547 45.0547 40.8929C45.195 40.58 45.3568 40.2995 45.5402 40.0513C44.99 38.8322 44.7149 38.0877 44.7149 37.818C44.7149 37.7749 44.7364 37.7371 44.7796 37.7047C44.8228 37.6832 45.0116 37.5753 45.346 37.3811C45.6805 37.1869 45.9987 37.0034 46.3008 36.8308C46.6029 36.6582 46.7648 36.5719 46.7863 36.5719C46.8727 36.5719 47.1208 36.8227 47.5308 37.3244C47.9408 37.8261 48.2213 38.1902 48.3723 38.4168C48.5881 38.3952 48.7499 38.3844 48.8578 38.3844C48.9657 38.3844 49.1276 38.3952 49.3433 38.4168C49.8936 37.6508 50.3899 37.0466 50.8322 36.6043L50.9293 36.5719C50.9725 36.5719 51.6414 36.9495 52.9361 37.7047C52.9792 37.7371 53.0008 37.7749 53.0008 37.818C53.0008 38.0877 52.7257 38.8322 52.1754 40.0513C52.3589 40.2995 52.5207 40.58 52.661 40.8929C54.2685 41.0547 55.0723 41.2219 55.0723 41.3946ZM55.0723 24.8227V27.0884C55.0723 27.261 54.2685 27.4282 52.661 27.5901C52.5315 27.8814 52.3696 28.1619 52.1754 28.4316C52.7257 29.6508 53.0008 30.3952 53.0008 30.6649C53.0008 30.7081 52.9792 30.7458 52.9361 30.7782C51.6198 31.5442 50.9509 31.9272 50.9293 31.9272C50.843 31.9272 50.5949 31.6737 50.1849 31.1666C49.7749 30.6595 49.4944 30.2927 49.3433 30.0661C49.1276 30.0877 48.9657 30.0985 48.8578 30.0985C48.7499 30.0985 48.5881 30.0877 48.3723 30.0661C48.2213 30.2927 47.9408 30.6595 47.5308 31.1666C47.1208 31.6737 46.8727 31.9272 46.7863 31.9272C46.7648 31.9272 46.0958 31.5442 44.7796 30.7782C44.7364 30.7458 44.7149 30.7081 44.7149 30.6649C44.7149 30.3952 44.99 29.6508 45.5402 28.4316C45.346 28.1619 45.1842 27.8814 45.0547 27.5901C43.4472 27.4282 42.6434 27.261 42.6434 27.0884V24.8227C42.6434 24.6501 43.4472 24.4828 45.0547 24.321C45.195 24.0081 45.3568 23.7276 45.5402 23.4794C44.99 22.2603 44.7149 21.5159 44.7149 21.2461C44.7149 21.203 44.7364 21.1652 44.7796 21.1328C44.8228 21.1113 45.0116 21.0034 45.346 20.8092C45.6805 20.615 45.9987 20.4316 46.3008 20.2589C46.6029 20.0863 46.7648 20 46.7863 20C46.8727 20 47.1208 20.2508 47.5308 20.7525C47.9408 21.2542 48.2213 21.6183 48.3723 21.8449C48.5881 21.8233 48.7499 21.8126 48.8578 21.8126C48.9657 21.8126 49.1276 21.8233 49.3433 21.8449C49.8936 21.0789 50.3899 20.4747 50.8322 20.0324L50.9293 20C50.9725 20 51.6414 20.3776 52.9361 21.1328C52.9792 21.1652 53.0008 21.203 53.0008 21.2461C53.0008 21.5159 52.7257 22.2603 52.1754 23.4794C52.3589 23.7276 52.5207 24.0081 52.661 24.321C54.2685 24.4828 55.0723 24.6501 55.0723 24.8227Z" fill="white"/>
</g>
</g>
<defs>
<filter id="filter0_d_103_5975" x="0" y="0" width="79.0723" height="76.499" filterUnits="userSpaceOnUse" color-interpolation-filters="sRGB">
<feFlood flood-opacity="0" result="BackgroundImageFix"/>
<feColorMatrix in="SourceAlpha" type="matrix" values="0 0 0 0 0 0 0 0 0 0 0 0 0 0 0 0 0 0 127 0" result="hardAlpha"/>
<feOffset dy="4"/>
<feGaussianBlur stdDeviation="12"/>
<feComposite in2="hardAlpha" operator="out"/>
<feColorMatrix type="matrix" values="0 0 0 0 1 0 0 0 0 1 0 0 0 0 1 0 0 0 0.25 0"/>
<feBlend mode="normal" in2="BackgroundImageFix" result="effect1_dropShadow_103_5975"/>
<feBlend mode="normal" in="SourceGraphic" in2="effect1_dropShadow_103_5975" result="shape"/>
</filter>
</defs>
</svg>
