<svg width="78" height="78" viewBox="0 0 78 78" fill="none" xmlns="http://www.w3.org/2000/svg">
<g id="Group 33">
<circle id="Ellipse 17" cx="39" cy="35" r="27" fill="#003744" stroke="#008080" stroke-width="4"/>
<g id="Group" filter="url(#filter0_d_103_5956)">
<path id="Vector" d="M39 48C46.1797 48 52 42.1797 52 35C52 27.8203 46.1797 22 39 22C31.8203 22 26 27.8203 26 35C26 42.1797 31.8203 48 39 48Z" stroke="white" stroke-width="2.6"/>
<path id="Vector_2" d="M27.3 39.5404C29.0108 40.2264 30.2423 40.2264 30.9946 39.5404C32.123 38.5113 31.1493 35.3883 32.7296 34.527C34.3099 33.6657 36.7176 37.4836 38.9681 36.2274C41.2184 34.9711 38.756 31.6212 40.3177 30.2632C41.8794 28.9051 43.9102 30.4367 44.2651 28.1659C44.6201 25.8952 42.6089 26.88 42.223 24.7342C41.9657 23.3037 41.9657 22.5515 42.223 22.4775" stroke="white" stroke-width="2.6" stroke-linecap="round"/>
<path id="Vector_3" d="M42.2636 47.5775C41.0454 46.3308 40.6069 45.172 40.948 44.1009C41.4597 42.4944 42.3037 42.5894 42.6717 41.596C43.0397 40.6026 42.0001 39.1878 44.3068 37.9784C45.8446 37.1721 47.959 38.1063 50.6498 40.7811" stroke="white" stroke-width="2.6" stroke-linecap="round"/>
</g>
</g>
<defs>
<filter id="filter0_d_103_5956" x="0.699951" y="0.700195" width="76.6001" height="76.5996" filterUnits="userSpaceOnUse" color-interpolation-filters="sRGB">
<feFlood flood-opacity="0" result="BackgroundImageFix"/>
<feColorMatrix in="SourceAlpha" type="matrix" values="0 0 0 0 0 0 0 0 0 0 0 0 0 0 0 0 0 0 127 0" result="hardAlpha"/>
<feOffset dy="4"/>
<feGaussianBlur stdDeviation="12"/>
<feComposite in2="hardAlpha" operator="out"/>
<feColorMatrix type="matrix" values="0 0 0 0 1 0 0 0 0 1 0 0 0 0 1 0 0 0 0.25 0"/>
<feBlend mode="normal" in2="BackgroundImageFix" result="effect1_dropShadow_103_5956"/>
<feBlend mode="normal" in="SourceGraphic" in2="effect1_dropShadow_103_5956" result="shape"/>
</filter>
</defs>
</svg>
