<svg width="72" height="73" viewBox="0 0 72 73" fill="none" xmlns="http://www.w3.org/2000/svg">
<rect width="72" height="73" fill="#F5F5F5"/>
<g clip-path="url(#clip0_0_1)">
<rect width="430" height="11204" transform="translate(-340 -348)" fill="white"/>
<rect x="-339.5" y="-347.5" width="429" height="3516" fill="#003744"/>
<rect x="-339.5" y="-347.5" width="429" height="3516" stroke="black"/>
<circle cx="35.3871" cy="35.3871" r="34.7404" stroke="url(#paint0_linear_0_1)" stroke-width="1.29344"/>
<g filter="url(#filter0_d_0_1)">
<path d="M54.2404 28.6759C56.6046 26.3117 55.5265 23.5503 54.2404 22.2074L48.5663 16.5333C46.1831 14.1691 43.4406 15.2472 42.0978 16.5333L38.8824 19.7675H33.9838C30.3901 19.7675 28.3096 21.6589 27.2504 23.834L18.8527 32.2317V39.7972L17.5099 41.1212C15.1456 43.5043 16.2237 46.2468 17.5099 47.5897L23.184 53.2638C24.2053 54.2852 25.3023 54.6635 26.3426 54.6635C27.6855 54.6635 28.9149 54.0015 29.6525 53.2638L34.7592 48.1382H41.5493C44.7646 48.1382 46.3912 46.1334 46.9775 44.1663C49.1148 43.5989 50.2874 41.9723 50.7603 40.3836C53.6919 39.627 54.7889 36.8467 54.7889 34.8986V29.2244H53.673L54.2404 28.6759ZM51.0062 34.8986C51.0062 35.7497 50.6468 36.7899 49.1148 36.7899H47.2234V38.6813C47.2234 39.5324 46.864 40.5727 45.332 40.5727H43.4406V42.4641C43.4406 43.3152 43.0813 44.3555 41.5493 44.3555H33.2083L27.0046 50.5592C26.4182 51.1077 26.0778 50.7861 25.8697 50.5781L20.2145 44.9418C19.666 44.3555 19.9876 44.015 20.1956 43.807L22.6355 41.3482V33.7827L26.4182 29.9999V33.0072C26.4182 35.2958 27.9313 38.6813 32.0924 38.6813C36.2534 38.6813 37.7665 35.2958 37.7665 33.0072H51.0062V34.8986ZM51.5547 25.9902L48.3393 29.2244H33.9838V33.0072C33.9838 33.8583 33.6244 34.8986 32.0924 34.8986C30.5604 34.8986 30.201 33.8583 30.201 33.0072V27.3331C30.201 26.463 30.5225 23.5503 33.9838 23.5503H40.4333L44.7457 19.238C45.332 18.6895 45.6725 19.011 45.8805 19.219L51.5357 24.8554C52.0842 25.4417 51.7627 25.7821 51.5547 25.9902Z" fill="white"/>
</g>
</g>
<defs>
<filter id="filter0_d_0_1" x="0.591068" y="2.20138" width="70.5681" height="70.5698" filterUnits="userSpaceOnUse" color-interpolation-filters="sRGB">
<feFlood flood-opacity="0" result="BackgroundImageFix"/>
<feColorMatrix in="SourceAlpha" type="matrix" values="0 0 0 0 0 0 0 0 0 0 0 0 0 0 0 0 0 0 127 0" result="hardAlpha"/>
<feOffset dy="2.58687"/>
<feGaussianBlur stdDeviation="7.76062"/>
<feComposite in2="hardAlpha" operator="out"/>
<feColorMatrix type="matrix" values="0 0 0 0 1 0 0 0 0 1 0 0 0 0 1 0 0 0 0.25 0"/>
<feBlend mode="normal" in2="BackgroundImageFix" result="effect1_dropShadow_0_1"/>
<feBlend mode="normal" in="SourceGraphic" in2="effect1_dropShadow_0_1" result="shape"/>
</filter>
<linearGradient id="paint0_linear_0_1" x1="19.0852" y1="4.78113e-07" x2="85.8832" y2="100.197" gradientUnits="userSpaceOnUse">
<stop stop-color="#00C2C2"/>
<stop offset="1" stop-color="#00404F"/>
</linearGradient>
<clipPath id="clip0_0_1">
<rect width="430" height="11204" fill="white" transform="translate(-340 -348)"/>
</clipPath>
</defs>
</svg>
