<svg width="72" height="71" viewBox="0 0 72 71" fill="none" xmlns="http://www.w3.org/2000/svg">
<g filter="url(#filter0_d_103_3195)">
<path d="M54.2404 26.6759C56.6046 24.3117 55.5265 21.5503 54.2404 20.2074L48.5663 14.5333C46.1831 12.1691 43.4406 13.2472 42.0978 14.5333L38.8824 17.7675H33.9838C30.3901 17.7675 28.3096 19.6589 27.2504 21.834L18.8527 30.2317V37.7972L17.5099 39.1212C15.1456 41.5043 16.2237 44.2468 17.5099 45.5897L23.184 51.2638C24.2053 52.2852 25.3023 52.6635 26.3426 52.6635C27.6855 52.6635 28.9149 52.0015 29.6525 51.2638L34.7592 46.1382H41.5493C44.7646 46.1382 46.3912 44.1334 46.9775 42.1663C49.1148 41.5989 50.2874 39.9723 50.7603 38.3836C53.6919 37.627 54.7889 34.8467 54.7889 32.8986V27.2244H53.673L54.2404 26.6759ZM51.0062 32.8986C51.0062 33.7497 50.6468 34.7899 49.1148 34.7899H47.2234V36.6813C47.2234 37.5324 46.864 38.5727 45.332 38.5727H43.4406V40.4641C43.4406 41.3152 43.0813 42.3555 41.5493 42.3555H33.2083L27.0046 48.5592C26.4182 49.1077 26.0778 48.7861 25.8697 48.5781L20.2145 42.9418C19.666 42.3555 19.9876 42.015 20.1956 41.807L22.6355 39.3482V31.7827L26.4182 27.9999V31.0072C26.4182 33.2958 27.9313 36.6813 32.0924 36.6813C36.2534 36.6813 37.7665 33.2958 37.7665 31.0072H51.0062V32.8986ZM51.5547 23.9902L48.3393 27.2244H33.9838V31.0072C33.9838 31.8583 33.6244 32.8986 32.0924 32.8986C30.5604 32.8986 30.201 31.8583 30.201 31.0072V25.3331C30.201 24.463 30.5225 21.5503 33.9838 21.5503H40.4334L44.7457 17.238C45.332 16.6895 45.6725 17.011 45.8805 17.219L51.5357 22.8554C52.0842 23.4417 51.7627 23.7821 51.5547 23.9902Z" fill="white"/>
</g>
<defs>
<filter id="filter0_d_103_3195" x="0.591068" y="0.201379" width="70.5681" height="70.5698" filterUnits="userSpaceOnUse" color-interpolation-filters="sRGB">
<feFlood flood-opacity="0" result="BackgroundImageFix"/>
<feColorMatrix in="SourceAlpha" type="matrix" values="0 0 0 0 0 0 0 0 0 0 0 0 0 0 0 0 0 0 127 0" result="hardAlpha"/>
<feOffset dy="2.58687"/>
<feGaussianBlur stdDeviation="7.76062"/>
<feComposite in2="hardAlpha" operator="out"/>
<feColorMatrix type="matrix" values="0 0 0 0 1 0 0 0 0 1 0 0 0 0 1 0 0 0 0.25 0"/>
<feBlend mode="normal" in2="BackgroundImageFix" result="effect1_dropShadow_103_3195"/>
<feBlend mode="normal" in="SourceGraphic" in2="effect1_dropShadow_103_3195" result="shape"/>
</filter>
</defs>
</svg>
