<svg width="129" height="129" viewBox="0 0 129 129" fill="none" xmlns="http://www.w3.org/2000/svg">
<g filter="url(#filter0_d_103_2709)">
<path d="M102.126 47.7515C106.97 42.9077 104.761 37.2502 102.126 34.499L90.5012 22.874C85.6187 18.0302 80 20.239 77.2487 22.874L70.6612 29.5002H60.625C53.2625 29.5002 49 33.3752 46.83 37.8315L29.625 55.0365V70.5365L26.8737 73.249C22.03 78.1315 24.2387 83.7502 26.8737 86.5015L38.4987 98.1265C40.5912 100.219 42.8387 100.994 44.97 100.994C47.7212 100.994 50.24 99.6377 51.7512 98.1265L62.2137 87.6252H76.125C82.7125 87.6252 86.045 83.5177 87.2463 79.4877C91.625 78.3252 94.0275 74.9927 94.9962 71.7377C101.003 70.1877 103.25 64.4915 103.25 60.5002V48.8752H100.964L102.126 47.7515ZM95.5 60.5002C95.5 62.244 94.7637 64.3752 91.625 64.3752H87.75V68.2502C87.75 69.994 87.0137 72.1252 83.875 72.1252H80V76.0002C80 77.744 79.2637 79.8752 76.125 79.8752H59.0363L46.3262 92.5852C45.125 93.709 44.4275 93.0502 44.0012 92.624L32.415 81.0765C31.2912 79.8752 31.95 79.1777 32.3762 78.7515L37.375 73.714V58.214L45.125 50.464V56.6252C45.125 61.314 48.225 68.2502 56.75 68.2502C65.275 68.2502 68.375 61.314 68.375 56.6252H95.5V60.5002ZM96.6237 42.249L90.0362 48.8752H60.625V56.6252C60.625 58.369 59.8887 60.5002 56.75 60.5002C53.6112 60.5002 52.875 58.369 52.875 56.6252V45.0002C52.875 43.2177 53.5337 37.2502 60.625 37.2502H73.8387L82.6737 28.4152C83.875 27.2915 84.5725 27.9502 84.9988 28.3765L96.585 39.924C97.7087 41.1252 97.05 41.8227 96.6237 42.249Z" fill="white"/>
</g>
<defs>
<filter id="filter0_d_103_2709" x="0.010498" y="0.0107422" width="128.979" height="128.983" filterUnits="userSpaceOnUse" color-interpolation-filters="sRGB">
<feFlood flood-opacity="0" result="BackgroundImageFix"/>
<feColorMatrix in="SourceAlpha" type="matrix" values="0 0 0 0 0 0 0 0 0 0 0 0 0 0 0 0 0 0 127 0" result="hardAlpha"/>
<feOffset dy="4"/>
<feGaussianBlur stdDeviation="12"/>
<feComposite in2="hardAlpha" operator="out"/>
<feColorMatrix type="matrix" values="0 0 0 0 1 0 0 0 0 1 0 0 0 0 1 0 0 0 0.25 0"/>
<feBlend mode="normal" in2="BackgroundImageFix" result="effect1_dropShadow_103_2709"/>
<feBlend mode="normal" in="SourceGraphic" in2="effect1_dropShadow_103_2709" result="shape"/>
</filter>
</defs>
</svg>
